<?xml version="1.0" standalone="no"?>
<!DOCTYPE svg PUBLIC "-//W3C//DTD SVG 1.1//EN" "http://www.w3.org/Graphics/SVG/1.1/DTD/svg11.dtd" >
<svg xmlns="http://www.w3.org/2000/svg">
<metadata>Generated by IcoMoon</metadata>
<defs>
<font id="icomoon" horiz-adv-x="1024">
<font-face units-per-em="1024" ascent="960" descent="-64" />
<missing-glyph horiz-adv-x="1024" />
<glyph unicode="&#x20;" horiz-adv-x="512" d="" />
<glyph unicode="&#xe900;" glyph-name="bus" horiz-adv-x="1319" d="M607.342 616.202l125.479-71.251c1.751-0.992 3.706-1.491 5.658-1.491 1.95 0 3.905 0.494 5.654 1.489l372.927 211.489c3.501 1.987 5.664 5.664 5.664 9.639s-2.156 7.653-5.66 9.642l-125.489 71.258c-3.499 1.987-7.812 1.99-11.311 0.003l-372.915-211.498c-3.503-1.987-5.665-5.664-5.665-9.639s2.156-7.652 5.66-9.641zM985.913 824.491l102.847-58.402-350.277-198.645-102.837 58.392 350.267 198.655zM1319.371 770.291c0 0.003-2.156 7.658-5.66 9.648l-314.461 178.57c-3.501 1.987-7.812 1.99-11.311 0.003l-934.477-529.993c-3.5-1.987-5.659-5.656-5.664-9.63v-66.786h-36.481c-6.25 0-11.317-4.982-11.317-11.13v-43.447c0-6.148 5.067-11.132 11.317-11.132s11.317 4.984 11.317 11.132v32.317h25.164v-204.17c0-3.976 2.159-7.652 5.659-9.639l314.433-178.542c1.753-0.992 3.706-1.491 5.66-1.491 1.95 0 3.903 0.496 5.652 1.489l192.339 109.095c2.857-14.478 10.321-25.671 21.61-32.083 6.522-3.704 13.733-5.463 21.262-5.463 24.227 0 51.673 18.247 69.514 48.642 12.284 20.927 17.211 42.845 15.141 61.208l386.584 219.229c2.666-14.511 9.996-26.386 21.831-33.109 6.524-3.704 13.737-5.463 21.266-5.463 24.227 0 51.671 18.247 69.512 48.642 12.534 21.352 17.412 43.737 15.009 62.322l100.452 56.95c3.501 1.987 5.664 5.664 5.664 9.641l-0.014 293.19zM1296.748 703.679l-331.731-188.125v47.36l331.731 188.125v-47.36zM942.383 502.717l-81.483-46.21v47.36l81.483 46.21v-47.36zM838.266 443.674l-294.877-167.227v47.356l294.877 167.227v-47.356zM520.757 263.609l-81.481-46.208v47.356l81.481 46.208v-47.356zM416.642 204.564l-31.776-18.020v47.356l31.776 18.022v-47.358zM416.642 62.641l-31.776-18.030v116.236l31.776 18.020v-116.226zM362.228 186.557l-291.796 165.689v47.348l291.8-165.689v-47.348h-0.004zM70.432 326.538l260.875-148.129h-5.557c-6.248 0-11.317-4.984-11.317-11.13v-43.447c0-6.148 5.069-11.132 11.317-11.132 6.25 0 11.317 4.984 11.317 11.132v32.315h25.165v-111.527l-291.8 165.689v116.23zM384.863 18.911l31.776 18.028v-52.513l-31.776-18.024v52.51zM439.276 191.703l29.422 16.685v-194.438l-29.422-16.687v194.44zM491.333 221.225l29.42 16.685v-194.432l-29.42-16.687v194.434zM543.392 250.746l87.461 49.601v-98.753l-87.461-49.601v98.753zM653.487 313.184l79.807 45.259v-98.749l-79.807-45.259v98.749zM755.929 371.279l82.339 46.694v-98.749l-82.339-46.696v98.751zM860.9 430.811l29.422 16.685v-194.448l-29.422-16.685v194.448zM912.959 460.333l29.424 16.687v-194.448l-29.424-16.687v194.448zM965.018 489.856l63.403 35.956v-98.755l-63.403-35.956v98.755zM1051.055 538.648l79.803 45.257v-98.757l-79.803-45.257v98.757zM1153.493 596.742l65.715 37.266v-98.757l-65.715-37.268v98.759zM1241.842 646.845l54.906 31.136v-98.757l-54.906-31.136v98.757zM993.591 936.018l291.818-165.711-911.86-517.124-291.791 165.685 911.833 517.149zM70.432 184.602l291.8-165.689v-52.5l-24.025 13.641v27.819l-32.394 17.378v-26.807l-186.825 106.082v27.894l-32.395 17.378v-26.878l-16.164 9.177 0.003 52.504zM664.324 68.815c-16.187-27.571-44.152-43.955-59.857-35.029-9.444 5.362-11.297 17.674-11.563 24.537-0.524 13.542 4.027 29.566 12.477 43.963 13.18 22.453 34.164 37.472 49.985 37.472 3.608 0 6.955-0.784 9.872-2.44 15.701-8.919 15.269-40.928-0.914-68.504zM676.555 156.597c-27.514 15.624-67.387-3.342-90.776-43.179-7.859-13.385-12.885-27.672-14.734-41.411l-27.656-15.685v69.977l294.877 167.231v-70l-146.007-82.798c-3.785 6.624-9.021 12.071-15.705 15.866zM1178.657 359.322c-16.189-27.577-44.158-43.941-59.859-35.033-15.699 8.917-15.269 40.927 0.914 68.504 16.193 27.577 44.166 43.943 59.861 35.033 15.699-8.919 15.271-40.928-0.916-68.504zM1206.065 432.128c-3.74 6.221-8.797 11.353-15.175 14.976-27.518 15.622-67.391-3.342-90.78-43.179-7.861-13.395-12.7-27.191-14.631-40.206l-120.462-68.311v69.996l331.731 188.123v-69.988l-90.683-51.411z" />
<glyph unicode="&#xe901;" glyph-name="bus_icon" horiz-adv-x="1563" d="M320.527-64c50.578 0 91.578 41.677 91.578 93.092 0 51.41-41.001 93.087-91.578 93.087s-91.579-41.677-91.579-93.087c0-51.416 41.001-93.092 91.579-93.092zM1242.419-64c50.58 0 91.583 41.677 91.583 93.092 0 51.41-41.003 93.087-91.583 93.087-50.575 0-91.578-41.677-91.578-93.087 0-51.416 41.003-93.092 91.578-93.092zM1242.419 948.752v-268.024h295.214c-46.845 133.551-157.356 235.995-295.214 268.024zM412.105 960h323.58v-279.273h-323.58v279.273zM0 587.636v-186.18h1334.003c89.719 0 170.701-37.91 228.945-98.52v238.154c0 15.937-2.91 31.062-4.63 46.546h-1558.318zM1334.003 308.364h-1334.003v-279.272h137.369c0 102.68 82.143 186.179 183.158 186.179s183.157-83.499 183.157-186.179h555.579c0 102.68 82.141 186.179 183.156 186.179s183.161-83.499 183.161-186.179h137.367v46.543c0 128.318-102.713 232.728-228.945 232.728zM827.263 960h323.579v-279.273h-323.579v279.273zM320.527 960h-91.579c-126.235 0-228.948-104.408-228.948-232.727v-46.546h320.527v279.273z" />
<glyph unicode="&#xe902;" glyph-name="car" horiz-adv-x="1372" d="M708.516 148.103c-6.054 3.426-19.040 7.176-37.925-6.23-11.284-8.010-22.321-20.599-31.078-35.455-8.761-14.856-14.377-30.513-15.817-44.089-2.413-22.714 7.391-31.855 13.453-35.281 3.6-2.036 7.791-3.095 12.384-3.092 16.534 0 38.287 13.691 56.615 44.782 8.759 14.856 14.375 30.511 15.815 44.087 2.413 22.712-7.389 31.853-13.447 35.279zM698.237 115.237c-1.083-10.23-5.732-22.921-12.747-34.818-15.323-25.995-33.243-34.922-36.415-33.139-0.438 0.248-2.605 3.633-1.651 12.634 1.081 10.23 5.73 22.921 12.745 34.82 7.012 11.897 15.915 22.186 24.416 28.221 6.009 4.264 9.82 5.009 11.317 5.009 0.367 0 0.592-0.047 0.682-0.094 0.44-0.248 2.609-3.633 1.653-12.634zM1232.589 449.462c-6.058 3.424-19.046 7.172-37.925-6.23-11.284-8.008-22.321-20.601-31.078-35.457-23.425-39.733-18.921-70.003-2.363-79.366 2.798-1.583 7.068-3.23 12.716-3.23 6.586 0 15.045 2.247 25.211 9.462 11.282 8.008 22.319 20.601 31.076 35.457 8.761 14.856 14.375 30.511 15.817 44.085 2.41 22.714-7.395 31.853-13.453 35.279zM1222.312 416.596c-1.085-10.228-5.73-22.919-12.745-34.82s-15.915-22.186-24.416-28.221c-7.481-5.31-11.555-5.159-11.997-4.915-3.152 1.782-4.237 21.449 11.094 47.452 7.016 11.901 15.915 22.186 24.416 28.223 6.009 4.26 9.816 5.007 11.313 5.007 0.371 0 0.596-0.043 0.682-0.092 0.438-0.25 2.609-3.633 1.653-12.634zM1366.19 675.789l-383.574 216.867c-2.753 1.556-6.025 1.971-9.091 1.157l-61.108-16.264-142.166 80.871c-3.688 2.1-8.247 2.109-11.948 0.018l-415.443-234.611c-2.304-1.303-4.102-3.324-5.1-5.741l-75.121-181.977-258.796-181.064c-2.448-2.21-3.844-5.323-3.844-8.587v-169.411c0-4.174 2.275-8.032 5.964-10.117l405.7-229.366c1.845-1.042 3.906-1.565 5.964-1.565s4.119 0.522 5.964 1.565c0.244 0.137 142.324 81.037 142.324 81.037 4.655-23.063 16.503-41.775 35.346-52.431 10.346-5.851 21.95-8.761 34.316-8.761 14.848 0 30.796 4.202 46.975 12.567 27.855 14.399 53.455 39.737 72.088 71.344 18.635 31.607 28.24 65.989 27.046 96.809-0.033 0.842-0.106 1.653-0.154 2.486l309.533 175.333c5.251-21.842 17.019-38.66 34.271-48.415 10.59-5.986 22.317-8.833 34.603-8.833 40.923 0 87.906 31.615 118.78 83.976 23.935 40.604 31.984 83.18 24.861 116.441l61 50.055c2.632 2.161 4.186 5.333 4.264 8.698l3.314 147.544c0.092 4.264-2.195 8.243-5.968 10.373zM974.991 869.991l358.275-202.562-89.117-35.955-65.19 93.161c-0.94 1.489-2.204 2.761-3.703 3.707-0.877 0.555-233.849 132.709-233.849 132.709l33.583 8.939zM762.937 475.216l147.012 83.233v-114.369l-208.544-117.912 61.532 149.047zM933.802 571.955l160.041 90.612 23.673-101.124-183.714-103.873v114.385zM1139.13 573.661l-23.677 101.138 49.75 28.166 57.44-82.088-83.513-47.217zM764.242 934.82l380.508-216.449-391.5-221.653-382.165 216.076 393.157 222.026zM354.13 695.407l384.276-217.283-66.066-160.029-384.27 217.287 66.060 160.025zM274.803 515.906l383.191-216.676-241.025-168.278-381.933 217.526 239.767 167.428zM563.696 44.399l-134.142-76.861v35.095l139.452 78.995c-3.346-12.823-5.106-25.348-5.31-37.229zM23.856 327.817l381.845-217.475v-81.869l-381.845 217.473v81.871zM23.856 183.794v35.127l381.845-217.473v-33.532l-381.845 215.878zM733.981 53.002c-16.415-27.847-38.633-49.994-62.562-62.366-22.137-11.438-42.815-12.945-58.225-4.229-33.145 18.741-33.837 80.904-1.509 135.743 25.848 43.846 66.39 72.129 98.548 72.129 8.063 0 15.6-1.778 22.245-5.534 15.415-8.714 24.422-27.005 25.375-51.501 1.020-26.481-7.455-56.4-23.871-84.242zM1258.058 354.359c-32.334-54.843-87.658-85.338-120.795-66.593-15.413 8.714-24.422 27.005-25.373 51.497-1.026 26.483 7.451 56.402 23.867 84.249 16.415 27.843 38.633 49.99 62.562 62.36 12.64 6.537 24.803 9.828 35.787 9.828 8.247 0 15.831-1.862 22.44-5.599 33.147-18.739 33.839-80.902 1.511-135.741zM1295.127 482.666c-6.246 11.661-15.145 21.166-26.651 27.671-22.768 12.878-51.638 11.526-81.291-3.803-27.855-14.399-53.455-39.733-72.088-71.342-18.070-30.648-27.615-63.894-27.093-93.989l-310.596-175.938c-5.747 19.552-17.015 34.669-33.006 43.71-45.883 25.93-113.252-7.074-153.381-75.147-3.555-6.027-6.74-12.102-9.597-18.18l-151.869-86.028v81.424l254.331 177.57c0.745 0.518 1.405 1.139 2.005 1.806l559.155 316.148 102.859 41.501-2.796-124.387-49.983-41.015zM44.778 260.452l62.622-35.686v33.788l-62.622 35.686v-33.788zM322.103 133.622v-33.79l62.622-35.686v33.788l-62.622 35.688z" />
<glyph unicode="&#xe903;" glyph-name="car_icon" horiz-adv-x="1994" d="M1994.094 52.359h-157.308c-24.722 50.677-39.985 102.357-71.534 141.722-60.147 74.962-145.349 98.471-239.783 74.854-94.429-23.622-154.004-86.496-172.345-179.426-6.834-34.040-19.478-41.030-51.259-40.696-144.206 1.331-288.299 0.668-432.85 0.776-13.215 0-26.317 1.331-42.717 2.107v446.892h48.64c268.897 0 537.875 0 806.928 0 188.863 0 311.318-120.096 311.883-304.95 0.458-46.242 0.345-92.376 0.345-141.28zM589.366 49.589c-31.669 149.817-119.833 230.432-245.589 227.883s-212.782-84.943-236.589-225.221h-107.189v443.565h700.766v-87.606c0-105.677-1.024-211.359 0.684-316.923 0-31.717-8.084-45.8-42.485-42.361-23.175 1.385-46.403 1.606-69.6 0.663zM39.298 623.118c114.707 110.116 221.439 214.353 329.767 317.371 9.808 8.523 22.397 13.394 35.539 13.75 87.71 1.109 175.308 0 263.017 0.998 25.061 0 34.175-8.539 34.175-33.267-0.911-98.361 0-196.721 0-299.406l-662.498 0.554zM823.447 622.010c0 104.349 0 206.812 1.256 309.276 0 8.539 16.174 17.41 25.859 24.951 2.393 1.885 8.769-1.663 12.983-0.887 116.984 20.293 206.859-28.166 293.204-99.802 88.053-73.077 184.304-136.618 276.911-204.484 10.138-7.54 19.709-15.857 36.109-29.165l-646.322 0.111zM1472.162 49.147c0.614 21.763 7.842 42.857 20.771 60.621s30.973 31.399 51.858 39.187c20.884 7.782 43.671 9.362 65.482 4.543 21.806-4.818 41.661-15.823 57.042-31.625 15.387-15.797 25.616-35.684 29.4-57.139 3.778-21.455 0.943-43.525-8.154-63.413s-24.048-36.702-42.954-48.322c-18.912-11.62-40.938-17.521-63.294-16.961-14.88 0.329-29.545 3.525-43.148 9.394-13.608 5.875-25.886 14.314-36.126 24.829s-18.238 22.9-23.536 36.438c-5.303 13.538-7.799 27.966-7.34 42.447zM460.533 48.036c0.302-14.498-2.351-28.915-7.804-42.41s-13.6-25.81-23.969-36.223c-10.369-10.412-22.755-18.723-36.442-24.452s-28.404-8.758-43.301-8.914c-30.045-0.027-58.937 11.259-80.634 31.491s-34.517 47.848-35.781 77.069c0.711 29.173 12.732 56.999 33.65 77.899s49.183 33.318 79.12 34.767c30.037 0.011 58.889-11.404 80.402-31.809 21.514-20.41 33.987-48.187 34.76-77.42z" />
<glyph unicode="&#xe904;" glyph-name="concrete_mixer" horiz-adv-x="1201" d="M1200.543 606.686c-0.002 4.017-2.179 7.726-5.719 9.733l-118.577 67.342c35.985 50.637 74.837 105.272 85.289 119.22 1.356 1.808 2.127 3.974 2.223 6.216 4.749 114.407-95.211 149.839-96.219 150.182-1.471 0.501-3.035 0.703-4.589 0.591l-290.514-20.959c-17.525-1.322-34.308-6.047-49.881-14.048l-144.089-74.005c-14.357-7.372-27.019-17.204-37.643-29.219 0 0-193.086-217.393-194.299-218.323l-118.63 67.369c-3.542 2.011-7.902 2.011-11.441 0l-172.114-97.746c-3.538-2.009-5.059-5.777-5.72-9.742-3.852-23.195-38.621-225.225-38.621-227.704v-190.282c0-4.018 2.179-7.735 5.72-9.742l348.835-198.063c1.785-1.012 3.755-1.504 5.711-1.504 1.997 0 3.958 0.554 5.715 1.552l0.016-0.028 113.519 64.448c1.16-22.364 10.394-40.944 27.396-50.596 7.789-4.424 16.409-6.525 25.418-6.525 29.452 0 63.017 22.479 84.943 59.825 13.173 22.441 19.961 46.903 19.117 68.876-0.222 5.745-0.962 11.162-2.179 16.222l181.979 102.356c1.713-22.152 11.259-39.193 27.138-48.209 7.791-4.421 16.41-6.525 25.422-6.525 29.452 0 63.017 22.48 84.939 59.825 13.376 22.782 19.707 46.483 19.272 67.199 3.918-15.632 12.505-27.712 25.014-34.816 7.791-4.421 16.41-6.522 25.422-6.522 29.452 0 63.017 22.48 84.939 59.825 13.173 22.441 19.963 46.901 19.119 68.876-0.215 5.574-0.93 10.833-2.080 15.764l21.114 11.983c3.538 2.009 5.72 5.724 5.72 9.744v112.328l42.609 24.117c3.547 2.009 5.734 5.727 5.734 9.751v71.219h-0.009zM409.332 358.17l149.61 84.936v-179.894l-181.794-103.224 32.184 198.183zM581.821 400.656l177.201 30.964c16.094 2.812 31.311 8.52 45.227 16.974l161.389 97.999c13.098 7.954 24.532 18.037 33.986 29.964 2.362 2.98 12.763 17.464 27.584 38.25l76.745-43.329-522.134-295.549v124.728zM1126.898 584.467l-86.512 48.845c7.064 9.926 14.716 20.692 22.706 31.938l103.103-58.553-39.297-22.23zM1101.828 911.342c26.878-25.293 40.053-58.202 39.18-97.858-13.545-18.374-134.116-188.044-147.597-206.831 12.034 63.663 1.292 129.976-31.442 187.883-32.604 57.667-84.157 101.509-145.556 125.091l245.652 17.722c5.749-2.329 22.848-10.091 39.763-26.007zM733.147 905.019c6.836 3.51 13.962 6.23 21.297 8.19l7.415-1.392c76.595-14.501 142.244-61.234 180.113-128.219 37.277-65.936 43.562-143.697 17.491-214.017-1.905-1.333-3.844-2.629-5.844-3.845l-150.98-91.678c23.919 70.79 18.354 147.55-16.532 215.243-38.283 74.284-106.392 127.015-188.167 146.275l135.207 69.443zM569.824 818.312l10.941-2.073c80.479-15.241 147.883-65.217 184.934-137.109 35.898-69.66 38.075-149.755 6.264-220.928-5.494-1.919-189.511-34.692-189.511-34.692s0 38.188 0 39.436c0 4.020-2.18 7.735-5.72 9.742l-36.85 20.927c-4.439 19.527-13.31 39.11-25.912 56.904-2.283 3.272-4.889 6.7-8 10.522-12.344 15.023-26.564 27.613-42.258 37.413-23.753 14.83-48.852 21.815-71.618 20.796-0.002 0 173.545 195.593 177.729 199.061zM510.535 510.279l-141.769 80.508c22.184 11.155 53.252 7.046 82.684-11.326 13.589-8.487 25.946-19.442 36.693-32.521 2.726-3.347 5.002-6.338 7.011-9.216 6.225-8.796 11.375-18.040 15.381-27.445zM222.174 648.049l325.959-185.099-149.237-84.724-325.96 185.070 149.239 84.752zM59.82 544.763l326.538-185.4-33.255-204.772-327.883 186.168 34.6 204.004zM348.841 131.028v-92.984l-325.963 185.070v92.993l325.963-185.079zM296.573 41.737v-45.333l-217.893 123.717v45.33l217.893-123.713zM22.878 197.132l32.921-18.692v-45.326l-32.921 18.692v45.326zM319.453-16.584v45.331l29.389-16.686v-45.333l-29.389 16.688zM481.81 29.251l-110.091-62.499v164.174l187.918 106.307v-110.103c-3.275-1.232-6.569-2.678-9.878-4.394-19.774-10.265-37.92-28.277-51.092-50.716-8.344-14.218-13.93-28.787-16.857-42.768zM597.46 15.92c-21.476-36.58-57.697-57.22-79.109-45.065-21.405 12.156-21.347 53.329 0.125 89.911 11.049 18.815 25.95 33.758 41.963 42.069 8.266 4.292 16.165 6.455 23.225 6.455 5.145 0 9.846-1.149 13.923-3.462 9.664-5.487 15.325-17.254 15.939-33.137 0.687-17.791-5.018-37.953-16.066-56.77zM933.877 208.463c-21.478-36.585-57.711-57.217-79.111-45.065-9.664 5.491-15.321 17.258-15.937 33.137-0.683 17.795 5.023 37.959 16.066 56.776 21.481 36.583 57.717 57.21 79.109 45.065 21.405-12.156 21.345-53.329-0.127-89.912zM1088.524 294.149c-21.478-36.585-57.711-57.222-79.111-45.065-9.664 5.487-15.325 17.254-15.937 33.137-0.685 17.793 5.023 37.955 16.066 56.774 11.049 18.815 25.95 33.758 41.961 42.072 8.268 4.292 16.165 6.455 23.227 6.455 5.145 0 9.845-1.151 13.919-3.462 9.666-5.487 15.325-17.254 15.941-33.137 0.685-17.795-5.019-37.959-16.066-56.774zM1129.329 395.765l-12.908-7.327c-4.299 6.264-9.767 11.379-16.329 15.106-16.725 9.498-37.773 8.579-59.267-2.579-19.776-10.265-37.92-28.278-51.092-50.72-8.231-14.020-13.971-28.831-16.91-43.329l-10.012-5.685c-4.389 6.875-10.184 12.549-17.364 16.628-33.255 18.88-81.731-4.53-110.361-53.299-8.669-14.769-14.553-30.409-17.336-45.64l-192.634-108.35c-4.26 6.1-9.649 11.087-16.089 14.744-7.987 4.536-16.968 6.668-26.513 6.471v47.365l546.814 309.499v-92.882zM582.515 205.109v44.856l595.159 337.269v-45.261l-595.159-336.864z" />
<glyph unicode="&#xe905;" glyph-name="concrete_mixer_icon" horiz-adv-x="1347" d="M357.894 576c21.779 0 39.474 19.126 39.474 42.667 0 7.501-1.811 14.873-5.282 21.376l-34.192 64-34.231-64.082c-3.431-6.42-5.242-13.793-5.242-21.293 0-23.541 17.695-42.667 39.474-42.667zM160.527 362.668h394.735c87.083 0 157.895 76.539 157.895 170.665v256c0 94.126-70.812 170.667-157.895 170.667h-394.735c-87.082 0-160.527-76.541-160.527-170.667v-256c0-94.126 73.445-170.665 160.527-170.665zM255.24 682.541l102.655 192.082 102.616-192c10.371-19.499 15.805-41.582 15.805-63.957 0-70.582-53.121-128-118.421-128s-118.421 57.418-118.421 128c0 22.374 5.434 44.458 15.766 63.874zM278.947-64c43.601 0 78.947 38.206 78.947 85.332 0 47.131-35.346 85.337-78.947 85.337s-78.947-38.206-78.947-85.337c0-47.126 35.346-85.332 78.947-85.332zM1068.42-64c43.601 0 78.95 38.206 78.95 85.332 0 47.131-35.35 85.337-78.95 85.337s-78.945-38.206-78.945-85.337c0-47.126 35.344-85.332 78.945-85.332zM1121.657 692.417c-13.183 57.039-60.443 96.916-114.877 96.916h-214.674v-341.333h386.059l-56.509 244.417zM278.947 192c87.081 0 157.895-76.541 157.895-170.668h276.315v256h-713.157v-256h121.052c0 94.127 70.813 170.668 157.895 170.668zM792.107 21.332h118.418c0 94.127 70.812 170.668 157.895 170.668s157.895-76.541 157.895-170.668h121.053v341.337h-555.261v-341.337z" />
<glyph unicode="&#xe906;" glyph-name="dump_truck" horiz-adv-x="1294" d="M1294.465 750.826c0 3.986-2.108 7.715-5.63 9.736l-344.959 197.934c-2.815 1.61-6.183 1.948-9.26 0.919l-718.473-240.185c-4.214-1.408-7.205-5.143-7.649-9.539-0.037-0.375-0.031-0.746-0.031-1.117h-0.025v-41.586l-164.595-94.461c-2.952-1.694-4.931-4.608-5.483-7.887l-38.205-227.519c-0.102-0.607-0.156-1.221-0.156-1.849v-190.132c0-4.017 2.155-7.728 5.655-9.736l344.925-197.901c1.764-1.010 3.712-1.503 5.646-1.503 1.975 0 3.914 0.556 5.647 1.551l0.017-0.031 112.246 64.396c1.148-22.346 10.279-40.912 27.090-50.559 7.701-4.419 16.224-6.517 25.132-6.517 29.122 0 62.313 22.462 83.991 59.776 17.248 29.69 22.634 60.936 16.794 85.098l286.509 164.379c1.689-21.212 10.758-38.746 26.929-48.024 7.566-4.343 16.030-6.507 25.024-6.507 10.655 0 22.053 3.039 33.579 9.083 19.553 10.257 37.494 28.259 50.52 50.678 12.763 21.973 19.448 45.877 18.923 67.487 3.785-15.343 12.11-27.806 24.866-35.127 7.568-4.343 16.030-6.507 25.026-6.507 10.653 0 22.053 3.039 33.578 9.087 19.555 10.257 37.496 28.255 50.524 50.676 13.024 22.424 19.736 46.864 18.9 68.821-0.213 5.57-0.916 10.825-2.054 15.752l20.878 11.977c3.501 2.005 5.655 5.719 5.655 9.734v109.423l42.834 24.576c3.501 2.009 5.655 5.719 5.655 9.734v155.866l-0.025 0.002zM378.476 336.919l-324.201 186.011 3.696 22.020 324.057-185.927-3.551-22.103zM374.655 313.149l-25.511-158.735-325.385 186.698 26.543 158.138 324.353-186.101zM344.932 130.871v-44.447l-322.31 184.927v44.451l322.31-184.931zM22.622 245.389l31.283-17.947v-34.379l-31.283 17.945v34.381zM76.526 214.462l213.49-122.49v-93.76l-213.49 122.492v93.758zM312.639 78.991l32.295-18.529v-34.385l-32.295 18.523v34.391zM404.743 357.83l148.621 85.262v-179.749l-180.444-103.536 31.823 198.022zM231.059 689.102l322.305-184.923v-22.221l-322.305 184.954v22.19zM565.907 522.943l-37.266 21.382 409.581 235.036 145.335-83.395-517.649-173.023zM1112.143 705.519l-162.611 93.309v130.46l306.29-175.744-143.679-48.026zM926.909 933.118v-134.29l-420.891-241.525-258.914 148.553 679.805 227.262zM219.683 647.479l322.305-184.95-147.564-84.66-322.303 184.923 147.562 84.687zM22.622 185.046l31.283-17.945v-33.419l-31.283 17.949v33.415zM312.639-14.767v33.411l32.295-18.523v-33.417l-32.295 18.529zM476.407 29.174l-108.855-62.45v164.047l185.812 106.612v-110.291c-22.19-8.352-44.347-27.754-60.287-55.188-8.25-14.203-13.772-28.757-16.67-42.73zM590.763 15.853c-21.237-36.553-57.062-57.168-78.224-45.029-21.164 12.147-21.106 53.287 0.128 89.84 17.093 29.424 43.634 48.52 64.379 48.52 5.027 0 9.716-1.121 13.843-3.489 21.166-12.145 21.11-53.289-0.126-89.842zM602.201 125.164c-8.012 4.594-16.919 6.664-26.216 6.486v44.579l69.669 39.973v-89.913l-27.571-15.82c-4.167 6.005-9.458 11.009-15.882 14.695zM839.475 327.406v-89.917l-171.201-98.223v89.913l171.201 98.227zM1030.115 270.562c-10.92-18.799-25.656-33.73-41.487-42.034-14.131-7.413-27.171-8.474-36.733-2.991-21.164 12.147-21.106 53.285 0.128 89.838 10.924 18.801 25.658 33.732 41.491 42.036 14.129 7.413 27.175 8.476 36.731 2.991 9.558-5.483 15.155-17.242 15.76-33.108 0.676-17.783-4.965-37.931-15.889-56.732zM1183.031 356.178c-10.924-18.801-25.658-33.732-41.491-42.036-14.129-7.413-27.173-8.474-36.731-2.991-21.166 12.147-21.106 53.285 0.128 89.838 10.92 18.801 25.656 33.732 41.487 42.036 8.173 4.289 15.982 6.449 22.967 6.449 5.087 0 9.736-1.15 13.766-3.458 9.556-5.483 15.153-17.242 15.758-33.108 0.678-17.781-4.964-37.927-15.884-56.73zM1223.381 457.714l-12.765-7.324c-4.251 6.26-9.657 11.37-16.148 15.095-16.537 9.49-37.349 8.571-58.604-2.577-19.555-10.257-37.496-28.255-50.52-50.678-8.37-14.407-13.93-29.178-16.792-43.333l-9.846-5.649c-4.386 6.961-10.138 12.599-17.153 16.624-16.533 9.486-37.347 8.571-58.604-2.577-19.553-10.257-37.496-28.255-50.52-50.678-8.835-15.209-14.562-30.83-17.263-45.697l-53.066-30.446v89.917l361.281 207.285v-89.959zM575.985 202.19v300.401l695.885 232.593v-133.734l-695.885-399.26z" />
<glyph unicode="&#xe907;" glyph-name="dump_truck_icon" horiz-adv-x="1293" d="M713.949 957.462c-59.155 10.048-104.475-9.741-140.487-59.368-4.807-5.843-10.709-10.62-17.338-14.046-6.634-3.427-13.862-5.432-21.255-5.897-121.554-0.997-243.183 0-364.737 0.614-55.749 0-111.499 0-168.727 0-0.665-14.497-1.405-24.239-1.405-33.98 0-126.254 0-252.482 0-378.685 0-88.361 45.398-135.385 130.501-135.46 172.867 0 345.71 0 518.527 0 10.202 0 20.41 0.922 32.682 1.611v551.269h73.938v73.636c-13.889-1.031-27.831-0.929-41.698 0.307zM149.725 447.537h-74.382v315.942h74.382v-315.942zM227.434 448.457v315.098c20.579 0.884 41.189 0.603 61.739-0.843 3.835-1.49 7.247-3.956 9.922-7.174s4.526-7.081 5.383-11.235c0.961-97.951 0.666-195.825 0.666-295.846h-77.709zM455.533 447.229h-76.304v315.713h76.452l-0.148-315.713zM606.143 447.229h-73.197v315.789h73.348l-0.151-315.789zM762.6 411.104v303.285c2.657 1.534 5.098 4.142 7.389 4.142 87.768 0 175.681 2.301 263.297-1.688 62.254-2.838 109.277-39.809 139.226-95.112 34.897-64.431 65.434-131.393 97.819-197.358 1.563-4.263 2.803-8.65 3.697-13.117l-511.429-0.151zM871.359 16.384h-108.172v307.507h530.286v-306.127h-109.428c-6.063 50.165-22.183 98.644-67.212 124.416-29.825 17.607-63.305 27.497-97.598 28.839-77.635 0.307-129.315-57.064-147.876-154.635zM1.552 17.155v227.883h678.163v-231.106h-235.495c-14.788 0-23.586 3.525-26.914 22.399-14.787 82.993-75.565 136.607-152.164 136.532s-137.156-54.31-152.239-136.763c-1.035-5.831-2.366-11.582-3.919-18.944h-107.432zM262.776-63.31c-14.421 0.523-28.369 5.47-40.080 14.217s-20.66 20.895-25.716 34.918c-5.055 14.018-5.991 29.281-2.688 43.854s10.695 27.799 21.244 38.012c10.548 10.218 23.779 16.955 38.020 19.375 14.241 2.414 28.852 0.393 41.987-5.804s24.204-16.292 31.809-29.017c7.605-12.719 11.403-27.497 10.915-42.458-0.257-9.965-2.421-19.779-6.368-28.866-3.947-9.092-9.598-17.279-16.623-24.080s-15.285-12.089-24.298-15.549c-9.013-3.46-18.6-5.023-28.201-4.603zM1026.926 87.951c19.434 0.35 38.222-7.249 52.294-21.159s22.302-33.011 22.9-53.167c-0.243-20.087-7.885-39.322-21.358-53.755-13.474-14.428-31.755-22.97-51.098-23.87-19.391 0.027-38.017 7.831-51.981 21.79-13.959 13.953-22.178 32.973-22.921 53.076-0.237 10.003 1.455 19.952 4.969 29.27 3.519 9.318 8.79 17.812 15.511 24.991s14.751 12.897 23.627 16.815c8.871 3.918 18.41 5.961 28.058 6.009z" />
<glyph unicode="&#xe908;" glyph-name="emergency" horiz-adv-x="1163" d="M872.627 337.726l0.042 33.622-25.038-14.444-0.036-33.705-29.099-16.891 0.036-28.948 29.028 16.846-0.036-33.618 25.024 14.44 0.043 33.703 29.102 16.893-0.042 28.95-29.024-16.847zM1162.844 734.723c-0.002 3.765-2.003 7.241-5.255 9.121l-370.985 214.742c-3.244 1.88-7.241 1.885-10.492 0.016l-383.59-220.515-4.108 2.378c-1.571 0.949-9.197 0.975-10.738 0.071l-84.652-49.025c-3.253-1.881-5.257-5.365-5.257-9.131 0-0.644 0.193-4.398 0.193-4.398l-116.769-67.114c-1.57-0.904-2.843-2.183-3.75-3.683l-0.074 0.045-118.631-202.394-47.112-74.92c-1.060-1.685-1.623-3.636-1.623-5.623v-162.87c0-3.768 2.004-7.248 5.257-9.129l370.994-214.877c1.628-0.944 3.445-1.416 5.262-1.416 1.765 0 3.527 0.453 5.118 1.345l0.005-0.009 101.529 56.764c4.45-20.444 14.949-36.18 30.545-45.207 9.126-5.283 19.359-7.911 30.264-7.911 13.093 0 27.16 3.792 41.427 11.342 24.562 13 47.14 35.868 63.571 64.399 16.066 27.894 24.496 58.174 23.883 85.513l256.857 146.678c4.761-19.151 15.027-33.908 29.942-42.541 9.339-5.405 19.683-7.972 30.513-7.972 36.088 0 77.525 28.542 104.752 75.806 15.886 27.584 23.818 56.171 24.102 81.431l33.905 21.369c3.063 1.93 4.92 5.302 4.92 8.926l-0.003 348.79zM382.986 719.256l124.885-72.289-63.665-36.854-124.886 72.274 63.667 36.869zM308.998 664.010l120.589-69.788v-24.474l-120.589 69.788v24.474zM450.626 582.047l118.944-68.835v-24.475l-118.944 68.835v24.475zM590.61 513.213l63.84 36.951v-24.696l-63.84-36.951v24.696zM580.093 531.477l-114.846 66.463 63.662 36.854 114.837-66.471-63.653-36.845zM287.959 653.673v-20.225c0-3.766 2.005-7.248 5.259-9.131l281.807-163.083c1.628-0.942 3.445-1.415 5.259-1.415 1.815 0 3.633 0.472 5.261 1.415l84.685 49.018c3.256 1.883 5.261 5.365 5.261 9.133l-0.215 49.312c-0.13 3.622-2.090 6.935-5.236 8.758l-256.444 148.44 367.732 211.399 349.909-202.544-583.789-335.58-349.932 202.521 90.445 51.983zM424.93 198.84l-352.775 204.326 80.771 137.801 352.777-204.328-80.773-137.799zM516.36 354.825l-352.778 204.324 16.554 28.243 352.846-204.206-16.622-28.361zM61.218 385.142l352.764-204.318-35.972-57.205-352.765 204.319 35.972 57.203zM485.765 16.905l-93.732-52.405v25.439l97.091 57.733c-2.26-10.455-3.405-20.794-3.358-30.767zM83.074 270.090v-40.955l-62.036 35.93v40.957l62.036-35.932zM370.993 62.372l-65.449 37.909v40.955l65.449-37.907v-40.957zM284.507 112.468l-180.395 104.481v40.957l180.395-104.483v-40.955zM21.038 240.709l349.955-202.69v-25.645l-349.955 202.69v25.645zM21.038 167.506v23.203l349.955-202.69v-23.203l-349.955 202.69zM635.753 27.266c-14.477-25.133-34.071-45.125-55.175-56.292-19.518-10.33-37.756-11.686-51.349-3.817-13.593 7.866-21.537 24.376-22.374 46.486-0.904 23.904 6.571 50.912 21.046 76.048 14.477 25.135 34.071 45.125 55.175 56.292 11.148 5.899 21.875 8.871 31.558 8.871 7.274 0 13.961-1.68 19.791-5.054 13.593-7.866 21.537-24.376 22.374-46.486 0.906-23.908-6.569-50.915-21.046-76.048zM931.757 271.497l-256.706-146.592c-4.691 19.454-15.030 34.434-30.106 43.159-20.081 11.625-45.542 10.405-71.69-3.431-24.562-13-47.14-35.868-63.571-64.399-4.221-7.329-7.909-14.824-11.051-22.387l-106.6-63.386v91.91l45.578 72.48c0.059 0.094 0.116 0.186 0.172 0.279l117.291 200.112 586.735 337.269v-274.151l-41.239-23.866c-2.959 2.647-6.172 5.023-9.679 7.052-40.457 23.413-99.871-6.382-135.262-67.83-16.205-28.136-24.647-58.698-23.871-86.219zM1081.702 284.75c-28.516-49.503-77.3-77.034-106.524-60.114-13.595 7.867-21.54 24.378-22.377 46.488-0.906 23.904 6.571 50.912 21.046 76.047 28.512 49.503 77.293 77.029 106.524 60.116 29.229-16.922 29.84-73.035 1.331-122.536zM1121.87 379.192c-1.71 8.225-4.438 15.808-8.143 22.563l28.082 16.252v-26.247l-19.938-12.567zM1059.239 370.596c-5.344 3.095-16.794 6.477-33.445-5.623-9.95-7.227-19.683-18.595-27.407-32.004-20.661-35.868-16.686-63.193-2.083-71.644 2.466-1.428 6.233-2.916 11.21-2.916 5.809 0 13.267 2.027 22.235 8.541 9.95 7.23 19.683 18.595 27.407 32.006 7.727 13.411 12.679 27.542 13.949 39.795 2.124 20.504-6.522 28.754-11.866 31.845zM1050.178 340.93c-0.958-9.232-5.054-20.692-11.243-31.432-6.184-10.742-14.034-20.027-21.532-25.477-6.604-4.797-10.19-4.657-10.58-4.436-2.779 1.609-3.733 19.362 9.784 42.838 6.186 10.743 14.032 20.027 21.532 25.473 5.297 3.846 8.657 4.521 9.978 4.521 0.326 0 0.526-0.040 0.602-0.085 0.392-0.226 2.303-3.279 1.46-11.403zM613.294 113.114c-5.34 3.093-16.79 6.477-33.445-5.623-9.95-7.229-19.683-18.595-27.407-32.006-20.657-35.868-16.686-63.191-2.083-71.642 2.466-1.427 6.233-2.916 11.214-2.916 5.809 0 13.267 2.027 22.235 8.541 9.95 7.229 19.683 18.595 27.403 32.006 7.727 13.409 12.679 27.542 13.949 39.795 2.124 20.501-6.522 28.752-11.866 31.845zM604.233 83.446c-0.958-9.232-5.054-20.688-11.241-31.43-6.186-10.743-14.036-20.027-21.534-25.477-6.604-4.797-10.188-4.658-10.578-4.436-2.78 1.607-3.735 19.362 9.785 42.834 6.184 10.743 14.034 20.027 21.532 25.477 5.297 3.846 8.657 4.521 9.978 4.521 0.326 0 0.526-0.040 0.602-0.085 0.385-0.227 2.298-3.279 1.456-11.405zM735.211 451.459c-3.246 1.885-7.248 1.892-10.506 0.023l-143.596-82.538c-2.147-1.234-3.792-3.187-4.644-5.517l-50.969-139.346c-1.526-4.167-0.283-8.841 3.105-11.7 1.94-1.637 4.349-2.475 6.772-2.475 1.807 0 3.62 0.467 5.259 1.413l194.565 112.623c3.256 1.881 5.261 5.365 5.261 9.131v109.263c-0.003 3.761-2.001 7.239-5.247 9.124zM719.417 339.159l-164.185-95.032 39.665 108.436 124.52 71.571v-84.975zM965.033 459.563c1.628-0.942 3.445-1.413 5.261-1.413 1.814 0 3.631 0.47 5.259 1.413l143.586 83.092c3.253 1.885 5.259 5.365 5.259 9.131v109.269c0 3.763-1.998 7.239-5.247 9.124-3.242 1.885-7.246 1.894-10.506 0.024l-143.584-82.54c-3.27-1.88-5.287-5.37-5.287-9.147v-109.823c0-3.766 2.006-7.25 5.259-9.131zM980.813 572.409l122.547 70.443v-84.976l-122.547-70.918v85.452zM925.561 560.508c-3.244 1.888-7.25 1.899-10.506 0.024l-143.586-82.538c-3.272-1.88-5.285-5.37-5.285-9.148v-109.823c0-3.766 2.003-7.25 5.259-9.131 1.628-0.941 3.445-1.413 5.261-1.413 1.814 0 3.631 0.472 5.259 1.413l143.586 83.092c3.253 1.885 5.259 5.365 5.259 9.133v109.269c0 3.758-2.001 7.237-5.247 9.122zM909.77 448.203l-122.549-70.918v85.45l122.549 70.448v-84.98z" />
<glyph unicode="&#xe909;" glyph-name="emergency_icon" horiz-adv-x="1536" d="M900.215 362.98v423.979h-629.017v-425.982h-271.198v-336.418h130.108c23.984 108.311 86.183 166.628 178.866 169.461 42.716 1.655 84.698-10.9 118.688-35.493 47.089-33.326 66.943-80.481 74.235-133.296h533.082c16.521 102.554 82.933 165.877 175.707 169.040 102.787 3.584 167.794-52.156 195.823-169.21h129.49v337.92h-635.785zM723.194 448.208h-86.795v-83.312h-94.793v81.728h-89.521v87.646h87.852v84.229h94.528v-82.646h88.377l0.353-87.645zM997.12 451.541v335.168c12.208 0.75 23.103 1.916 34.082 2 54.994 0 109.961 0 164.898 0 75.992 0 141.881-26.16 181.328-87.896 50.779-79.23 93.212-163.293 141.443-249.272h-521.751zM175.792 451.457h-174.737v334.835h174.737v-334.835zM1220.961 103.208c23.245-0.489 45.38-9.506 61.764-25.151 16.378-15.644 25.731-36.699 26.089-58.743-0.927-22.016-10.65-42.871-27.187-58.34-16.543-15.474-38.667-24.4-61.895-24.974-23.159 0.814-45.102 10.069-61.252 25.833-16.151 15.77-25.27 36.83-25.458 58.812 0.21 21.982 9.569 42.991 26.044 58.459 16.469 15.462 38.719 24.127 61.895 24.104zM317.057 103.208c23.117-0.262 45.192-9.153 61.44-24.752 16.248-15.593 25.359-36.636 25.358-58.561-0.493-21.948-9.908-42.866-26.278-58.391s-38.429-24.451-61.574-24.923c-23.204 0.779-45.219 9.933-61.547 25.589s-25.737 36.631-26.305 58.641c0.811 21.942 10.5 42.741 27.055 58.084s38.705 24.053 61.851 24.314zM1081.634 959.75c0-23.161 0-42.573 0-61.985-0.546-5.602-1.456-11.167-2.725-16.663h-260.039v78.897l262.764-0.25z" />
<glyph unicode="&#xe90a;" glyph-name="fire_engine" horiz-adv-x="1222" d="M668.85 410.99c-3.324 1.858-7.414 1.858-10.738 0l-240.299-134.297c-2.7-1.507-4.59-4.080-5.177-7.048l-25.731-130.143c-0.79-3.992 0.898-8.068 4.319-10.425 1.856-1.279 4.037-1.926 6.225-1.926 1.847 0 3.697 0.46 5.361 1.389l266.030 148.372c3.327 1.856 5.377 5.289 5.377 9.009v116.064c0.004 3.715-2.043 7.148-5.366 9.004zM432.809 261.066l98.006 54.771v-91.91l-118.405-66.041 20.399 103.18zM652.743 291.933l-100.454-56.027v91.934l100.454 56.142v-92.049zM1149.021 654.981c-3.322 1.858-7.414 1.858-10.738 0l-180.131-100.692c-3.32-1.856-5.368-5.289-5.368-9.004v-116.616c0-3.713 2.048-7.148 5.368-9.004 1.662-0.927 3.518-1.392 5.37-1.392s3.708 0.465 5.37 1.392l180.129 100.692c3.322 1.856 5.37 5.289 5.37 9.004v116.616c0 3.712-2.048 7.148-5.37 9.004zM1066.192 590.67l24.707 13.811v-92.606l-24.707-13.811v92.606zM1044.715 486.062l-24.711-13.815v92.606l24.711 13.815v-92.606zM974.261 539.282l24.269 13.565v-92.606l-24.269-13.565v92.606zM1132.916 535.363l-20.537-11.481v92.606l20.537 11.48v-92.604zM840.149 417.557c-3.324 1.858-7.416 1.858-10.738 0l-73.060-40.84c-3.32-1.856-5.37-5.289-5.37-9.002v-47.298c0-3.713 2.050-7.146 5.37-9.002 1.662-0.929 3.518-1.394 5.37-1.394s3.706 0.465 5.368 1.394l73.060 40.838c3.32 1.856 5.368 5.289 5.368 9.004v47.296c0 3.713-2.048 7.148-5.368 9.004zM824.042 367.257l-51.583-28.835v23.29l51.583 28.834v-23.288zM1221.614 760.667c0 3.715-2.048 7.148-5.37 9.004l-338.019 188.935c-3.324 1.858-7.414 1.858-10.738 0l-326.108-182.283c-3.322-1.856-5.37-5.291-5.37-9.004v-64.954l-98.275-54.93-57.524 32.154c-3.324 1.859-7.414 1.859-10.738 0l-326.105-182.286c-5.876-2.856-5.715-6.952-5.715-6.952l-36.818-169.477c-0.542-1.254-0.835-2.612-0.835-4.013v-181.525c0-3.715 2.048-7.148 5.369-9.004l338.023-188.941c1.674-0.936 3.525-1.39 5.361-1.39 1.874 0 3.715 0.512 5.363 1.435l0.016-0.027 110.49 61.754c0.99-21.468 9.891-39.313 26.405-48.543 7.497-4.189 15.793-6.184 24.466-6.184 28.413 0 60.817 21.389 81.999 56.906 12.734 21.355 19.296 44.627 18.479 65.525-0.217 5.562-0.952 10.808-2.163 15.694l281.514 157.346c1.532-20.378 10.384-37.23 26.27-46.111 7.495-4.189 15.793-6.184 24.465-6.184 28.412 0 60.817 21.389 82.001 56.907 12.732 21.353 19.296 44.625 18.477 65.523-0.045 1.157-0.129 2.292-0.217 3.424 3.101-17.214 11.79-30.476 25.128-37.929 7.36-4.118 15.595-6.166 24.348-6.166 10.386 0 21.5 2.885 32.743 8.632 19.102 9.764 36.638 26.902 49.373 48.256 16.768 28.117 22.072 57.691 16.519 80.618l21.644 11.584c3.419 1.832 5.54 5.316 5.54 9.101 0.004-0.005 0.004 332.642 0.004 333.104zM797.55 895.504l108.515-60.664-145.316-81.23-108.533 60.657 145.334 81.237zM630.741 802.264l124.639-69.663c1.662-0.929 3.518-1.392 5.37-1.392s3.706 0.463 5.368 1.392l166.793 93.234c3.322 1.856 5.37 5.289 5.37 9.003s-2.048 7.145-5.37 9.003l-113.883 63.666 53.828 30.091 316.544-176.93-304.629-170.279-316.545 176.929 62.516 34.944zM723.824 406.717l149.222 83.406v-169.785l-149.222-83.407v169.786zM557.485 749.315l315.57-176.387v-46.799c0 0-313.242 175.082-315.57 176.367v46.818zM546.879 684.433c37.211-20.8 254.202-142.084 315.43-176.306l-138.483-77.402v50.009h-0.284c0.027 0.302 0.061 0.602 0.061 0.913 0 3.713-2.048 7.146-5.37 9.002l-259.020 144.781 87.665 49.003zM169.312 528.932l67.714-37.848v-17.151l-67.714 37.848v17.151zM258.503 479.081l33.715-18.845v-17.151l-33.715 18.843v17.153zM313.693 448.234l79.953-44.69v-17.149l-79.953 44.69v17.149zM415.121 403.544l52.612 29.412v-17.34l-52.612-29.409v17.336zM404.383 421.55l-79.976 44.704 52.45 29.326 79.967-44.711-52.441-29.319zM302.93 478.257l-34.101 19.059 52.458 29.331 34.099-19.064-52.456-29.326zM247.353 509.321l-67.476 37.714 52.461 29.342 67.478-37.725-52.463-29.331zM147.836 531.69v-25.913c0-3.715 2.048-7.148 5.369-9.004l245.976-137.485c1.662-0.927 3.518-1.392 5.37-1.392s3.706 0.465 5.368 1.392l73.918 41.321c3.322 1.859 5.179 5.291 5.179 9.004v41.574c-0.113 3.589-2.122 6.882-5.348 8.686l-232.132 129.78 123.308 68.924 316.544-176.931-304.629-170.279-316.544 176.935 77.622 43.387zM264.957 5.239l-173.354 96.899v82.299l173.354-96.896v-82.303zM281.065 102.549l-194.83 108.9c-3.324 1.858-7.415 1.858-10.738 0-3.321-1.856-5.369-5.291-5.369-9.004v-26.558l-48.651 27.188v95.776l316.552-176.947v-95.746l-51.593 28.828v38.558c0 3.712-2.046 7.148-5.37 9.004zM23.022 321.996l21.779 100.251 141.324-78.994-21.053-100.663-142.051 79.405zM341.321 144.073l-156.627 87.552 21.053 100.663 157.453-88.010-21.879-100.205zM367.875 265.672l-318.421 177.984 6.247 28.749 318.449-178-6.275-28.733zM21.476 179.071l48.651-27.19v-37.737l-48.651 27.192v37.735zM286.434-6.764v37.744l51.593-28.826v-37.755l-51.593 28.837zM578.894 11.735c-20.906-35.053-56.232-54.798-77.127-43.112-20.906 11.686-20.906 51.171-0.004 86.23 10.738 18.004 25.225 32.305 40.8 40.259 13.955 7.132 26.861 8.143 36.329 2.853 9.473-5.298 15.020-16.623 15.615-31.89 0.668-17.034-4.874-36.334-15.613-54.34zM1009.457 254.911c-20.904-35.055-56.225-54.8-77.129-43.112-20.904 11.686-20.906 51.171-0.005 86.23 20.904 35.051 56.232 54.8 77.132 43.112 9.469-5.294 15.019-16.621 15.615-31.89 0.668-17.038-4.877-36.336-15.613-54.34zM1159.312 336.652c-10.738-18.006-25.226-32.305-40.798-40.263-13.957-7.132-26.861-8.145-36.33-2.851-9.473 5.296-15.019 16.621-15.619 31.891-0.665 17.038 4.879 36.334 15.613 54.338 20.904 35.051 56.236 54.806 77.132 43.114 20.904-11.686 20.904-51.177 0.002-86.23zM1186.054 426.155c-4.139 6.047-9.468 11.074-16.010 14.731-32.053 17.916-78.819-4.362-106.467-50.726-7.985-13.391-13.54-27.535-16.375-41.379l-10.143-5.666c-4.288 6.73-9.951 12.162-16.869 16.026-32.055 17.918-78.817-4.358-106.467-50.722-8.67-14.543-14.279-29.475-16.907-43.678l-291.562-162.962c-4.123 5.876-9.356 10.678-15.626 14.185-16.097 9-36.37 8.12-57.098-2.467-19.102-9.766-36.634-26.904-49.369-48.254-8.097-13.578-13.506-27.495-16.33-40.843l-107.333-59.988v162.412l36.14 165.498 306.704 171.437v-244.837c0-3.715 2.048-7.146 5.37-9.004 1.662-0.929 3.516-1.394 5.368-1.394s3.708 0.465 5.37 1.394l170.699 95.41c3.322 1.856 5.37 5.289 5.37 9.004v193.673c0 0.040 0.007 0.075 0.007 0.115v63.713l305.608 170.827v-308.97l-14.079-7.536z" />
<glyph unicode="&#xe90b;" glyph-name="fire_engine_icon" horiz-adv-x="1252" d="M803.806 897.824v62.176h-803.376v-63.311h69.121v-72.327h-69.551v-64.447h69.049v-73.462h-68.835v-681.196h101.64c31.803 97.172 77.859 137.506 154.788 136.437s122.126-41.808 151.135-136.306h324.547v754.661h70.838v66.183h-69.911v71.592h70.554zM586.633 895.954h71.987v-70.123h-71.987v70.123zM440.44 895.954h72.129v-68.921h-72.129v68.921zM294.176 893.216h72.058v-65.448h-72.058v65.448zM143.757 897.357c21.99 0 42.977 0.601 64.465-0.534 2.777-0.735 5.301-2.131 7.323-4.052s3.473-4.299 4.209-6.901c1.218-19.635 0.573-39.336 0.573-60.106h-76.355l-0.215 71.593zM513.142 481.292h-87.458c58.663-122.215-59.021-246.432-205.142-192.336v-80.145h-75.711c-0.788 7.214-2.149 13.824-2.22 20.036 0 60.109-0.573 120.212 0 180.318 0.86 86.084 63.319 143.586 155.934 143.919 70.84 0 141.68 0 214.884 0l-0.287-71.793zM658.836 688.99h-515.079v68.921h515.289l-0.21-68.921zM811.833 342.716h439.723v-336.794h-69.052c-7.162 47.485-25.355 91.961-74.274 114.603-27.176 12.919-57.242 19.649-87.745 19.632-75.924-2.401-121.338-47.883-141.392-134.036h-67.26v336.594zM1237.515 417.78h-426.183v266.001c68.545 0 136.090 3.072 202.49-1.068 22.198-1.662 43.628-8.36 62.418-19.511s34.367-26.417 45.38-44.468c40.687-64.113 76.14-131.164 115.894-200.953zM254.781 68.699c18.864 0.051 36.978-6.884 50.357-19.28 13.379-12.402 20.928-29.247 20.985-46.837 0.057-17.584-7.382-34.475-20.68-46.95s-31.367-19.513-50.231-19.564c-18.823 0.102-36.846 7.111-50.17 19.513-13.324 12.396-20.878 29.184-21.028 46.734-0.124 8.715 1.618 17.368 5.125 25.446 3.507 8.084 8.709 15.428 15.299 21.612 6.591 6.178 14.438 11.076 23.083 14.393s17.913 4.995 27.261 4.932zM1031.014-64c-14.074 0.080-27.807 4.045-39.464 11.395s-20.713 17.761-26.027 29.906c-5.319 12.151-6.656 25.492-3.84 38.349 2.81 12.857 9.648 24.65 19.644 33.883 9.995 9.239 22.699 15.502 36.517 18.011 13.813 2.503 28.109 1.138 41.091-3.925 12.982-5.069 24.058-13.608 31.841-24.542 7.777-10.934 11.907-23.774 11.867-36.892-0.393-17.545-8.084-34.258-21.453-46.609-13.363-12.351-31.357-19.371-50.176-19.575zM363.369 415.309c0.241-13.237-3.743-26.241-11.447-37.362s-18.778-19.86-31.819-25.099c-13.040-5.245-27.456-6.753-41.418-4.335-13.962 2.412-26.838 8.641-36.994 17.897-10.156 9.25-17.133 21.111-20.046 34.068s-1.628 26.431 3.69 38.707 14.429 22.802 26.176 30.239c11.748 7.438 25.601 11.452 39.8 11.534 18.862 0.108 37.008-6.725 50.5-19.016s21.238-29.048 21.558-46.632z" />
<glyph unicode="&#xe90c;" glyph-name="taxi" horiz-adv-x="1345" d="M694.627 148.119c-16.233 9.363-44.683-1.958-67.648-41.689-8.59-14.856-14.095-30.511-15.507-44.088-2.365-22.715 7.246-31.856 13.188-35.282 3.532-2.036 7.64-3.096 12.147-3.096 16.205 0.004 37.533 13.691 55.499 44.781 8.59 14.856 14.095 30.513 15.507 44.090 2.365 22.717-7.244 31.854-13.186 35.284zM684.55 115.25c-1.060-10.23-5.618-22.924-12.495-34.82-15.029-26.006-32.607-34.908-35.701-33.137-0.43 0.247-2.554 3.632-1.618 12.633 1.060 10.23 5.618 22.922 12.495 34.82 13.808 23.887 29.77 33.352 34.665 33.352 0.434 0 0.785-0.072 1.036-0.219 0.432-0.245 2.558-3.626 1.618-12.629zM1208.422 449.474c-5.937 3.425-18.671 7.174-37.181-6.228-11.061-8.007-21.881-20.6-30.469-35.457s-14.091-30.511-15.505-44.086c-2.363-22.717 7.25-31.854 13.19-35.28 2.743-1.584 6.929-3.231 12.467-3.231 6.457 0 14.75 2.245 24.715 9.461 11.063 8.009 21.883 20.6 30.469 35.457 8.59 14.856 14.091 30.513 15.507 44.086 2.363 22.715-7.25 31.856-13.192 35.278zM1198.349 416.611c-1.064-10.228-5.62-22.92-12.495-34.82-6.877-11.9-15.603-22.185-23.938-28.222-7.347-5.315-11.332-5.168-11.762-4.915-0.43 0.249-2.556 3.63-1.62 12.633 1.062 10.228 5.616 22.924 12.493 34.82 6.879 11.9 15.603 22.187 23.938 28.222 5.891 4.261 9.624 5.010 11.091 5.010 0.363 0 0.586-0.044 0.671-0.094 0.432-0.251 2.56-3.632 1.622-12.633zM1339.404 675.806l-376.049 216.867c-2.699 1.556-5.909 1.971-8.915 1.157l-59.906-16.264-6.688 3.881v30.757c0 4.173-2.231 8.031-5.847 10.116-0.080 0.047-0.165 0.076-0.243 0.12l0.006 0.015-47.961 26.205c-3.584 1.96-7.927 1.907-11.459-0.131l-25.152-14.506-42.024 24.397c-3.616 2.1-8.090 2.109-11.718 0.020l-407.301-234.594c-2.259-1.301-4.022-3.323-4.998-5.74l-73.654-181.995-253.73-181.059c-2.397-2.215-3.765-5.331-3.765-8.594v-169.41c0-4.174 2.231-8.031 5.847-10.116l397.744-229.366c1.809-1.044 3.829-1.566 5.847-1.566s4.038 0.522 5.847 1.566c0.243 0.139 139.541 81.051 139.541 81.051 4.564-23.062 16.179-41.775 34.653-52.433 10.144-5.849 21.52-8.76 33.643-8.76 14.557 0 30.192 4.202 46.054 12.567 27.309 14.4 52.407 39.737 70.674 71.345s27.684 65.988 26.516 96.81c-0.032 0.841-0.106 1.652-0.153 2.486l303.321 175.251c5.086-21.173 16.374-38.318 33.74-48.333 10.381-5.985 21.879-8.833 33.921-8.833 40.123 0 86.189 31.618 116.453 83.978 23.468 40.601 31.356 83.177 24.373 116.441l59.804 50.056c2.58 2.16 4.104 5.331 4.18 8.696l3.249 147.546c0.092 4.263-2.15 8.24-5.849 10.373zM955.88 870.008l351.246-202.563-87.369-35.956-63.89 93.144c-1.46 2.361-3.717 4.172-6.425 5.026l-226.483 131.414 32.921 8.936zM747.988 475.232l144.123 83.221v-114.361l-204.443-117.905 60.32 149.044zM915.496 571.96l156.907 90.606 23.209-101.111-180.112-103.872v114.377h-0.004zM1116.796 573.675l-23.209 101.123 48.783 28.17 56.3-82.073-81.874-47.22zM828.346 925.007l23.942-13.080-233.95-134.927-23.942 13.080 233.95 134.927zM864.459 891.972v-105.034l-234.277-135.114v105.034l234.277 135.114zM582.222 664.721v105.381l24.572-13.424v-105.382l-24.572 13.424zM749.271 934.82l24.576-14.266-209.163-120.632c-3.616-2.085-5.847-5.943-5.847-10.116v-132.012c0-4.271 2.333-8.2 6.082-10.248l47.969-26.19c1.747-0.954 3.674-1.446 5.604-1.446 2.016 0 4.038 0.524 5.847 1.566l257.662 148.603c3.616 2.085 5.847 5.943 5.847 10.116v74.23l234.472-136.051-383.829-221.642-374.672 216.074 385.452 222.013zM347.198 695.416l376.738-217.279-64.769-160.033-376.73 217.287 64.761 160.025zM269.432 515.913l375.677-216.68-236.301-168.275-374.446 217.53 235.070 167.426zM552.649 44.413l-131.52-76.868v35.095l136.726 78.999c-3.281-12.82-5.006-25.349-5.206-37.225zM23.388 327.839l374.356-217.476v-81.87l-374.356 217.471v81.874zM23.388 183.79v35.149l374.356-217.474v-33.551l-374.356 215.875zM719.595 53.013c-16.093-27.845-37.876-49.993-61.336-62.364-21.703-11.441-41.976-12.947-57.083-4.229-32.495 18.739-33.174 80.902-1.48 135.74 16.093 27.847 37.876 49.995 61.336 62.366 12.392 6.534 24.317 9.826 35.085 9.826 8.086 0 15.521-1.857 21.998-5.598 15.113-8.714 23.948-27.005 24.877-51.497 1.006-26.483-7.303-56.398-23.397-84.245zM1233.392 354.376c-31.696-54.84-85.934-85.333-118.425-66.596-32.495 18.741-33.174 80.906-1.48 135.744 31.7 54.842 85.946 85.333 118.427 66.592 32.495-18.739 33.172-80.902 1.478-135.74zM1269.736 482.679c-6.126 11.662-14.85 21.167-26.128 27.67-44.968 25.939-111.024-7.064-150.373-75.144-18.488-31.991-27.313-65.209-26.809-94.13l-304.259-175.795c-5.634 19.552-16.681 34.667-32.358 43.709-22.323 12.876-50.622 11.523-79.697-3.803-27.309-14.4-52.407-39.737-70.672-71.345-3.486-6.028-6.608-12.101-9.409-18.179l-148.9-86.034v81.412l249.354 177.57c0.747 0.532 1.401 1.159 1.994 1.843l548.155 316.127 100.842 41.498-2.741-124.386-48.999-41.014zM43.908 260.467l61.394-35.687v33.79l-61.394 35.687v-33.79zM315.794 133.636v-33.788l61.394-35.687v33.788l-61.394 35.687zM819.644 852.442l-27.564-15.899v-38.108l27.564 15.899v38.108zM792.080 798.435l-27.566-15.895v-38.108l27.566 15.899v38.105zM764.412 820.771l-27.562-15.899v-38.108l27.562 15.899v38.108zM709.285 712.76l27.566 15.898v38.106l-27.566-15.895v38.020l-27.564-15.895v-38.109l27.564 15.896v-38.021z" />
<glyph unicode="&#xe90d;" glyph-name="account" d="M512 960c-282.74 0-512-229.225-512-512s229.237-512 512-512c282.784 0 512 229.226 512 512s-229.216 512-512 512zM512 806.906c93.556 0 169.37-75.839 169.37-169.355 0-93.538-75.814-169.355-169.37-169.355-93.512 0-169.325 75.817-169.325 169.355 0 93.516 75.814 169.355 169.325 169.355zM511.887 69.864c-93.31 0-178.77 33.983-244.688 90.231-16.058 13.698-25.323 33.782-25.323 54.856 0 94.843 76.757 170.749 171.618 170.749h197.055c94.884 0 171.349-75.906 171.349-170.749 0-21.094-9.223-41.134-25.303-54.832-65.894-56.272-151.378-90.255-244.709-90.255z" />
<glyph unicode="&#xe90e;" glyph-name="arrow" d="M768 512c0 17.92-14.080 32-32 32h-448c-17.92 0-32-14.080-32-32 0-8.32 3.2-15.36 8.32-21.12l224-256c5.76-6.4 14.080-10.88 23.68-10.88s17.92 4.48 23.68 10.88l224 256c5.12 5.76 8.32 12.8 8.32 21.12z" />
<glyph unicode="&#xe90f;" glyph-name="arrow_next" horiz-adv-x="1252" d="M1224.761 507.733l-446.67 426.667c-16.080 16.213-38.414 25.6-63.427 25.6-49.134 0-89.334-38.4-89.334-85.333 0-23.893 9.827-45.227 25.907-60.587l293.905-280.747h-855.81c-49.133 0-89.333-38.4-89.333-85.333s40.2-85.333 89.333-85.333h856.704l-293.906-280.747c-16.080-15.36-25.906-36.693-25.906-60.587 0-46.933 40.199-85.333 89.333-85.333 25.013 0 47.346 9.387 63.427 24.747l446.664 426.667c16.077 15.36 25.907 36.693 25.907 60.587s-10.718 44.373-26.795 59.733v0z" />
<glyph unicode="&#xe910;" glyph-name="block" d="M512 960c-282.88 0-512-229.12-512-512s229.12-512 512-512c282.88 0 512 229.12 512 512s-229.12 512-512 512zM128.002 448c0 211.84 172.16 384 383.998 384 83.2 0 159.36-26.88 222.080-71.68l-534.398-534.4c-44.8 62.72-71.68 138.88-71.68 222.080zM289.919 135.68l534.401 534.399c44.8-62.72 71.68-138.88 71.68-222.079 0-212.48-171.52-384-384.001-384-83.2 0-159.36 26.88-222.080 71.68z" />
<glyph unicode="&#xe911;" glyph-name="card" horiz-adv-x="1365" d="M85.333 960h1194.667c46.933 0 85.333-38.424 85.333-85.386v-85.387h-1365.333v85.387c0 46.962 38.4 85.386 85.333 85.386zM85.333 20.745c-46.933 0-85.333 38.426-85.333 85.385v512.321h1365.333v-512.321c0-46.959-38.4-85.385-85.333-85.385h-1194.667zM469.35 276.9h426.667c23.893 0 42.667-18.785 42.667-42.693s-18.773-42.693-42.667-42.693h-426.667c-23.893 0-42.667 18.784-42.667 42.693s19.627 42.693 42.667 42.693zM298.667 276.9h-85.333c-23.040 0-42.667-18.785-42.667-42.693s18.773-42.693 42.667-42.693h85.333c23.893 0 42.667 18.784 42.667 42.693s-18.773 42.693-42.667 42.693z" />
<glyph unicode="&#xe912;" glyph-name="chair" horiz-adv-x="1252" d="M1238.744 17.015l-1167.275 934.993c-13.686 11.987-33.239 7.991-44.97-3.996l-19.552-25.972c-11.731-13.985-7.821-33.963 5.866-43.952l1169.231-934.989c11.73-11.986 31.283-7.993 43.014 5.99l19.553 23.973c11.73 13.989 7.822 33.968-5.865 43.952zM157.499 192.831h-62.568c-17.597 0-31.284-15.986-31.284-31.966v-191.795c0-17.983 13.687-31.966 31.284-31.966h62.568c15.642 0 31.284 13.983 31.284 31.966v191.795c0 15.98-15.642 31.966-31.284 31.966zM939.594 736.242c0 15.982-15.644 31.965-31.283 31.965h-62.566c-17.601 0-31.289-15.983-31.289-31.965v-255.724l125.138-99.891v355.615zM1189.865 928.035c0 15.983-15.644 31.965-31.289 31.965h-62.566c-17.596 0-31.283-15.983-31.283-31.965v-647.299l125.138-99.897v747.196zM814.455-30.93c0-17.983 13.687-31.966 31.289-31.966h62.566c15.639 0 31.283 13.983 31.283 31.966v45.949l-125.138 99.891v-145.84zM564.188-30.93c0-17.983 13.689-31.966 31.285-31.966h62.566c15.639 0 31.283 13.983 31.283 31.966v245.737l-125.135 99.891v-345.628zM407.769 384.62h-62.568c-17.597 0-31.284-15.98-31.284-31.966v-383.585c0-17.983 13.687-31.966 31.284-31.966h62.568c15.642 0 31.284 13.983 31.284 31.966v383.585c0 15.986-15.642 31.966-31.284 31.966z" />
<glyph unicode="&#xe913;" glyph-name="close" d="M656.384 448l336.896 336.896c19.456 18.432 30.72 44.032 30.72 72.704 0 56.32-46.080 102.4-102.4 102.4-28.672 0-54.272-11.264-72.704-29.696l-336.896-337.92-336.896 337.92c-18.432 18.432-44.032 29.696-72.704 29.696-56.32 0-102.4-46.080-102.4-102.4 0-28.672 11.264-54.272 29.696-72.704l337.92-336.896-336.896-336.896c-19.456-18.432-30.72-44.032-30.72-72.704 0-56.32 46.080-102.4 102.4-102.4 28.672 0 54.272 11.264 72.704 29.696l336.896 337.92 336.896-336.896c18.432-19.456 44.032-30.72 72.704-30.72 56.32 0 102.4 46.080 102.4 102.4 0 28.672-11.264 54.272-29.696 72.704l-337.92 336.896z" />
<glyph unicode="&#xe914;" glyph-name="eye" horiz-adv-x="1219" d="M609.524 173.714c-144.762 0-262.857 110.475-272.381 253.333l-200 154.287c-26.667-34.286-51.429-68.572-70.476-106.667-3.81-7.621-5.714-17.144-5.714-26.667 0-11.43 1.905-20.953 5.714-28.57 102.857-201.908 308.571-337.145 542.857-337.145 49.523 0 99.045 7.617 146.666 19.046l-97.143 76.19c-17.14-3.808-34.284-3.808-49.523-3.808zM1205.716 61.333l-209.525 163.811c62.859 53.331 116.19 119.998 154.288 194.287 3.808 7.617 5.71 17.14 5.71 26.663 0 11.43-1.902 20.953-5.71 28.574-102.858 201.905-308.575 339.047-540.955 339.047-102.858-1.905-198.095-26.667-281.905-72.381l-241.905 186.667c-5.714 3.81-11.428 5.714-19.047 5.714-9.524 0-19.048-3.81-22.857-11.429l-38.095-47.619c-3.81-5.714-5.714-11.429-5.714-19.047 0-9.524 3.81-17.143 11.429-22.858l1119.999-866.666c5.715-3.808 11.43-5.715 19.051-5.715 9.523 0 19.046 3.808 24.761 11.43l36.191 47.616c3.808 5.715 5.71 11.43 5.71 19.051 0 9.523-3.808 17.14-11.425 22.855zM857.142 331.81l-76.19 59.046c7.621 17.145 9.523 36.191 11.43 57.144 0 0 0 0 0 1.907 0 99.046-81.905 180.951-180.951 180.951-17.145 0-34.289-3.809-51.429-7.619 11.43-15.238 17.14-34.286 19.046-53.333-1.907-7.619-1.907-13.333-3.808-19.047l-140.954 106.667c47.619 40 108.571 62.857 175.238 64.762 150.474 0 274.286-123.809 274.286-274.286 0-41.906-11.43-79.999-26.668-116.19z" />
<glyph unicode="&#xe915;" glyph-name="taxi_icon" horiz-adv-x="1509" d="M312.421-64c48.833 0 88.421 38.206 88.421 85.332 0 47.131-39.587 85.337-88.421 85.337s-88.421-38.206-88.421-85.337c0-47.126 39.587-85.332 88.421-85.332zM1196.63-64c48.834 0 88.425 38.206 88.425 85.332 0 47.131-39.591 85.337-88.425 85.337s-88.42-38.206-88.42-85.337c0-47.126 39.586-85.332 88.42-85.332zM621.897 960h265.259v-85.333h-265.259v85.333zM798.736 533.333h509.974l-176.839 256h-333.134v-256zM710.316 789.333h-333.133l-176.842-256h509.975v256zM0 21.332h135.579c0 94.127 79.311 170.668 176.843 170.668s176.842-76.541 176.842-170.668h530.528c0 94.127 79.311 170.668 176.839 170.668 97.533 0 176.845-76.541 176.845-170.668h135.578v426.668h-1509.053v-426.668zM533.474 362.668h88.423v-85.337h88.42v85.337h88.42v-85.337h88.42v85.337h88.425v-85.337h-88.425v-85.332h-88.42v85.332h-88.42v-85.332h-88.42v85.332h-88.423v85.337z" />
<glyph unicode="&#xe916;" glyph-name="truck" horiz-adv-x="1123" d="M1118.21 744.683l-371.971 214.012c-3.022 1.739-6.753 1.742-9.779 0l-519.107-298.642c-3.027-1.741-4.89-4.958-4.89-8.44v-150.422l-103.56-58.693c-1.403-0.794-3.457-3.181-3.457-3.181l-103.958-165.827c-0.973-1.549-1.487-3.338-1.487-5.161v-158.163c0-3.48 1.863-6.696 4.887-8.435l282.876-162.852c1.513-0.872 3.202-1.308 4.892-1.308 1.686 0 3.376 0.436 4.889 1.305 0.588 0.339 61.975 35.454 61.975 35.454 3.876-14.371 11.85-25.491 23.319-32.091 7.234-4.16 15.335-6.236 23.95-6.236 10.27 0 21.271 2.943 32.41 8.805 19.020 10.002 36.484 27.575 49.175 49.482 12.002 20.713 18.496 43.167 18.48 63.655 0 0 48.083 27.283 48.511 27.579 0 0 33.503-19.451 33.98-19.727 1.513-0.87 3.201-1.306 4.889-1.306s3.378 0.436 4.89 1.306l233.718 134.445c4.281-12.323 11.826-21.965 21.973-27.807 7.236-4.164 15.339-6.238 23.96-6.238 10.266 0 21.268 2.943 32.408 8.801 19.018 10.002 36.478 27.574 49.162 49.477 11.214 19.335 17.636 40.298 18.399 59.693l139.462 80.222c3.026 1.742 4.89 4.958 4.89 8.44v363.419c0.003 3.477-1.86 6.694-4.887 8.436zM741.348 939.003l352.413-202.757-499.524-287.344-352.436 202.714 499.547 287.388zM232.022 634.736l352.436-202.714v-340.739l-24.89 14.321v252.513c0 3.482-1.866 6.699-4.89 8.438l-282.901 162.709c-3.008 1.729-6.709 1.739-9.725 0.031l-30.028-17.018-0.002 122.459zM266.849 509.595l263.269-151.415-133.468-75.654-263.245 151.436 133.444 75.632zM356.839-4.767l-54.404-30.885v23.078l57.204 32.474c-1.888-8.379-2.841-16.673-2.799-24.667zM116.97 420.915l265.981-153.012-18.039-28.776-265.932 153.093 17.99 28.695zM354.543 222.586l-66.976-106.84-265.932 153.1 66.979 106.838 265.929-153.098zM282.875 95.941v-14.417l-263.316 151.592v14.417l263.316-151.592zM19.559 210.609l47.092-27.111v-56.847l-47.092 27.111v56.847zM86.211 172.237l129.356-74.47v-56.847l-129.356 74.47v56.847zM235.127 86.505l47.748-27.488v-56.847l-47.748 27.488v56.847zM403.591 264.040l65.453 37.102v-87.388l-150.545-85.446 85.091 135.733zM19.559 115.788v15.466l263.316-151.592v-15.466l-263.316 151.592zM471.441 4.028c-10.876-18.767-25.567-33.68-41.37-41.991-14.326-7.538-27.63-8.578-37.45-2.927-9.822 5.652-15.57 17.647-16.184 33.782-0.677 17.791 4.94 37.926 15.814 56.69 21.265 36.694 57.354 57.265 78.82 44.917 9.822-5.652 15.57-17.647 16.183-33.78 0.676-17.79-4.94-37.924-15.813-56.692zM540.008 99.193l-35.733-20.288c-3.838 14.559-11.852 25.818-23.426 32.476-31.704 18.235-78.057-4.628-105.538-52.052-2.193-3.785-4.19-7.632-6.010-11.512l-66.866-37.961v86.901l181.23 102.861c3.054 1.731 4.938 4.965 4.938 8.468v104.139l51.403 29.134v-242.166h0.002zM943.41 234.214c-10.868-18.764-25.557-33.676-41.356-41.986-14.329-7.535-27.635-8.574-37.454-2.923-8.298 4.776-12.38 13.17-14.376 20.926l21.146 12.164c2.172-4.497 5.274-7.014 7.589-8.337 2.966-1.703 6.113-2.482 9.345-2.482 13.89 0 29.425 14.361 39.455 31.653 2.981 5.14 5.447 10.529 7.298 15.801l22.708 13.063c-2.306-12.524-7.189-25.521-14.356-37.878zM888.583 232.294l11.908 6.851c-5.127-5.246-9.574-7.706-11.631-8.009-0.094 0.271-0.19 0.68-0.277 1.158zM604.016 91.108v340.914l499.524 287.341v-340.914l-499.524-287.341zM456.717 69.736c-15.707 9.024-36.441-7.83-48.8-29.164-6.010-10.37-9.868-21.331-10.861-30.855-1.724-16.524 5.475-23.279 9.916-25.835 2.081-1.196 5.259-2.453 9.436-2.453 4.75 0 10.795 1.624 17.979 6.813 7.782 5.62 15.378 14.427 21.392 24.801 12.356 21.331 16.647 47.654 0.938 56.693zM438.835 22.787c-8.75-15.097-18.625-21.377-21.975-21.838-1.275 3.12-0.756 14.782 7.992 29.881 8.749 15.096 18.624 21.377 21.973 21.839 1.275-3.125 0.758-14.787-7.991-29.883z" />
<glyph unicode="&#xe917;" glyph-name="truck_icon" horiz-adv-x="1347" d="M791.606 335.015h-791.606v624.985h791.606v-624.985zM791.913 249.225v-230.621c-8.785-0.771-16.492-1.924-24.199-1.924-100.578 0-201.162 0-301.738-0.463-19.962 0-29.826 3.309-33.603 26.371-6.218 37.123-25.417 70.855-54.192 95.205-28.775 24.355-65.267 37.759-103.005 37.829-37.737 0.075-74.281-13.183-103.152-37.425-28.87-24.236-48.202-57.894-54.566-94.995-3.776-21.908-12.177-28.289-33.295-26.985-26.975 1.617-53.95 0.388-83.623 0.388v232.62h791.373zM876.921 414.041v313.723c78.616-3.921 155.917-3.229 231.834-12.915 51.944-6.611 90.328-43.972 114.99-89.712 35.145-65.189 66.824-132.146 100.196-198.412 1.423-4.122 2.452-8.368 3.083-12.685h-450.102zM948.908 18.912c-73.529-8.305-73.529-8.305-73.529 61.499v247.684h471.989v-309.34h-73.065c-5.627 50.278-22.194 97.862-67.358 124.227-29.707 18.136-63.429 28.699-98.191 30.752-85.553 1.536-139.194-53.738-159.846-154.823zM351.139 14.756c0.326-10.224-1.412-20.405-5.11-29.944-3.698-9.545-9.28-18.243-16.415-25.589s-15.678-13.188-25.121-17.176c-9.443-3.994-19.593-6.047-29.847-6.047s-20.405 2.053-29.848 6.047c-9.443 3.988-17.985 9.83-25.12 17.176s-12.718 16.044-16.415 25.589c-3.698 9.539-5.436 19.72-5.11 29.944 0.631 19.817 8.966 38.61 23.243 52.407s33.374 21.509 53.251 21.509c19.877 0 38.974-7.712 53.251-21.509s22.612-32.59 23.243-52.407zM1112.608-62.114c-20.329 0.35-39.726 8.564-54.105 22.905s-22.614 33.69-22.97 53.965c-0.124 10.078 1.768 20.081 5.557 29.421 3.794 9.34 9.41 17.839 16.524 24.991 7.119 7.157 15.592 12.827 24.926 16.686 9.335 3.853 19.348 5.821 29.448 5.778 20.351-0.075 39.866-8.073 54.391-22.285 14.525-14.217 22.916-33.528 23.374-53.819-0.625-20.275-8.936-39.559-23.25-53.97-14.314-14.406-33.576-22.868-53.895-23.671z" />
<glyph unicode="&#xe918;" glyph-name="wagon" horiz-adv-x="1183" d="M1182.897 825.626c0 3.629-1.9 6.987-4.988 8.804l-211.076 124.208c-3.084 1.817-6.884 1.815-9.97 0.005l-796.496-468.016c-3.087-1.817-4.99-5.171-4.992-8.806v-66.802l-126.973-73.747c-2.633-1.529-4.401-4.181-4.887-7.172l-23.028-141.361c-0.307-0.983-0.486-2.014-0.486-3.074v-119.314c0-3.632 1.903-6.99 4.987-8.803l211.061-124.185c1.545-0.907 3.268-1.363 4.988-1.363 1.721 0 3.445 0.456 4.988 1.363 0.019 0.012 92.457 53.53 92.457 53.53 1.711-12.925 7.599-23.608 17.579-29.481 5.168-3.040 10.877-4.486 16.829-4.486 18.935 0 40.284 14.629 54.117 39.043 8.254 14.573 12.505 30.505 11.972 44.86-0.109 2.971-0.484 5.771-0.985 8.478l169.534 99.752c1.984-12.182 7.821-22.191 17.374-27.812 5.168-3.040 10.877-4.486 16.829-4.486 18.933 0.004 40.284 14.629 54.117 39.043 5.648 9.968 9.368 20.567 11.017 30.867 2.918-4.818 6.758-8.845 11.605-11.698 5.166-3.040 10.877-4.486 16.829-4.486 18.933 0 40.284 14.629 54.115 39.043 8.257 14.571 12.509 30.505 11.976 44.86-0.108 2.857-0.463 5.551-0.929 8.164l10.92 6.421c3.088 1.817 4.988 5.173 4.988 8.806v66.523l61.505 36.138c0 0 57.303-33.531 57.496-33.642 1.536-0.897 3.249-1.344 4.959-1.344 1.743 0 3.485 0.464 5.042 1.395l19.092 11.403c2.032-12.514 8.003-22.226 17.306-27.703 5.115-3.012 10.807-4.507 16.834-4.507 7.009 0 14.465 2.027 21.975 6.068 12.466 6.709 23.877 18.428 32.131 32.999 5.793 10.224 9.446 20.747 11.066 30.759 2.948-4.823 6.792-8.789 11.557-11.591 5.115-3.012 10.808-4.509 16.834-4.509 7.011 0 14.467 2.029 21.977 6.068 12.465 6.711 23.879 18.428 32.132 32.999 10.353 18.278 13.914 37.517 11.091 53.054l10.872 6.395c3.086 1.817 4.988 5.171 4.988 8.806v66.892l24.677 14.498c3.088 1.818 4.991 5.175 4.991 8.81l0.005 248.334zM961.843 938.097l191.123-112.464-776.556-456.266-191.101 112.446 776.535 456.284zM175.323 464.211l191.11-112.451v-49.297l-191.11 112.469v49.279zM165.277 397.365l191.043-112.428-111.888-64.969-191.045 112.41 111.889 64.987zM158.13-5.088l-85.25 50.164v38.001l85.25-50.162v-38.003zM173.092 47.586l-105.199 61.899c-3.087 1.817-6.89 1.817-9.974 0-3.087-1.815-4.987-5.173-4.987-8.805v-0.418l-32.983 20.215v51.58l191.114-112.458-0.004-53.698-32.98 20.22v12.662c0 3.63-1.903 6.99-4.987 8.803zM229.618 178.383l-192.78 113.434 3.985 24.481 192.644-113.352-3.849-24.564zM226.249 156.889l-11.871-75.765-193.322 113.758 12.293 75.513 192.9-113.505zM253.495 201.83l26.963 15.655v-105.378l-45.19-26.594 18.227 116.318zM19.949 96.752l32.983-20.215v-19.724l-32.983 19.407v20.533zM178.079-16.827v19.218l32.98-20.217v-18.406l-32.98 19.405zM329.952 41.31c-0.002 0-0.002 0 0 0-4.935-8.713-8.279-17.634-10.176-26.281l-88.763-51.389v95.896l64.41 37.9c3.086 1.815 4.988 5.171 4.988 8.805v122.829l66.023 38.338v-190.999c-1.446-0.63-2.894-1.321-4.348-2.101-12.465-6.705-23.879-18.427-32.132-32.998zM389.727 6.135c-13.229-23.345-33.647-33.031-43.693-27.118-10.049 5.914-12.032 28.778 1.193 52.127 6.31 11.133 15.12 20.314 24.172 25.183 4.451 2.394 12.904 5.823 19.523 1.933 6.621-3.895 7.927-13.075 8.12-18.199 0.385-10.427-3.010-22.793-9.315-33.926zM400.896 75.866c-4.453 2.62-9.348 4.077-14.516 4.414v23.135l106.007 62.284v-49.14l-82.541-48.568c-2.521 3.144-5.477 5.833-8.949 7.874zM658.564 165.973c-13.229-23.347-33.644-33.028-43.693-27.118-10.049 5.914-12.032 28.778 1.195 52.125 6.306 11.135 15.116 20.314 24.166 25.185 2.998 1.614 7.809 3.695 12.653 3.695 2.348 0 4.707-0.491 6.87-1.762 6.621-3.896 7.929-13.075 8.12-18.199 0.39-10.429-3.003-22.795-9.311-33.926zM752.132 219.696c-13.229-23.345-33.644-33.026-43.693-27.117-10.051 5.914-12.032 28.776 1.193 52.125 6.306 11.135 15.116 20.314 24.168 25.183 2.998 1.615 7.807 3.695 12.653 3.695 2.348 0 4.707-0.489 6.87-1.76 6.621-3.896 7.929-13.075 8.118-18.199 0.392-10.429-3.001-22.793-9.31-33.928zM776.413 283.653l-3.969-2.336c-2.558 3.249-5.581 6.015-9.142 8.113-11.061 6.513-24.844 5.957-38.813-1.559-12.465-6.709-23.875-18.427-32.132-32.998-5.016-8.854-8.384-17.925-10.265-26.707l-2.496-1.469c-2.691 3.658-5.969 6.718-9.86 9.008-11.061 6.511-24.843 5.957-38.811-1.557-12.466-6.711-23.877-18.428-32.131-32.999-5.302-9.357-8.775-18.962-10.577-28.202l-75.88-44.646v49.126l264.075 155.161 0.002-48.933zM877.829 392.173l32.517 19.105v-38.239l-32.517 19.135zM1015.43 375.277c-6.306-11.135-15.116-20.314-24.168-25.183-4.451-2.394-12.901-5.826-19.525-1.935-6.621 3.896-7.929 13.077-8.118 18.201-0.39 10.427 3.007 22.791 9.313 33.926 13.229 23.345 33.64 33.029 43.693 27.117 10.051-5.913 12.030-28.776-1.195-52.125zM1108.999 429.003c-6.308-11.133-15.118-20.314-24.17-25.183-4.451-2.392-12.902-5.824-19.525-1.933-6.621 3.895-7.927 13.075-8.12 18.199-0.387 10.427 3.008 22.793 9.315 33.926 13.227 23.345 33.64 33.035 43.691 27.118 10.049-5.916 12.032-28.78-1.192-52.127zM1133.278 492.961l-3.976-2.339c-2.534 3.229-5.549 6.003-9.135 8.116-21.605 12.712-52.764-2.473-70.942-34.56-4.885-8.626-8.328-17.726-10.247-26.696l-2.511-1.476c-2.662 3.632-5.941 6.697-9.864 9.004-21.605 12.713-52.764-2.472-70.942-34.558-5.175-9.131-8.773-18.797-10.609-28.277l-14.754-8.812v49.636l202.983 119.264v-49.302h-0.004zM386.38 126.886v224.872l776.568 456.273v-224.867l-776.568-456.279z" />
<glyph unicode="&#xe919;" glyph-name="wagon_icon" horiz-adv-x="1252" d="M518.819 79.138v440.922h213.056v-218.032h519.68v-289.724h-177.67c-28.080 103.037-75.008 146.33-156.82 145.328-76.8-0.933-125.656-48.23-149.367-146.688h-358.848c-39.044-93.025-89.693-99.322-152.594-19.61-3.653-5.865-7.164-11.019-10.173-16.316-15.116-25.327-37.11-40.567-66.769-38.064-14.687 0.592-28.778 5.962-40.131 15.286s-19.348 22.096-22.769 36.375c-5.087 18.893-14.329 22.756-31.522 21.97-27.725-1.217-55.593 0-84.894 0v68.551h518.819zM518.604 601.133c0 65.688 0 129.873 0 194.13 0 61.967-12.895 80.572-72.070 101.752v62.826c72.5 3.435 124.938-48.729 143.279-144.471 30.805 0 62.401-0.93 93.85 0 19.843 0.787 36.682-2.075 48.788-19.606 32.381-46.726 76.726-61.538 132.818-55.17 32.552 3.101 65.382 1.389 97.434-5.080 32.842-7.017 62.902-23.524 86.426-47.468 23.529-23.944 39.487-54.268 45.892-87.2l-576.416 0.286zM1101.682 379.523h-288.421v139.894h288.21l0.21-139.894zM849.795 8.585c0.432 38.423 34.606 72.124 72.141 71.555 18.364-1.001 35.692-8.795 48.606-21.868s20.491-30.481 21.248-48.833c0-37.996-33.53-72.698-70.713-72.841-18.779 0.802-36.562 8.67-49.783 22.016-13.221 13.352-20.901 31.198-21.498 49.971z" />
<glyph unicode="&#xe91a;" glyph-name="eye_active" horiz-adv-x="1446" d="M722.824 664.301c-108.755 0-197.133-88.38-197.133-197.134s88.378-197.133 197.133-197.133c108.755 0 197.132 88.38 197.132 197.133s-88.383 197.134-197.132 197.134zM722.824 960c-328.556 0-609.142-204.36-722.824-492.834 113.681-288.472 394.268-492.832 722.824-492.832 328.885 0 609.147 204.36 722.83 492.832-113.682 288.474-393.945 492.834-722.83 492.834zM722.824 138.613c-181.362 0-328.556 147.191-328.556 328.555s147.194 328.554 328.556 328.554 328.559-147.194 328.559-328.557c0-181.361-147.197-328.552-328.559-328.552z" />
<glyph unicode="&#xe91b;" glyph-name="green-car" horiz-adv-x="3136" d="M1155.238 553.96h-33.978l-231.475 289.669c-23.36 30.040-70.080 53.642-106.176 53.642h-420.475c-55.213 0-106.18-34.331-127.416-87.974l-99.809-255.338c-76.45 0-135.91-62.225-135.91-137.325v-240.316c0-19.315 14.865-34.336 33.978-34.336h101.933c0-115.866 89.191-205.984 203.865-205.984 112.55 0 203.865 90.118 203.865 205.984h271.822c0-115.866 89.19-205.984 203.866-205.984 112.55 0 203.866 90.118 203.866 205.984h101.933c16.986 0 33.978 15.021 33.978 34.336v171.654c0 113.722-91.315 205.987-203.866 205.987zM611.596 828.609h172.014c21.235 0 40.346-10.728 53.088-27.894l197.491-246.755h-422.593v274.649zM299.427 783.549c10.618 27.894 36.101 45.060 63.708 45.060h180.506v-274.649h-335.528l91.315 229.589zM339.775 4.659c-76.449 0-135.91 60.083-135.91 137.325 0 75.104 59.461 137.325 135.91 137.325 74.326 0 135.91-62.221 135.91-137.325 0-77.242-61.584-137.325-135.91-137.325zM1019.328 4.659c-76.454 0-135.91 60.083-135.91 137.325 0 75.104 59.456 137.325 135.91 137.325 74.323 0 135.91-62.221 135.91-137.325 0-77.242-61.587-137.325-135.91-137.325zM1291.149 210.65h-80.698c-29.734 79.392-104.058 137.324-191.123 137.324-89.19 0-163.52-57.932-193.248-137.324h-295.181c-29.73 79.392-104.056 137.324-191.123 137.324-89.191 0-163.517-57.932-193.247-137.324h-78.573v205.986c0 36.477 29.73 68.662 67.955 68.662h1019.328c74.323 0 135.91-62.225 135.91-137.324v-137.324zM1804.582 50.438c0 36.474-31.853 68.659-67.955 68.659-38.221 0-67.955-32.186-67.955-68.659 0-38.624 29.734-68.666 67.955-68.666 36.102 0 67.955 30.042 67.955 68.666zM1991.462 119.098c-38.227 0-67.955-32.186-67.955-68.659 0-38.624 29.728-68.666 67.955-68.666 36.102 0 67.955 30.042 67.955 68.666 0 36.474-31.853 68.659-67.955 68.659zM1481.798 119.098c-38.227 0-67.955-32.186-67.955-68.659 0-38.624 29.728-68.666 67.955-68.666 36.102 0 67.955 30.042 67.955 68.666 0 36.474-31.853 68.659-67.955 68.659zM3040.038 765.955c-45.984-17.999-99.968-33.998-153.946-43.997v-145.992c53.978 10 101.965 27.999 153.946 47.997v141.992zM3040.038 341.978v141.992c-33.99-21.999-93.965-43.997-153.946-51.997v-143.992c59.981 8 115.955 29.997 153.946 53.997zM2272.32 585.965c31.987 19.999 91.968 41.997 151.942 49.997v145.992c-59.974-6-115.955-29.999-151.942-53.997v-141.992zM2272.32 319.981c45.984 13.997 99.962 25.997 151.942 31.997v141.992c-51.981-3.999-103.962-15.999-151.942-31.998v-141.99zM2732.147 445.972c-49.978 13.999-99.962 31.998-153.939 43.997v-139.992c55.981-8 103.962-27.999 153.939-41.997v137.992c53.984-15.999 99.968-19.999 153.946-13.999v143.992c-49.984-7.999-97.965-5.999-153.946 6v-135.992zM3066.029 883.948c-71.974-33.998-171.942-73.996-265.907-73.996-113.952 0-203.923 69.996-343.872 69.996-55.974 0-107.955-11.999-153.939-29.999 7.994 59.997-39.987 111.994-97.965 109.994-49.984-2-89.965-41.998-91.968-91.995-3.994-43.998 23.994-81.996 63.981-95.995v-811.955c0-14.003 9.997-24 23.987-24h15.994c12 0 23.994 9.997 23.994 24v241.984c61.978 29.997 143.949 57.997 269.901 57.997 113.958 0 203.923-67.994 343.872-67.994 101.958 0 183.93 33.997 259.904 85.997 13.99 8 21.99 21.997 21.99 37.997v523.97c0 35.998-37.984 57.997-69.971 43.997zM2208.346 823.951c-21.99 0-39.987 17.999-39.987 39.998s17.997 39.998 39.987 39.998c21.99 0 39.981-17.999 39.981-39.998s-17.99-39.998-39.981-39.998zM3072.026 323.979c-47.987-31.998-129.952-67.998-217.92-67.998-127.955 0-215.923 67.998-343.872 67.998-91.968 0-203.923-19.998-269.901-51.998v473.975c45.984 33.998 127.955 69.996 215.917 69.996 127.955 0 215.923-69.996 343.872-69.996 91.968 0 203.93 37.998 271.904 69.996v-491.973zM2732.147 719.957c-55.974 9.999-103.962 27.999-153.939 41.998v-135.993c49.978-11.999 99.962-31.998 153.939-43.997v137.992zM2424.262 635.962v-141.992c69.978 8 113.958 4 153.946-3.999v135.992c-59.981 15.999-101.965 17.999-153.946 9.999z" />
<glyph unicode="&#xe91c;" glyph-name="phone" horiz-adv-x="626" d="M563.2 960c34.418 0 62.578-27.252 62.578-60.559v-847.825c0-33.308-28.16-60.564-62.578-60.564h-500.622c-34.418 0-62.578 27.255-62.578 60.564v847.825c0 33.308 28.16 60.559 62.578 60.559h500.622zM312.889 51.632c34.418 0 62.578 27.255 62.578 60.564 0 33.303-28.16 60.558-62.578 60.558s-62.578-27.255-62.578-60.558c0-33.308 28.16-60.564 62.578-60.564zM125.156 233.307h375.467v545.035h-375.467v-545.035z" />
<glyph unicode="&#xe91d;" glyph-name="link" d="M609.404 183.86c98.245 98.245 98.245 261.334 0 361.544-25.544 23.579-53.052 41.264-82.527 55.018-11.789 3.929-27.508-1.965-31.439-15.719-1.964-9.825-3.929-19.65-5.894-29.473 0-9.825 5.894-19.65 15.719-23.581 19.65-7.858 37.333-21.614 53.052-37.333 72.702-70.737 72.702-188.632 1.965-259.368l-157.193-157.193c-72.702-72.7-188.632-72.7-261.333 0-72.702 72.702-72.702 188.632 0 261.334 0 0 115.931 115.929 147.369 147.368 5.894 5.896 7.858 13.754 7.858 19.65-1.964 9.823-1.964 19.648-1.964 29.473-1.965 19.65-25.544 29.473-41.264 15.719-1.965-1.965-3.931-3.931-5.894-5.894l-155.229-157.193c-100.211-98.247-100.211-261.334 0-359.58 98.246-100.21 261.333-100.21 359.579 0l157.193 155.229zM430.597 366.597c25.543-23.581 53.052-41.264 82.525-55.019 11.79-3.929 27.51 1.965 31.439 15.719 1.965 9.825 3.929 19.65 5.894 29.475 0 9.825-5.894 19.648-15.719 23.579-19.648 7.86-37.333 21.614-53.052 37.333-72.702 70.737-72.702 188.632-1.965 259.368l157.193 157.193c72.702 72.702 188.632 72.702 261.334 0s72.702-188.632 0-261.334c0 0-115.929-115.929-147.368-147.368-5.894-5.894-7.86-13.754-7.86-19.65 1.965-9.823 1.965-19.648 1.965-29.473 1.964-19.648 25.543-29.473 41.262-15.719 1.965 1.965 3.931 3.931 5.896 5.896l155.228 157.193c100.21 98.245 100.21 261.332 0 359.578-98.247 100.21-261.334 100.21-359.578 0l-157.193-155.227c-98.247-98.247-98.247-261.334 0-361.544z" />
<glyph unicode="&#xe91e;" glyph-name="list_fenix" d="M405.333 874.667h-266.667c-29.333 0-53.333-24-53.333-53.333v-266.667c0-29.333 24-53.333 53.333-53.333h266.667c29.333 0 53.333 24 53.333 53.333v266.667c0 29.333-24 53.333-53.333 53.333zM672 128c0 29.333-24 53.333-53.333 53.333s-53.333-24-53.333-53.333v-53.333c0-29.333 24-53.333 53.333-53.333h53.333c29.333 0 53.333 24 53.333 53.333s-24 53.333-53.333 53.333zM138.667 394.667h266.667c29.333 0 53.333-24 53.333-53.333v-266.667c0-29.333-24-53.333-53.333-53.333h-266.667c-29.333 0-53.333 24-53.333 53.333v266.667c0 29.333 24 53.333 53.333 53.333zM885.333 181.333c-29.333 0-53.333-24-53.333-53.333-29.333 0-53.333-24-53.333-53.333s24-53.333 53.333-53.333h53.333c29.333 0 53.333 24 53.333 53.333v53.333c0 29.333-24 53.333-53.333 53.333zM618.667 394.667h53.333c29.333 0 53.333-24 53.333-53.333s-24-53.333-53.333-53.333c0-29.333-24-53.333-53.333-53.333s-53.333 24-53.333 53.333v53.333c0 29.333 24 53.333 53.333 53.333zM885.333 874.667h-266.667c-29.333 0-53.333-24-53.333-53.333v-266.667c0-29.333 24-53.333 53.333-53.333h266.667c29.333 0 53.333 24 53.333 53.333v266.667c0 29.333-24 53.333-53.333 53.333zM832 394.667h53.333c29.333 0 53.333-24 53.333-53.333v-53.333c0-29.333-24-53.333-53.333-53.333s-53.333 24-53.333 53.333c-29.333 0-53.333 24-53.333 53.333s24 53.333 53.333 53.333z" />
<glyph unicode="&#xe91f;" glyph-name="key" d="M384 640c0 176.64 143.36 320 320 320s320-143.36 320-320c0-176.64-143.36-320-320-320-65.28 0-125.44 19.84-176.64 53.12l-117.12-117.12 83.2-82.56c11.52-11.52 18.56-27.52 18.56-45.44s-7.040-33.92-18.56-45.44l-128-128c-11.52-11.52-27.52-18.56-45.44-18.56s-33.92 7.040-45.44 19.2l-82.56 82.56-82.56-83.2c-11.52-11.52-27.52-18.56-45.44-18.56-35.2 0-64 28.8-64 64 0 17.92 7.040 33.92 18.56 45.44l418.56 418.56c-33.28 50.56-53.12 110.72-53.12 176zM661.76 453.12c13.44-3.2 27.52-5.12 42.24-5.12 106.24 0 192 85.76 192 192s-85.76 192-192 192c-106.24 0-192-85.76-192-192 0-14.72 1.92-28.8 5.12-42.88 0-0.32 0.159-0.64 0.323-0.96 0.159-0.32 0.317-0.64 0.317-0.96 3.2-12.8 7.68-25.6 13.44-37.76 19.2-39.68 50.56-71.040 90.24-90.24 12.16-5.76 24.96-10.24 38.4-13.44 0.317 0 0.64-0.16 0.957-0.32 0.323-0.16 0.645-0.32 0.963-0.32z" />
<glyph unicode="&#xe920;" glyph-name="manage" d="M680 874.667h-368c-48.783-0.052-95.551-17.769-130.045-49.263s-53.898-74.196-53.955-118.737v-560c0.057-44.54 19.461-87.241 53.955-118.737 34.494-31.492 81.263-49.212 130.045-49.263h368c48.781 0.051 95.552 17.771 130.044 49.263 34.496 31.497 53.901 74.197 53.956 118.737v560c-0.055 44.541-19.46 87.242-53.956 118.737-34.492 31.495-81.263 49.211-130.044 49.263zM741.333 146.667c-0.017-14.848-6.485-29.082-17.984-39.578-11.499-10.5-27.089-16.405-43.349-16.422h-368c-16.261 0.017-31.851 5.922-43.349 16.422-11.498 10.496-17.966 24.73-17.984 39.578v560c0.018 14.847 6.486 29.081 17.984 39.58s27.088 16.404 43.349 16.42h368c16.26-0.017 31.851-5.922 43.349-16.42s17.967-24.733 17.984-39.58v-560zM496 690.667c-36.39 0-71.966-10.791-102.225-31.010s-53.843-48.955-67.769-82.577c-13.926-33.621-17.57-70.618-10.47-106.309 7.099-35.695 24.624-68.48 50.356-94.212s58.519-43.255 94.212-50.355c35.691-7.1 72.687-3.456 106.308 10.47s62.362 37.508 82.577 67.767c20.22 30.259 31.010 65.835 31.010 102.225-0.055 48.783-19.456 95.552-53.952 130.047s-81.263 53.898-130.048 53.953zM496 445.333c-12.13 0-23.987 3.597-34.074 10.338-10.086 6.737-17.95 16.316-22.592 27.524s-5.854 23.539-3.49 35.435c2.368 11.9 8.209 22.828 16.785 31.406 8.58 8.577 19.507 14.419 31.407 16.785 11.895 2.367 24.226 1.152 35.435-3.49s20.787-12.503 27.524-22.59c6.741-10.088 10.338-21.945 10.338-34.075-0.017-16.26-6.485-31.851-17.984-43.349s-27.089-17.967-43.349-17.984z" />
<glyph unicode="&#xe921;" glyph-name="map" d="M675.2 865.6l239.467-160c14.4-9.6 24-25.6 24-44.267v-586.667c0-29.333-24-53.333-53.333-53.333-11.2 0-21.333 3.2-29.867 9.067l-211.733 141.333-237.867-142.4c-8-4.8-17.067-8-27.2-8-11.2 0-21.333 3.2-29.867 9.067l-239.467 160c-14.4 9.6-24 25.6-24 44.267v586.667c0 29.333 24 53.333 53.333 53.333 11.2 0 21.333-3.2 29.867-9.067l211.733-141.333 237.867 142.4c8 4.8 17.067 8 27.2 8 11.2 0 21.333-3.2 29.867-9.067zM192 263.467l160-106.667v458.667c-1.067 0.533-2.133 1.067-3.2 2.133l-156.8 104.533v-458.667zM618.667 280.533v462.4l-212.8-126.933c0-0.533-0.533-0.533-0.533-0.533v-462.4l212.8 126.933c0 0.533 0.533 0.533 0.533 0.533zM675.2 278.933l156.8-104.533h0.533v458.134l-160 106.667v-458.667c0.533-0.533 1.6-1.067 2.667-1.6z" />
<glyph unicode="&#xe922;" glyph-name="menu_back" horiz-adv-x="1252" d="M26.8 388.267l446.665-426.667c16.080-16.213 38.414-25.6 63.427-25.6 49.134 0 89.334 38.4 89.334 85.333 0 23.893-9.827 45.227-25.907 60.587l-293.905 280.747h855.805c49.141 0 89.338 38.4 89.338 85.333s-40.198 85.333-89.338 85.333h-856.699l293.906 280.747c16.080 15.36 25.906 36.693 25.906 60.587 0 46.933-40.199 85.333-89.333 85.333-25.013 0-47.346-9.387-63.427-24.747l-446.665-426.667c-16.080-15.36-25.907-36.693-25.907-60.587s10.72-44.373 26.8-59.733zM1365.333-291.556h-1479.111v1479.111h1479.111v-1479.111z" />
<glyph unicode="&#xe923;" glyph-name="menu_burger" d="M810.667 618.667h-597.333c-23.467 0-42.667 19.2-42.667 42.667s19.2 42.667 42.667 42.667h597.333c23.467 0 42.667-19.2 42.667-42.667s-19.2-42.667-42.667-42.667zM213.333 277.333h597.333c23.467 0 42.667-19.2 42.667-42.667s-19.2-42.667-42.667-42.667h-597.333c-23.467 0-42.667 19.2-42.667 42.667s19.2 42.667 42.667 42.667zM810.667 490.667h-597.333c-23.467 0-42.667-19.2-42.667-42.667s19.2-42.667 42.667-42.667h597.333c23.467 0 42.667 19.2 42.667 42.667s-19.2 42.667-42.667 42.667z" />
<glyph unicode="&#xe924;" glyph-name="mode" d="M186.505 325.982v-100.181c0-56.819 46.293-103.168 103.038-103.168h100.058l70.93-71.019c19.413-19.439 45.547-30.281 72.802-30.281s53.389 10.842 72.802 30.281l70.929 71.019h100.058c56.747 0 103.040 46.349 103.040 103.168v100.181l70.929 71.019c19.413 19.439 30.242 45.606 30.242 72.896 0 27.285-10.829 53.453-30.242 72.885l-70.929 71.025v100.176c0 56.823-46.293 103.174-103.040 103.174h-100.058l-70.929 71.019c-38.827 38.877-106.778 38.877-145.604 0l-70.93-71.019h-100.058c-56.745 0-103.038-46.351-103.038-103.174v-100.176l-70.93-71.025c-19.414-19.433-30.242-45.6-30.242-72.885 0-27.29 10.828-53.457 30.242-72.896l70.93-71.019zM533.333 694.175c15.305 0 27.998-12.71 27.998-28.035v-392.493c0-15.322-12.693-28.032-27.998-28.032-129.917 0-224 94.191-224 224.282 0 130.078 94.083 224.279 224 224.279z" />
<glyph unicode="&#xe925;" glyph-name="location" horiz-adv-x="721" d="M22.756 599.484c0 182.127 153.012 330.183 341.333 330.183s340.715-148.056 341.333-330.183c0-182.746-341.333-660.985-341.333-660.985s-341.333 478.238-341.333 660.985zM209.221 588.953c0-85.49 69.382-154.872 154.87-154.872 85.487 0 154.868 69.382 154.868 154.872 0 85.488-69.382 154.87-154.868 154.87-85.488 0-154.87-69.382-154.87-154.87z" />
<glyph unicode="&#xe926;" glyph-name="arrow-menu" horiz-adv-x="1664" d="M166.4-64c46.592 0 88.192 18.304 118.144 48.256l547.456 549.12 547.456-549.12c29.952-29.952 71.552-48.256 118.144-48.256 91.52 0 166.4 74.88 166.4 166.4 0 46.592-18.304 88.192-48.256 118.144l-665.6 665.6c-29.952 29.952-71.552 48.256-118.144 48.256s-88.192-18.304-118.144-48.256l-665.6-665.6c-29.952-29.952-48.256-71.552-48.256-118.144 0-91.52 74.88-166.4 166.4-166.4z" />
<glyph unicode="&#xe927;" glyph-name="settings" d="M853.868 550.656h118.323c28.145 0 51.169-23.026 51.809-50.529v-102.334c0-28.145-23.025-51.169-51.169-51.169h-118.323c-7.675-24.945-18.55-47.969-30.705-70.359l83.149-83.144c19.19-19.19 19.19-50.529 0-69.719l-69.714-69.714c-19.19-19.19-50.529-19.19-69.719 0l-83.149 83.144c-22.385-12.15-45.409-22.385-70.354-30.060v-118.963c0-28.145-23.025-51.169-51.169-51.169h-102.334c-28.143 0-51.168 23.025-51.168 51.169v118.963c-23.665 7.035-45.411 16.63-66.518 28.145l-86.986-86.989c-19.828-19.825-52.447-19.825-72.275 0l-72.275 72.279c-19.828 19.825-19.828 52.444 0 72.274l86.986 86.984c-11.513 21.105-21.747 42.854-28.782 66.519h-118.326c-28.142 0-51.168 23.025-51.168 51.169v102.334c0 28.143 23.026 51.168 51.168 51.168h118.326c7.675 24.944 17.909 47.97 30.701 69.716l-83.148 83.148c-19.188 19.188-19.188 50.528 0 69.716l69.077 69.716c19.188 19.188 50.528 19.188 69.716 0l83.148-83.148c22.386 12.153 45.412 22.386 70.356 30.062v118.966c0 28.142 23.026 51.168 51.168 51.168h102.334c28.145 0 51.169-23.026 51.169-51.168v-118.966c23.665-7.036 45.414-17.269 66.519-28.143l86.984 86.986c19.83 19.828 52.449 19.828 72.274 0l72.279-72.275c19.825-19.828 19.825-52.447 0-72.275l-86.989-86.986c11.515-21.107 21.75-42.853 28.785-66.518zM319.801 448.32c0-106.176 85.706-191.88 191.88-191.88s191.879 85.704 191.879 191.88c0 106.174-85.704 191.88-191.879 191.88-106.174 0-191.88-85.706-191.88-191.88z" />
<glyph unicode="&#xe928;" glyph-name="magnifier" d="M824.755 271.469l170.778-171.411c17.267-17.267 28.141-41.574 28.141-67.795 0-53.088-42.854-95.942-95.942-95.942-26.221 0-50.528 10.874-67.795 28.141l-171.411 170.771c-69.079-44.128-151.588-70.995-240.492-70.995-247.525 0-447.72 200.198-447.72 447.723s200.195 447.72 447.72 447.72c247.526 0 447.718-200.195 447.718-447.72 0-88.265-26.221-170.773-70.995-240.491zM128.232 511.96c0-176.53 143.27-319.8 319.8-319.8s319.801 143.27 319.801 319.8c0 176.529-143.271 319.8-319.801 319.8s-319.8-143.27-319.8-319.8z" />
<glyph unicode="&#xe929;" glyph-name="clock" d="M512 960c-282.88 0-512-229.12-512-512s229.12-512 512-512c282.88 0 512 229.12 512 512s-229.12 512-512 512zM512 64c-211.84 0-384 172.16-384 384s172.16 384 384 384c211.84 0 384-172.16 384-384s-172.16-384-384-384zM576 704v-229.76l109.44-108.8c11.52-11.52 18.56-27.52 18.56-45.44 0-35.2-28.8-64-64-64-17.92 0-33.92 7.040-45.44 18.56l-128 128c-11.52 11.52-18.56 27.52-18.56 45.44v256c0 35.2 28.8 64 64 64s64-28.8 64-64z" />
<glyph unicode="&#xe92a;" glyph-name="sim_logo" horiz-adv-x="768" d="M493.44 941.44l256-256c11.52-11.52 18.56-27.52 18.56-45.44v-640c0-35.2-28.8-64-64-64h-640c-35.2 0-64 28.8-64 64v896c0 35.2 28.8 64 64 64h384c17.92 0 33.92-7.040 45.44-18.56zM448 576h-128v-128h128v128zM128 576v-128h128v128h-128zM128 64h128v128h-128v-128zM448 64v128h-128v-128h128zM512 64h128v128h-128v-128zM640 256v128h-512v-128h512zM512 448h128v128h-128v-128z" />
<glyph unicode="&#xe92b;" glyph-name="sleep" horiz-adv-x="922" d="M592.456 902v26c0 16-16.456 32-32.911 32h-230.402c-18.514 0-32.914-16-32.914-32v-32c0-18 14.4-32 32.914-32h119.314l-170.743-188c-8.229-10-14.4-30-14.4-42v-26c0-18 14.4-32 32.914-32h230.399c16.456 0 32.916 14 32.916 32v32c0 16-16.461 32-32.916 32h-121.371l170.743 186c8.228 10 14.403 30 16.456 44zM411.429 448h-345.601c-18.514 0-32.914-16-32.914-32v-64c0-18.002 14.4-32 32.914-32h203.657l-250.971-242.002c-10.286-9.999-18.514-29.998-18.514-43.996v-50.002c0-28.001 20.571-48 49.371-48h378.514c16.457 0 32.914 13.998 32.914 32v64c0 16-16.457 32-32.914 32h-238.628l250.972 240c10.286 9.999 18.514 29.998 20.571 44.001v51.999c0 25.999-22.628 48-49.371 48zM888.684 512h-230.4c-18.514 0-32.911-16-32.911-32v-32c0-18.002 14.397-32 32.911-32h119.316l-170.742-188.001c-8.228-9.999-14.403-29.998-14.403-41.999v-25.999c0-18.002 14.403-32 32.916-32h230.4c16.456 0 32.911 13.998 32.911 32v32c0 16-16.456 32-32.911 32h-121.37l170.742 185.999c8.228 9.999 14.397 29.998 16.456 44.001v26c0 16-16.456 32-32.916 32z" />
<glyph unicode="&#xe92c;" glyph-name="stop" d="M724.075 960h-424.151l-299.924-299.922v-424.158l299.924-299.92h424.151l299.925 299.92v424.158l-299.925 299.922zM963.998 260.776l-264.774-264.774h-374.448l-264.776 264.774v374.448l264.776 264.776h374.448l264.774-264.776v-374.448zM224.98 471.142c-13.8 5.19-24.15 7.722-32.464 9.756-9.922 2.43-13.598 3.43-18.378 6.54-3 1.95-4.54 6.67-4.464 10.128 0.070 3.396 3.272 9.934 11.554 13.026 11.418 4.26 22.228 5.246 57.626-21.041l35.774 48.169c-24.052 17.866-64.31 47.77-114.376 29.086-29.62-11.052-49.94-38.368-50.566-67.966-0.416-19.585 7.708-46.083 31.756-61.713 13.56-8.816 25.378-11.711 36.806-14.504 7.464-1.829 15.184-3.719 25.628-7.647 16.126-6.060 14.858-13.386 14.378-16.147-1.082-6.246-9.984-15.486-25.66-15.486-16.528 0-32.366 6.586-42.364 17.622l-44.46-40.29c21.5-23.724 53.146-37.334 86.824-37.334 42.576 0 78.232 27.439 84.782 65.243 6.212 35.859-14.354 68.264-52.396 82.558zM300.658 510.678h50.976v-185.358h60v185.358h51.39v60h-162.366v-60zM816.458 406.044c0 0 19.866 0.019 21.616 0.019 45.95 0 83.33 36.92 83.33 82.306s-37.381 82.309-83.33 82.309h-81.613v-245.358h59.997v80.724zM838.074 510.678c12.642 0 23.329-10.216 23.329-22.309s-10.687-22.305-23.329-22.305c-5.194 0-13.228-0.033-21.416-0.070-0.042 8.606-0.088 35.656-0.112 44.684h21.527zM597.094 570.678c-67.645 0-122.68-55.034-122.68-122.678s55.035-122.68 122.68-122.68c67.645 0 122.68 55.035 122.68 122.68s-55.035 122.678-122.68 122.678zM597.094 385.322c-34.56 0-62.678 28.118-62.678 62.678s28.118 62.678 62.678 62.678c34.56 0 62.678-28.118 62.678-62.678s-28.118-62.678-62.678-62.678z" />
<glyph unicode="&#xe92d;" glyph-name="toggle_menu" d="M524.8 658.56l-210.56-210.56 211.202-210.562c11.52-11.515 18.558-27.518 18.558-45.438 0-35.202-28.802-64-64-64-17.92 0-33.92 7.038-45.44 18.562l-256 255.995c-11.52 11.52-18.56 27.522-18.56 45.442s7.040 33.922 18.56 45.442l256 255.998c11.52 11.52 27.52 18.56 45.44 18.56 35.198 0 64-28.8 64-64 0-17.92-7.038-33.92-19.2-45.44zM844.8 658.56l-210.558-210.56 211.195-210.562c11.525-11.515 18.562-27.518 18.562-45.438 0-35.202-28.798-64-64-64-17.92 0-33.922 7.038-45.438 18.562l-256.005 255.995c-11.52 11.52-18.558 27.522-18.558 45.442s7.038 33.922 18.558 45.442l256.005 255.998c11.515 11.52 27.518 18.56 45.438 18.56 35.202 0 64-28.8 64-64 0-17.92-7.038-33.92-19.2-45.44z" />
<glyph unicode="&#xe92e;" glyph-name="done" d="M956.723 816.687c-1.843 13.203-11.341 24.063-24.179 27.633l-411.565 114.456c-5.868 1.633-12.065 1.633-17.937 0l-411.563-114.456c-12.842-3.57-22.34-14.426-24.179-27.633-2.387-17.165-56.844-422.731 82.835-624.488 139.514-201.517 345.327-253.158 354.019-255.258 2.584-0.627 5.216-0.934 7.857-0.934s5.274 0.314 7.858 0.934c8.696 2.099 214.507 53.741 354.020 255.258 139.674 201.753 85.222 607.319 82.835 624.488zM777.414 579.913l-280.726-280.726c-6.532-6.534-15.099-9.805-23.661-9.805s-17.129 3.264-23.661 9.805l-173.571 173.569c-6.278 6.274-9.803 14.787-9.803 23.661s3.53 17.388 9.803 23.661l34.463 34.463c13.069 13.064 34.259 13.069 47.323 0l115.446-115.446 222.602 222.607c6.272 6.278 14.79 9.803 23.661 9.803 8.877 0 17.389-3.525 23.661-9.803l34.464-34.463c13.069-13.069 13.069-34.259 0-47.327z" />
<glyph unicode="&#xe92f;" glyph-name="revert" d="M896 896c0 35.2 28.8 64 64 64s64-28.8 64-64v-256c0-35.2-28.8-64-64-64h-256c-35.2 0-64 28.8-64 64s28.8 64 64 64h93.44c-70.4 78.080-172.16 128-285.44 128-211.84 0-384-172.16-384-384 0-35.2-28.8-64-64-64s-64 28.8-64 64c0 282.88 229.12 512 512 512 153.6 0 290.56-68.48 384-175.36v111.36zM896 448c0 35.2 28.8 64 64 64s64-28.8 64-64c0-282.88-229.12-512-512-512-153.6 0-290.56 68.48-384 175.36v-111.36c0-35.2-28.8-64-64-64s-64 28.8-64 64v256c0 35.2 28.8 64 64 64h256c35.2 0 64-28.8 64-64s-28.8-64-64-64h-93.44c70.4-78.080 172.16-128 285.44-128 211.84 0 384 172.16 384 384z" />
<glyph unicode="&#xe930;" glyph-name="calendar" d="M750.933 755.2c40.96 0 68.267 34.133 68.267 68.267v68.267c0 40.96-27.307 68.267-68.267 68.267s-68.267-27.307-68.267-68.267v-68.267c0-34.133 27.307-68.267 68.267-68.267zM955.733 891.733h-68.267v-68.267c0-75.093-61.44-136.533-136.533-136.533s-136.533 61.44-136.533 136.533v68.267h-204.8v-68.267c0-75.093-61.44-136.533-136.533-136.533s-136.533 61.44-136.533 136.533v68.267h-68.267c-40.96 0-68.267-34.133-68.267-68.267v-819.2c0-40.96 27.307-68.267 68.267-68.267h887.467c40.96 0 68.267 27.307 68.267 68.267v819.2c0 40.96-34.133 68.267-68.267 68.267zM136.534 72.533h204.8v204.8h-204.8v-204.8zM341.334 345.6h-204.8v204.8h204.8v-204.8zM409.6 72.533h204.8v204.8h-204.8v-204.8zM614.4 345.6h-204.8v204.8h204.8v-204.8zM682.667 72.533h204.8v204.8h-204.8v-204.8zM887.467 345.6h-204.8v204.8h204.8v-204.8zM341.333 823.467c0-34.133-27.307-68.267-68.267-68.267s-68.267 34.133-68.267 68.267v68.267c0 40.96 27.307 68.267 68.267 68.267s68.267-27.307 68.267-68.267v-68.267z" />
<glyph unicode="&#xe931;" glyph-name="edit" d="M805.661 922.697c23.406 22.674 55.589 37.303 90.697 37.303 70.949 0 128-57.783 127.269-127.269 0-35.84-13.897-67.291-37.303-90.697l-105.326-105.326-180.66 180.663 105.323 105.326zM165.664 281.966l180.663-180.663 489.323 489.326-179.929 181.394-490.057-490.057zM0.362-64l282.331 101.669-179.931 178.469-102.4-280.137z" />
<glyph unicode="&#xe932;" glyph-name="battery" horiz-adv-x="683" d="M597.333 832h-85.332v106.64c0 11.806-8.126 21.36-19.916 21.36h-300.084c-11.792 0-21.334-9.554-21.334-21.36v-106.64h-85.332c-47.062 0-85.334-37.24-85.334-84.36v-726.204c0-47.121 38.272-85.436 85.334-85.436h511.998c47.064 0 85.339 38.315 85.339 85.436v726.204c0 47.12-38.275 84.36-85.339 84.36zM508.836 415.479l-170.666-277.336c-3.958-6.411-10.896-10.143-18.166-10.143-1.938 0-3.876 0.267-5.812 0.814-9.188 2.583-15.52 10.98-15.52 20.52v170.667h-106.666c-7.73 0-14.854 4.187-18.626 10.917-3.77 6.747-3.604 15.019 0.458 21.601l170.666 277.336c5 8.126 14.812 11.854 23.98 9.334 9.188-2.584 15.52-10.98 15.52-20.52v-170.668h106.666c7.73 0 14.854-4.188 18.626-10.916 3.77-6.75 3.602-15.022-0.46-21.604z" />
<glyph unicode="&#xe933;" glyph-name="change_battery" d="M568.589 419.255l144-144c8.636-8.644 20.638-13.922 34.078-13.922s25.442 5.278 34.078 13.922l144 144c8.644 8.64 13.922 20.638 13.922 34.078 0 26.402-21.602 48-48 48-13.44 0-25.442-5.278-34.078-13.922l-61.922-62.396v316.318c0 26.4-21.602 48-48 48s-48-21.6-48-48v-316.318l-61.922 62.396c-8.636 8.644-20.638 13.922-34.078 13.922-26.398 0-48-21.598-48-48 0-13.44 5.278-25.438 13.922-34.078zM242.667 165.333c-39.84 0-72-32.158-72-72s32.16-72 72-72h624c39.842 0 72 32.158 72 72s-32.158 72-72 72h-624zM252.747 563.253c-8.64-8.64-20.64-13.92-34.080-13.92-26.4 0-48 21.6-48 48 0 13.44 5.28 25.44 13.92 34.080l144 144c8.64 8.64 20.64 13.92 34.080 13.92s25.44-5.28 34.080-13.92l143.998-144c8.644-8.64 13.922-20.64 13.922-34.080 0-26.4-21.602-48-48-48-13.44 0-25.442 5.28-34.078 14.4l-61.922 61.92v-316.32c0-26.398-21.6-48-48-48s-48 21.602-48 48v316.32l-61.92-62.4z" />
<glyph unicode="&#xe935;" glyph-name="logout" d="M727.983 867.016c-8.844-21.84-33.722-32.373-55.565-23.527-50.936 20.633-105.45 31.178-160.423 31.178-112.467 0-220.565-43.835-301.696-124.966-166.622-166.622-166.622-436.772 0-603.393 81.131-81.128 189.229-124.966 301.696-124.966 54.972 0 109.487 10.547 160.423 31.178 21.844 8.844 46.721-1.687 55.565-23.525 8.85-21.844-1.687-46.716-23.525-55.565-61.154-24.77-126.55-37.419-192.463-37.419-134.874 0-264.737 52.661-362.035 149.957-199.947 199.949-199.947 524.126 0 724.073 97.298 97.298 227.161 149.96 362.035 149.96 65.913 0 131.309-12.649 192.463-37.42 21.838-8.847 32.375-33.723 23.525-55.564zM780.498 648.84c-16.664-16.663-16.664-43.677 0-60.339l97.83-97.829h-536.989c-23.564 0-42.666-19.102-42.666-42.666s19.102-42.668 42.666-42.668h536.989l-97.83-97.83c-16.664-16.659-16.664-43.676 0-60.335 16.659-16.664 43.676-16.664 60.341 0l171.127 171.132c8.020 8.271 12.035 18.986 12.035 29.701 0 0.729-0.022 1.454-0.054 2.174-0.253 5.040-1.38 9.849-3.234 14.279-2.005 4.796-4.921 9.3-8.747 13.247v0.002l-0.463 0.468-0.049 0.046v0.005l-170.615 170.614c-16.664 16.662-43.682 16.662-60.341 0z" />
</font>
</defs>
</svg>
