<svg width="18" height="18" viewBox="0 0 18 18" fill="none" xmlns="http://www.w3.org/2000/svg">
<path fill-rule="evenodd" clip-rule="evenodd" d="M13.2 3.6C13.92 3.6 14.4 3 14.4 2.4V1.2C14.4 0.48 13.92 0 13.2 0C12.48 0 12 0.48 12 1.2V2.4C12 3 12.48 3.6 13.2 3.6ZM16.8 1.2H15.6V2.4C15.6 3.72 14.52 4.8 13.2 4.8C11.88 4.8 10.8 3.72 10.8 2.4V1.2H7.2V2.4C7.2 3.72 6.12 4.8 4.8 4.8C3.48 4.8 2.4 3.72 2.4 2.4V1.2H1.2C0.48 1.2 0 1.8 0 2.4V16.8C0 17.52 0.48 18 1.2 18H16.8C17.52 18 18 17.52 18 16.8V2.4C18 1.68 17.4 1.2 16.8 1.2ZM2.40002 15.6H6.00002V12H2.40002V15.6ZM6.00002 10.8H2.40002V7.2H6.00002V10.8ZM7.2 15.6H10.8V12H7.2V15.6ZM10.8 10.8H7.2V7.2H10.8V10.8ZM12 15.6H15.6V12H12V15.6ZM15.6 10.8H12V7.2H15.6V10.8ZM6 2.4C6 3 5.52 3.6 4.8 3.6C4.08 3.6 3.6 3 3.6 2.4V1.2C3.6 0.48 4.08 0 4.8 0C5.52 0 6 0.48 6 1.2V2.4Z" fill="#DFE0F3"/>
</svg>
