<svg width="34" height="16" viewBox="0 0 34 16" fill="none" xmlns="http://www.w3.org/2000/svg">
<path d="M18.0506 5.36424H17.5197L13.9029 0.838162C13.5379 0.368791 12.8079 0 12.2439 0H5.67398C4.81127 0 4.01492 0.536424 3.68311 1.37459L2.1236 5.36424C0.929073 5.36424 0 6.33651 0 7.50993V11.2649C0 11.5666 0.232268 11.8013 0.530899 11.8013H2.1236C2.1236 13.6118 3.51721 15.0199 5.30899 15.0199C7.06759 15.0199 8.49438 13.6118 8.49438 11.8013H12.7416C12.7416 13.6118 14.1352 15.0199 15.927 15.0199C17.6856 15.0199 19.1124 13.6118 19.1124 11.8013H20.7051C20.9705 11.8013 21.236 11.5666 21.236 11.2649V8.58278C21.236 6.80588 19.8092 5.36424 18.0506 5.36424ZM9.55618 1.07285H12.2439C12.5757 1.07285 12.8743 1.24048 13.0734 1.50869L16.1592 5.36424H9.55618V1.07285ZM4.67855 1.7769C4.84445 1.34106 5.24263 1.07285 5.67398 1.07285H8.49438V5.36424H3.25176L4.67855 1.7769ZM5.30899 13.947C4.11447 13.947 3.18539 13.0083 3.18539 11.8013C3.18539 10.6279 4.11447 9.65563 5.30899 9.65563C6.47033 9.65563 7.43258 10.6279 7.43258 11.8013C7.43258 13.0083 6.47033 13.947 5.30899 13.947ZM15.927 13.947C14.7324 13.947 13.8034 13.0083 13.8034 11.8013C13.8034 10.6279 14.7324 9.65563 15.927 9.65563C17.0883 9.65563 18.0506 10.6279 18.0506 11.8013C18.0506 13.0083 17.0883 13.947 15.927 13.947ZM20.1742 10.7285H18.9133C18.4487 9.488 17.2874 8.58278 15.927 8.58278C14.5334 8.58278 13.372 9.488 12.9075 10.7285H8.29529C7.83076 9.488 6.66942 8.58278 5.30899 8.58278C3.91538 8.58278 2.75404 9.488 2.2895 10.7285H1.0618V7.50993C1.0618 6.93998 1.52633 6.43709 2.1236 6.43709H18.0506C19.2119 6.43709 20.1742 7.40935 20.1742 8.58278V10.7285Z" fill="url(#paint0_linear)"/>
<path d="M29.6737 11.6933L33.0487 8.31828C33.2513 8.11578 33.375 7.83453 33.375 7.51953C33.375 7.20453 33.2513 6.92328 33.0487 6.72078L29.6737 3.34578C29.4713 3.14328 29.19 3.01953 28.875 3.01953C28.2562 3.01953 27.75 3.52578 27.75 4.14453C27.75 4.45953 27.8737 4.74078 28.0763 4.94328L29.5387 6.39453H25.125C24.5062 6.39453 24 6.90078 24 7.51953C24 8.13828 24.5062 8.64453 25.125 8.64453H29.5387L28.0763 10.0958C27.8737 10.2983 27.75 10.5795 27.75 10.8945C27.75 11.5133 28.2562 12.0195 28.875 12.0195C29.19 12.0195 29.4713 11.8958 29.6737 11.6933Z" fill="url(#paint1_linear)"/>
<defs>
<linearGradient id="paint0_linear" x1="21.7059" y1="-1.92131" x2="21.7059" y2="15.0199" gradientUnits="userSpaceOnUse">
<stop stop-color="#25BDBB"/>
<stop offset="1" stop-color="#0CE091"/>
</linearGradient>
<linearGradient id="paint1_linear" x1="24" y1="6.81363" x2="33.375" y2="6.81363" gradientUnits="userSpaceOnUse">
<stop stop-color="#25BDBB"/>
<stop offset="1" stop-color="#0CE091"/>
</linearGradient>
</defs>
</svg>
