<svg width="20" height="20" viewBox="0 0 20 20" fill="none" xmlns="http://www.w3.org/2000/svg">
<path d="M10.9255 0C12.0642 1.64919 12.9516 3.45846 13.5585 5.36844C14.9473 5.15058 16.285 4.68199 17.5062 3.98563L17.8646 3.7634C16.1644 1.61177 13.6563 0.25147 10.9255 0Z" fill="#8F90A3"/>
<path d="M12.5089 6.97852C11.6759 7.0739 10.8382 7.12179 9.99991 7.12187C9.16153 7.12175 8.32387 7.0739 7.49096 6.97852C7.314 7.73225 7.20131 8.49964 7.15405 9.27241H12.8458C12.7986 8.49964 12.6858 7.73225 12.5089 6.97852Z" fill="#8F90A3"/>
<path d="M9.99996 14.29C9.29364 14.2907 8.58783 14.3273 7.88525 14.3997C8.4021 15.943 9.1127 17.4145 9.99996 18.7789C10.8872 17.4145 11.5978 15.943 12.1147 14.3997C11.4121 14.3273 10.7063 14.2907 9.99996 14.29Z" fill="#8F90A3"/>
<path d="M14.2738 10.7061C14.2301 11.5519 14.1158 12.3926 13.9319 13.2193C15.4581 13.4729 16.926 14.0004 18.2645 14.7763L18.6695 15.0286C19.4383 13.7087 19.8935 12.2298 20 10.7061H14.2738Z" fill="#8F90A3"/>
<path d="M18.6695 4.9502L18.2645 5.20255C16.9262 5.97976 15.4584 6.50845 13.9319 6.76311C14.1155 7.58847 14.2299 8.42768 14.2738 9.27206H20C19.8934 7.74854 19.4382 6.26992 18.6695 4.9502Z" fill="#8F90A3"/>
<path d="M7.15405 10.7061C7.20173 11.4789 7.31492 12.2463 7.49239 13C9.1596 12.8095 10.8431 12.8095 12.5103 13C12.6868 12.2462 12.7991 11.4788 12.8458 10.7061H7.15405Z" fill="#8F90A3"/>
<path d="M1.73547 5.20255L1.33043 4.9502C0.561786 6.26992 0.106603 7.74854 0 9.27206H5.72618C5.77011 8.42768 5.88449 7.58842 6.06812 6.76311C4.54162 6.50845 3.07375 5.97976 1.73547 5.20255Z" fill="#8F90A3"/>
<path d="M6.44157 14.6113C5.05288 14.8293 3.7153 15.2976 2.49391 15.9934L2.1355 16.2164C3.83551 18.3681 6.34383 19.7282 9.07455 19.9791C7.93569 18.3302 7.04834 16.5212 6.44157 14.6113Z" fill="#8F90A3"/>
<path d="M9.99996 1.2002C9.11282 2.56444 8.40226 4.03567 7.88525 5.57868C8.58779 5.65151 9.29364 5.6881 9.99996 5.68835C10.7063 5.6881 11.4121 5.65147 12.1147 5.57868C11.5977 4.03567 10.8871 2.56444 9.99996 1.2002Z" fill="#8F90A3"/>
<path d="M17.5061 15.9934C16.2847 15.2976 14.9472 14.8293 13.5585 14.6113C12.9511 16.5213 12.063 18.3303 10.9233 19.9791C13.6541 19.7282 16.1624 18.368 17.8624 16.2163L17.5061 15.9934Z" fill="#8F90A3"/>
<path d="M2.1377 3.7634L2.49396 3.98563C3.71519 4.68199 5.05281 5.15053 6.44162 5.36844C7.04919 3.45829 7.9373 1.64907 9.07675 0C6.34603 0.251428 3.83788 1.61173 2.1377 3.7634Z" fill="#8F90A3"/>
<path d="M5.72618 10.7061H0C0.106477 12.2298 0.56166 13.7087 1.33048 15.0286L1.73551 14.7763C3.07405 14.0004 4.54187 13.4729 6.06812 13.2193C5.88419 12.3926 5.76982 11.5519 5.72618 10.7061Z" fill="#8F90A3"/>
</svg>
