<svg width="24" height="24" viewBox="0 0 24 24" fill="none" xmlns="http://www.w3.org/2000/svg">
<path d="M15.9375 2H7.3125C6.16916 2.00122 5.07303 2.41645 4.26457 3.15461C3.45611 3.89277 3.00133 4.89358 3 5.9375V19.0625C3.00133 20.1064 3.45611 21.1072 4.26457 21.8454C5.07303 22.5835 6.16916 22.9988 7.3125 23H15.9375C17.0808 22.9988 18.177 22.5835 18.9854 21.8454C19.7939 21.1072 20.2487 20.1064 20.25 19.0625V5.9375C20.2487 4.89358 19.7939 3.89277 18.9854 3.15461C18.177 2.41645 17.0808 2.00122 15.9375 2ZM17.375 19.0625C17.3746 19.4105 17.223 19.7441 16.9535 19.9901C16.684 20.2362 16.3186 20.3746 15.9375 20.375H7.3125C6.93138 20.3746 6.566 20.2362 6.29651 19.9901C6.02702 19.7441 5.87543 19.4105 5.875 19.0625V5.9375C5.87543 5.58952 6.02702 5.25591 6.29651 5.00985C6.566 4.7638 6.93138 4.62539 7.3125 4.625H15.9375C16.3186 4.62539 16.684 4.7638 16.9535 5.00985C17.223 5.25591 17.3746 5.58952 17.375 5.9375V19.0625Z" fill="#DFE0F3"/>
<path d="M11.625 6.3125C10.7721 6.3125 9.93829 6.56542 9.22911 7.03929C8.51992 7.51315 7.96717 8.18667 7.64077 8.97468C7.31437 9.76268 7.22897 10.6298 7.39537 11.4663C7.56176 12.3029 7.97249 13.0713 8.5756 13.6744C9.17872 14.2775 9.94713 14.6882 10.7837 14.8546C11.6202 15.021 12.4873 14.9356 13.2753 14.6092C14.0633 14.2828 14.7369 13.7301 15.2107 13.0209C15.6846 12.3117 15.9375 11.4779 15.9375 10.625C15.9362 9.48165 15.4815 8.38549 14.673 7.57702C13.8645 6.76855 12.7684 6.31378 11.625 6.3125ZM11.625 12.0625C11.3407 12.0625 11.0628 11.9782 10.8264 11.8202C10.59 11.6623 10.4057 11.4378 10.2969 11.1751C10.1881 10.9124 10.1597 10.6234 10.2151 10.3446C10.2706 10.0657 10.4075 9.80957 10.6085 9.60853C10.8096 9.4075 11.0657 9.27059 11.3446 9.21512C11.6234 9.15965 11.9124 9.18812 12.1751 9.29692C12.4378 9.40572 12.6623 9.58997 12.8202 9.82637C12.9782 10.0628 13.0625 10.3407 13.0625 10.625C13.0621 11.0061 12.9105 11.3715 12.641 11.641C12.3715 11.9105 12.0061 12.0621 11.625 12.0625Z" fill="#DFE0F3"/>
</svg>
