<svg width="11" height="18" viewBox="0 0 11 18" fill="none" xmlns="http://www.w3.org/2000/svg">
<path fill-rule="evenodd" clip-rule="evenodd" d="M9.9 0H1.1C0.495 0 0 0.479032 0 1.06452V15.9677C0 16.5532 0.495 17.0323 1.1 17.0323H9.9C10.505 17.0323 11 16.5532 11 15.9677V1.06452C11 0.479032 10.505 0 9.9 0ZM5.5 15.9674C4.895 15.9674 4.4 15.4883 4.4 14.9028C4.4 14.3174 4.895 13.8383 5.5 13.8383C6.105 13.8383 6.6 14.3174 6.6 14.9028C6.6 15.4883 6.105 15.9674 5.5 15.9674ZM2.2 12.7739H8.8V3.19321H2.2V12.7739Z" fill="#FACB39"/>
</svg>
