<svg width="20" height="20" viewBox="0 0 20 20" fill="none" xmlns="http://www.w3.org/2000/svg">
<path d="M16.25 8.75H11.25V3.75C11.25 3.0625 10.6875 2.5 10 2.5C9.3125 2.5 8.75 3.0625 8.75 3.75V8.75H3.75C3.0625 8.75 2.5 9.3125 2.5 10C2.5 10.6875 3.0625 11.25 3.75 11.25H8.75V16.25C8.75 16.9375 9.3125 17.5 10 17.5C10.6875 17.5 11.25 16.9375 11.25 16.25V11.25H16.25C16.9375 11.25 17.5 10.6875 17.5 10C17.5 9.3125 16.9375 8.75 16.25 8.75Z" fill="white"/>
<mask id="mask0" mask-type="alpha" maskUnits="userSpaceOnUse" x="2" y="2" width="16" height="16">
<path d="M16.25 8.75H11.25V3.75C11.25 3.0625 10.6875 2.5 10 2.5C9.3125 2.5 8.75 3.0625 8.75 3.75V8.75H3.75C3.0625 8.75 2.5 9.3125 2.5 10C2.5 10.6875 3.0625 11.25 3.75 11.25H8.75V16.25C8.75 16.9375 9.3125 17.5 10 17.5C10.6875 17.5 11.25 16.9375 11.25 16.25V11.25H16.25C16.9375 11.25 17.5 10.6875 17.5 10C17.5 9.3125 16.9375 8.75 16.25 8.75Z" fill="white"/>
</mask>
<g mask="url(#mask0)">
<rect width="20" height="20" fill="white"/>
</g>
</svg>
