<svg width="28" height="21" viewBox="0 0 28 21" fill="none" xmlns="http://www.w3.org/2000/svg">
<path d="M25 21H3C1.3125 21 7.29414e-07 19.6875 6.55651e-07 18L0 3C-7.1714e-08 1.35938 1.3125 7.29434e-07 3 6.55671e-07L22 0L28 6V18C28 19.6875 26.6406 21 25 21ZM25 18.75C25.375 18.75 25.75 18.4219 25.75 18V6.9375L21.0625 2.25L3 2.25C2.57812 2.25 2.25 2.625 2.25 3L2.25 18C2.25 18.4219 2.57813 18.75 3 18.75H25ZM8.5 4.5V7.5H5.5V6C5.5 5.20313 6.15625 4.5 7 4.5H8.5ZM14.5 12V9H17.5V12H14.5ZM8.5 9V12L5.5 12V9L8.5 9ZM14.5 7.5V4.5H16C16.7969 4.5 17.5 5.20312 17.5 6V7.5H14.5ZM8.5 13.5V16.5H7C6.15625 16.5 5.5 15.8438 5.5 15V13.5L8.5 13.5ZM16 16.5H14.5L14.5 13.5H17.5V15C17.5 15.8438 16.7969 16.5 16 16.5ZM13 4.5L13 16.5H10L10 4.5H13Z" fill="url(#paint0_linear)"/>
<path d="M26 6.9375V6.83395L25.9268 6.76072L21.2393 2.07322L21.1661 2H21.0625L3 2C2.43013 2 2 2.49706 2 3L2 18C2 18.5599 2.44005 19 3 19H25C25.5029 19 26 18.5699 26 18V6.9375ZM25 20.75H3C1.45057 20.75 0.250001 19.5494 0.250001 18L0.25 3C0.25 1.49489 1.45311 0.250001 3 0.250001L21.8964 0.25L27.75 6.10355V18C27.75 19.5469 26.5051 20.75 25 20.75ZM8.25 4.75V7.25H5.75V6C5.75 5.3361 6.29936 4.75 7 4.75H8.25ZM14.75 11.75V9.25H17.25V11.75H14.75ZM8.25 9.25V11.75L5.75 11.75V9.25L8.25 9.25ZM14.75 7.25V4.75H16C16.6588 4.75 17.25 5.3412 17.25 6V7.25H14.75ZM8.25 13.75V16.25H7C6.29432 16.25 5.75 15.7057 5.75 15V13.75L8.25 13.75ZM16 16.25H14.75L14.75 13.75H17.25V15C17.25 15.7006 16.6639 16.25 16 16.25ZM12.75 4.75L12.75 16.25H10.25L10.25 4.75H12.75Z" fill="#8F90A3" stroke="#323242" stroke-width="0.5"/>
<path d="M8.5 4.5V7.5H5.5V6C5.5 5.20313 6.15625 4.5 7 4.5H8.5ZM14.5 12V9H17.5V12H14.5ZM8.5 9V12L5.5 12V9L8.5 9ZM14.5 7.5V4.5H16C16.7969 4.5 17.5 5.20312 17.5 6V7.5H14.5ZM8.5 13.5V16.5H7C6.15625 16.5 5.5 15.8438 5.5 15V13.5L8.5 13.5ZM16 16.5H14.5V13.5H17.5V15C17.5 15.8438 16.7969 16.5 16 16.5ZM13 4.5L13 16.5H10L10 4.5H13Z" fill="url(#paint1_linear)"/>
<defs>
<linearGradient id="paint0_linear" x1="26" y1="13.2794" x2="2" y2="13.2794" gradientUnits="userSpaceOnUse">
<stop stop-color="#25BDBB"/>
<stop offset="1" stop-color="#0CE091"/>
</linearGradient>
<linearGradient id="paint1_linear" x1="18" y1="4.5" x2="5" y2="16.5" gradientUnits="userSpaceOnUse">
<stop stop-color="#F6D365"/>
<stop offset="1" stop-color="#FDC000"/>
</linearGradient>
</defs>
</svg>
