<svg width="22" height="18" viewBox="0 0 22 18" fill="none" xmlns="http://www.w3.org/2000/svg">
<path d="M21.7748 16.5759L1.25629 0.140473C1.01571 -0.0702367 0.672014 0 0.465798 0.21071L0.122104 0.667248C-0.0841119 0.913077 -0.0153732 1.26426 0.225212 1.43985L20.7781 17.8752C20.9843 18.0859 21.328 18.0157 21.5342 17.7699L21.8779 17.3485C22.0841 17.1026 22.0154 16.7514 21.7748 16.5759ZM2.76854 13.4854H1.66872C1.3594 13.4854 1.11881 13.7664 1.11881 14.0473V17.4187C1.11881 17.7348 1.3594 17.9806 1.66872 17.9806H2.76854C3.0435 17.9806 3.31845 17.7348 3.31845 17.4187V14.0473C3.31845 13.7664 3.0435 13.4854 2.76854 13.4854ZM16.5163 3.93325C16.5163 3.65231 16.2413 3.37136 15.9664 3.37136H14.8666C14.5572 3.37136 14.3166 3.65231 14.3166 3.93325V8.4284L16.5163 10.1843V3.93325ZM20.9156 0.561893C20.9156 0.280947 20.6406 0 20.3656 0H19.2658C18.9565 0 18.7159 0.280947 18.7159 0.561893V11.9402L20.9156 13.6962V0.561893ZM14.3166 17.4187C14.3166 17.7348 14.5572 17.9806 14.8666 17.9806H15.9664C16.2413 17.9806 16.5163 17.7348 16.5163 17.4187V16.611L14.3166 14.8551V17.4187ZM9.91737 17.4187C9.91737 17.7348 10.158 17.9806 10.4673 17.9806H11.5671C11.842 17.9806 12.117 17.7348 12.117 17.4187V13.0991L9.91737 11.3432V17.4187ZM7.16782 10.1141H6.068C5.75868 10.1141 5.51809 10.395 5.51809 10.676V17.4187C5.51809 17.7348 5.75868 17.9806 6.068 17.9806H7.16782C7.44277 17.9806 7.71773 17.7348 7.71773 17.4187V10.676C7.71773 10.395 7.44277 10.1141 7.16782 10.1141Z" fill="url(#paint0_linear)"/>
<defs>
<linearGradient id="paint0_linear" x1="11" y1="0" x2="11" y2="18" gradientUnits="userSpaceOnUse">
<stop stop-color="#F6D365"/>
<stop offset="1" stop-color="#FDC000"/>
</linearGradient>
</defs>
</svg>
