<svg width="24" height="24" viewBox="0 0 24 24" fill="none" xmlns="http://www.w3.org/2000/svg">
<path d="M12.9254 2C14.0641 3.64919 14.9515 5.45846 15.5584 7.36844C16.9472 7.15058 18.2848 6.68199 19.5061 5.98563L19.8645 5.7634C18.1643 3.61177 15.6562 2.25147 12.9254 2Z" fill="white"/>
<path d="M14.5089 8.97882C13.676 9.07421 12.8383 9.12209 12 9.12218C11.1616 9.12205 10.3239 9.07421 9.49102 8.97882C9.31406 9.73256 9.20137 10.4999 9.15411 11.2727H14.8459C14.7986 10.4999 14.6859 9.73256 14.5089 8.97882Z" fill="white"/>
<path d="M12 16.2905C11.2936 16.2911 10.5878 16.3277 9.88525 16.4001C10.4021 17.9434 11.1127 19.4149 12 20.7793C12.8872 19.4149 13.5978 17.9434 14.1147 16.4001C13.4121 16.3277 12.7063 16.2911 12 16.2905Z" fill="white"/>
<path d="M16.2738 12.7065C16.2301 13.5523 16.1158 14.393 15.9319 15.2197C17.4581 15.4733 18.926 16.0008 20.2645 16.7767L20.6695 17.0291C21.4383 15.7092 21.8935 14.2302 22 12.7065H16.2738Z" fill="white"/>
<path d="M20.6695 6.95067L20.2645 7.20302C18.9262 7.98024 17.4584 8.50893 15.9319 8.76359C16.1155 9.58894 16.2299 10.4282 16.2738 11.2725H22C21.8934 9.74901 21.4382 8.27039 20.6695 6.95067Z" fill="white"/>
<path d="M9.15405 12.7065C9.20173 13.4793 9.31492 14.2467 9.49239 15.0004C11.1596 14.8099 12.8431 14.8099 14.5103 15.0004C14.6868 14.2466 14.7991 13.4792 14.8458 12.7065H9.15405Z" fill="white"/>
<path d="M3.73547 7.20302L3.33043 6.95067C2.56179 8.27039 2.1066 9.74901 2 11.2725H7.72618C7.77011 10.4282 7.88449 9.5889 8.06812 8.76359C6.54162 8.50893 5.07375 7.98024 3.73547 7.20302Z" fill="white"/>
<path d="M8.44157 16.6109C7.05288 16.8289 5.7153 17.2972 4.49391 17.993L4.1355 18.216C5.83551 20.3677 8.34383 21.7278 11.0745 21.9787C9.93569 20.3298 9.04834 18.5208 8.44157 16.6109Z" fill="white"/>
<path d="M12 3.20013C11.1128 4.56438 10.4023 6.03561 9.88525 7.57862C10.5878 7.65145 11.2936 7.68803 12 7.68829C12.7063 7.68803 13.4121 7.65141 14.1147 7.57862C13.5977 6.03561 12.8871 4.56438 12 3.20013Z" fill="white"/>
<path d="M19.5061 17.993C18.2847 17.2972 16.9472 16.8289 15.5585 16.6109C14.9511 18.5209 14.063 20.3299 12.9233 21.9786C15.6541 21.7278 18.1624 20.3676 19.8624 18.2159L19.5061 17.993Z" fill="white"/>
<path d="M4.13763 5.76366L4.4939 5.98589C5.71513 6.68225 7.05274 7.15079 8.44156 7.3687C9.04913 5.45855 9.93724 3.64933 11.0767 2.00026C8.34596 2.25169 5.83782 3.61199 4.13763 5.76366Z" fill="white"/>
<path d="M7.72618 12.7065H2C2.10648 14.2302 2.56166 15.7092 3.33048 17.0291L3.73551 16.7767C5.07405 16.0008 6.54187 15.4733 8.06812 15.2197C7.88419 14.393 7.76982 13.5523 7.72618 12.7065Z" fill="white"/>
</svg>
