<svg width="21" height="21" viewBox="0 0 21 21" fill="none" xmlns="http://www.w3.org/2000/svg">
<path d="M2.37122 13.8598V16.2078C2.37122 17.5395 3.45621 18.6258 4.78617 18.6258H7.13127L8.79369 20.2903C9.2487 20.7459 9.86121 21 10.5 21C11.1388 21 11.7513 20.7459 12.2063 20.2903L13.8687 18.6258H16.2138C17.5438 18.6258 18.6288 17.5395 18.6288 16.2078V13.8598L20.2912 12.1953C20.7462 11.7397 21 11.1264 21 10.4868C21 9.84726 20.7462 9.23398 20.2912 8.77855L18.6288 7.1139V4.76602C18.6288 3.43423 17.5438 2.34788 16.2138 2.34788H13.8687L12.2063 0.683381C11.2963 -0.227794 9.70372 -0.227794 8.79369 0.683381L7.13127 2.34788H4.78617C3.45621 2.34788 2.37122 3.43423 2.37122 4.76602V7.1139L0.708801 8.77855C0.253784 9.23398 0 9.84726 0 10.4868C0 11.1264 0.253784 11.7397 0.708801 12.1953L2.37122 13.8598ZM10.5 5.23027C10.8587 5.23027 11.1562 5.52816 11.1562 5.88734V15.0864C11.1562 15.4455 10.8587 15.7434 10.5 15.7434C7.45507 15.7434 5.25 13.5358 5.25 10.4868C5.25 7.4381 7.45507 5.23027 10.5 5.23027Z" fill="#8F90A3"/>
</svg>
