<svg width="16" height="16" viewBox="0 0 16 16" fill="none" xmlns="http://www.w3.org/2000/svg">
<path fill-rule="evenodd" clip-rule="evenodd" d="M13.9962 1.00426C13.9962 0.454602 14.446 0.00488281 14.9956 0.00488281C15.5453 0.00488281 15.995 0.454602 15.995 1.00426V5.00176C15.995 5.55142 15.5453 6.00114 14.9956 6.00114H10.9981C10.4485 6.00114 9.99874 5.55142 9.99874 5.00176C9.99874 4.4521 10.4485 4.00238 10.9981 4.00238H12.4572C11.3579 2.78315 9.76889 2.00363 7.99999 2.00363C4.69206 2.00363 2.00374 4.69195 2.00374 7.99989C2.00374 8.54954 1.55402 8.99926 1.00437 8.99926C0.454709 8.99926 0.00498962 8.54954 0.00498962 7.99989C0.00498962 3.58265 3.58275 0.00488281 7.99999 0.00488281C10.3985 0.00488281 12.5372 1.07421 13.9962 2.74317V1.00426ZM13.9962 7.99989C13.9962 7.45023 14.446 7.00051 14.9956 7.00051C15.5453 7.00051 15.995 7.45023 15.995 7.99989C15.995 12.4171 12.4172 15.9949 7.99999 15.9949C5.60149 15.9949 3.46283 14.9256 2.00374 13.2566V14.9955C2.00374 15.5452 1.55402 15.9949 1.00437 15.9949C0.454709 15.9949 0.00498962 15.5452 0.00498962 14.9955V10.998C0.00498962 10.4484 0.454709 9.99864 1.00437 9.99864H5.00187C5.55152 9.99864 6.00124 10.4484 6.00124 10.998C6.00124 11.5477 5.55152 11.9974 5.00187 11.9974H3.54278C4.64209 13.2166 6.2311 13.9961 7.99999 13.9961C11.3079 13.9961 13.9962 11.3078 13.9962 7.99989Z" fill="black"/>
<mask id="mask0" mask-type="alpha" maskUnits="userSpaceOnUse" x="0" y="0" width="16" height="16">
<path fill-rule="evenodd" clip-rule="evenodd" d="M13.9962 1.00426C13.9962 0.454602 14.446 0.00488281 14.9956 0.00488281C15.5453 0.00488281 15.995 0.454602 15.995 1.00426V5.00176C15.995 5.55142 15.5453 6.00114 14.9956 6.00114H10.9981C10.4485 6.00114 9.99874 5.55142 9.99874 5.00176C9.99874 4.4521 10.4485 4.00238 10.9981 4.00238H12.4572C11.3579 2.78315 9.76889 2.00363 7.99999 2.00363C4.69206 2.00363 2.00374 4.69195 2.00374 7.99989C2.00374 8.54954 1.55402 8.99926 1.00437 8.99926C0.454709 8.99926 0.00498962 8.54954 0.00498962 7.99989C0.00498962 3.58265 3.58275 0.00488281 7.99999 0.00488281C10.3985 0.00488281 12.5372 1.07421 13.9962 2.74317V1.00426ZM13.9962 7.99989C13.9962 7.45023 14.446 7.00051 14.9956 7.00051C15.5453 7.00051 15.995 7.45023 15.995 7.99989C15.995 12.4171 12.4172 15.9949 7.99999 15.9949C5.60149 15.9949 3.46283 14.9256 2.00374 13.2566V14.9955C2.00374 15.5452 1.55402 15.9949 1.00437 15.9949C0.454709 15.9949 0.00498962 15.5452 0.00498962 14.9955V10.998C0.00498962 10.4484 0.454709 9.99864 1.00437 9.99864H5.00187C5.55152 9.99864 6.00124 10.4484 6.00124 10.998C6.00124 11.5477 5.55152 11.9974 5.00187 11.9974H3.54278C4.64209 13.2166 6.2311 13.9961 7.99999 13.9961C11.3079 13.9961 13.9962 11.3078 13.9962 7.99989Z" fill="white"/>
</mask>
<g mask="url(#mask0)">
<rect width="16" height="16" fill="url(#paint0_linear)"/>
</g>
<defs>
<linearGradient id="paint0_linear" x1="8" y1="16" x2="8" y2="3.38381e-07" gradientUnits="userSpaceOnUse">
<stop stop-color="#3A6DED"/>
<stop offset="1" stop-color="#5582FF"/>
</linearGradient>
</defs>
</svg>
