<svg width="18" height="20" viewBox="0 0 18 20" fill="none" xmlns="http://www.w3.org/2000/svg">
<path d="M11.5714 1.13281V0.625C11.5714 0.3125 11.25 0 10.9286 0H6.42857C6.06696 0 5.78571 0.3125 5.78571 0.625V1.25C5.78571 1.60156 6.06696 1.875 6.42857 1.875H8.75893L5.42411 5.54688C5.26339 5.74219 5.14286 6.13281 5.14286 6.36719V6.875C5.14286 7.22656 5.42411 7.5 5.78571 7.5H10.2857C10.6071 7.5 10.9286 7.22656 10.9286 6.875V6.25C10.9286 5.9375 10.6071 5.625 10.2857 5.625H7.91518L11.25 1.99219C11.4107 1.79688 11.5313 1.40625 11.5714 1.13281ZM8.03572 10H1.28571C0.924107 10 0.642857 10.3125 0.642857 10.625V11.875C0.642857 12.2266 0.924107 12.5 1.28571 12.5H5.26339L0.361607 17.2266C0.160714 17.4219 0 17.8125 0 18.0859V19.0625C0 19.6094 0.401786 20 0.964286 20H8.35714C8.67857 20 9 19.7266 9 19.375V18.125C9 17.8125 8.67857 17.5 8.35714 17.5H3.69643L8.59822 12.8125C8.79911 12.6172 8.95982 12.2266 9 11.9531V10.9375C9 10.4297 8.55804 10 8.03572 10ZM17.3571 8.75H12.8571C12.4955 8.75 12.2143 9.0625 12.2143 9.375V10C12.2143 10.3516 12.4955 10.625 12.8571 10.625H15.1875L11.8527 14.2969C11.692 14.4922 11.5714 14.8828 11.5714 15.1172V15.625C11.5714 15.9766 11.8527 16.25 12.2143 16.25H16.7143C17.0357 16.25 17.3571 15.9766 17.3571 15.625V15C17.3571 14.6875 17.0357 14.375 16.7143 14.375H14.3438L17.6786 10.7422C17.8393 10.5469 17.9598 10.1563 18 9.88281V9.375C18 9.0625 17.6786 8.75 17.3571 8.75Z" fill="url(#paint0_linear)"/>
<defs>
<linearGradient id="paint0_linear" x1="18" y1="0" x2="-2.6491e-07" y2="20" gradientUnits="userSpaceOnUse">
<stop stop-color="#A9CEFF"/>
<stop offset="1" stop-color="#628CFF"/>
</linearGradient>
</defs>
</svg>
