<svg width="160" height="122" viewBox="0 0 160 122" fill="none" xmlns="http://www.w3.org/2000/svg">
<path d="M82.616 96.7299C81.9102 96.3218 80.3959 95.875 78.1938 97.472C76.8781 98.4264 75.5912 99.9264 74.5699 101.696C73.5484 103.466 72.8936 105.332 72.7257 106.949C72.4444 109.655 73.5877 110.744 74.2946 111.152C74.7142 111.395 75.2028 111.521 75.7386 111.521C77.6663 111.521 80.2029 109.89 82.34 106.186C83.3615 104.416 84.0163 102.55 84.1842 100.933C84.4655 98.2271 83.3226 97.138 82.616 96.7299ZM81.4175 100.646C81.2912 101.864 80.7492 103.376 79.9313 104.794C78.1444 107.891 76.055 108.955 75.6851 108.742C75.6339 108.712 75.3812 108.309 75.4924 107.237C75.6186 106.018 76.1607 104.506 76.9786 103.088C77.7964 101.671 78.8343 100.445 79.8256 99.726C80.5263 99.218 80.9706 99.1292 81.1452 99.1292C81.188 99.1292 81.2144 99.1348 81.2248 99.1404C81.2763 99.17 81.5291 99.5732 81.4175 100.646Z" fill="#38394E"/>
<path d="M143.725 60.8259C143.019 60.4178 141.504 59.9714 139.303 61.568C137.987 62.5221 136.7 64.0223 135.679 65.7923C132.948 70.5263 133.473 74.1326 135.404 75.2481C135.73 75.4367 136.228 75.6329 136.886 75.6329C137.655 75.6329 138.641 75.3654 139.826 74.5056C141.142 73.5516 142.429 72.0513 143.45 70.2813C144.471 68.5114 145.126 66.6461 145.294 65.0289C145.575 62.3227 144.432 61.234 143.725 60.8259ZM142.527 64.7415C142.4 65.96 141.859 67.4721 141.041 68.8899C140.223 70.3078 139.185 71.5332 138.194 72.2524C137.321 72.8849 136.846 72.8668 136.795 72.838C136.427 72.6257 136.301 70.2824 138.089 67.1844C138.907 65.7665 139.944 64.5411 140.936 63.8219C141.636 63.3143 142.08 63.2252 142.255 63.2252C142.298 63.2252 142.324 63.2305 142.334 63.2364C142.386 63.2659 142.639 63.6692 142.527 64.7415Z" fill="#38394E"/>
<path d="M159.304 33.861L114.578 8.02341C114.257 7.83796 113.875 7.78855 113.517 7.88562L106.392 9.82327L89.8147 0.188278C89.3846 -0.0618868 88.853 -0.0629308 88.4215 0.18619L39.9791 28.1378C39.7103 28.293 39.5006 28.5338 39.3845 28.8219L30.6249 50.5027L0.448203 72.0746C0.16273 72.338 0 72.7089 0 73.0979V93.2815C0 93.7787 0.265305 94.2383 0.695427 94.4868L48.0019 121.813C48.2171 121.938 48.4574 122 48.6973 122C48.9372 122 49.1775 121.938 49.3927 121.813C49.4212 121.797 65.9884 112.159 65.9884 112.159C66.5312 114.906 67.9126 117.136 70.1098 118.405C71.3164 119.102 72.6693 119.449 74.1113 119.449C75.8426 119.449 77.7021 118.949 79.5888 117.952C82.8368 116.236 85.8219 113.218 87.9945 109.452C90.1673 105.686 91.2873 101.59 91.1482 97.9181C91.1444 97.8179 91.1357 97.7212 91.1301 97.622L127.223 76.7327C127.835 79.3349 129.208 81.3387 131.219 82.5008C132.454 83.214 133.822 83.5533 135.254 83.5533C140.026 83.5533 145.505 79.7865 149.104 73.5481C151.896 68.7108 152.834 63.6382 152.003 59.6753L159.116 53.7117C159.423 53.4542 159.604 53.0763 159.613 52.6755L160 35.0969C160.01 34.5889 159.744 34.115 159.304 33.861ZM113.688 10.7237L155.465 34.8571L145.073 39.1409L137.472 28.0414C137.362 27.864 137.215 27.7126 137.04 27.5999C136.938 27.5338 109.772 11.7887 109.772 11.7887L113.688 10.7237ZM88.9618 57.7574L106.104 47.841V61.4671L81.7871 75.515L88.9618 57.7574ZM108.885 46.2318L127.547 35.4364L130.307 47.4843L108.885 59.8597V46.2318ZM132.828 46.0286L130.067 33.9789L135.868 30.6231L142.566 40.4032L132.828 46.0286ZM89.1141 2.99993L133.483 28.7878L87.8324 55.1956L43.2702 29.4523L89.1141 2.99993ZM41.2931 31.5239L86.1015 57.4109L78.3979 76.477L33.5902 50.5893L41.2931 31.5239ZM32.0432 52.9097L76.7251 78.7246L48.6204 98.7733L4.08529 72.8571L32.0432 52.9097ZM65.7293 109.085L50.0878 118.243V114.062L66.3486 104.65C65.9585 106.178 65.7533 107.67 65.7293 109.085ZM2.78171 75.3187L47.3064 101.229V110.983L2.78171 85.0727V75.3187ZM2.78171 92.4778V88.2925L47.3064 114.202V118.197L2.78171 92.4778ZM85.5855 108.06C83.6713 111.378 81.0805 114.017 78.2905 115.49C75.7091 116.853 73.298 117.033 71.501 115.994C67.6362 113.762 67.5555 106.355 71.3251 99.822C74.3391 94.5981 79.0666 91.2284 82.8163 91.2284C83.7565 91.2284 84.6352 91.4402 85.4103 91.8877C87.2076 92.9259 88.258 95.105 88.369 98.0235C88.4879 101.179 87.4997 104.743 85.5855 108.06ZM146.695 72.1563C142.925 78.6906 136.474 82.3237 132.61 80.0903C130.813 79.0521 129.762 76.8729 129.651 73.9548C129.532 70.7998 130.52 67.2352 132.434 63.9176C134.348 60.6004 136.939 57.9617 139.729 56.4878C141.203 55.7092 142.622 55.317 143.902 55.317C144.864 55.317 145.748 55.5387 146.519 55.984C150.384 58.2167 150.465 65.6228 146.695 72.1563ZM151.018 56.8699C150.289 55.4806 149.251 54.348 147.91 53.5732C145.255 52.0388 141.889 52.1999 138.431 54.0262C135.183 55.7419 132.198 58.7602 130.025 62.5259C127.918 66.1775 126.805 70.1383 126.866 73.7238L90.6493 94.6851C89.9792 92.3557 88.6652 90.5548 86.8008 89.4775C81.4505 86.3882 73.595 90.3203 68.9158 98.4306C68.5013 99.1487 68.1299 99.8724 67.7968 100.596L50.0881 110.846V101.145L79.7443 79.9894C79.8312 79.9275 79.908 79.8537 79.9779 79.774L145.178 42.1081L157.172 37.1636L156.846 51.9831L151.018 56.8699Z" fill="#38394E"/>
<path d="M5.22127 83.3445L12.5232 87.5963V83.5707L5.22127 79.3189V83.3445Z" fill="#38394E"/>
<path d="M37.5586 98.4553V102.481L44.8606 106.733V102.707L37.5586 98.4553Z" fill="#38394E"/>
</svg>
