<svg width="7" height="29" viewBox="0 0 7 29" fill="none" xmlns="http://www.w3.org/2000/svg">
<path d="M3.5 11.125C1.60156 11.125 0.125 12.6719 0.125 14.5C0.125 16.3984 1.60156 17.875 3.5 17.875C5.32812 17.875 6.875 16.3984 6.875 14.5C6.875 12.6719 5.32812 11.125 3.5 11.125ZM0.125 3.8125C0.125 5.71094 1.60156 7.1875 3.5 7.1875C5.32812 7.1875 6.875 5.71094 6.875 3.8125C6.875 1.98438 5.32812 0.4375 3.5 0.4375C1.60156 0.4375 0.125 1.98438 0.125 3.8125ZM0.125 25.1875C0.125 27.0859 1.60156 28.5625 3.5 28.5625C5.32812 28.5625 6.875 27.0859 6.875 25.1875C6.875 23.3594 5.32812 21.8125 3.5 21.8125C1.60156 21.8125 0.125 23.3594 0.125 25.1875Z" fill="#8F90A3"/>
</svg>
