<svg width="160" height="122" viewBox="0 0 160 122" fill="none" xmlns="http://www.w3.org/2000/svg">
<path d="M82.6167 96.7281C80.6859 95.6126 77.3023 96.9612 74.5707 101.695C73.5491 103.465 72.8943 105.33 72.7264 106.948C72.4451 109.654 73.5884 110.743 74.2949 111.151C74.715 111.394 75.2035 111.52 75.7397 111.52C77.667 111.52 80.2036 109.889 82.3406 106.185C83.3622 104.415 84.0169 102.549 84.1849 100.932C84.4662 98.2253 83.3233 97.1366 82.6167 96.7281ZM81.4182 100.644C81.2919 101.863 80.7498 103.375 79.932 104.793C78.1444 107.891 76.0536 108.951 75.6858 108.741C75.6347 108.711 75.3819 108.308 75.4931 107.235C75.6194 106.017 76.1614 104.504 76.9793 103.087C78.6215 100.241 80.52 99.1132 81.1024 99.1132C81.1539 99.1132 81.1956 99.1219 81.2255 99.1393C81.277 99.1685 81.5298 99.5714 81.4182 100.644Z" fill="#38394E"/>
<path d="M143.726 60.8243C143.02 60.4162 141.505 59.9698 139.303 61.5665C137.988 62.5205 136.701 64.0208 135.68 65.7908C134.658 67.5607 134.004 69.426 133.835 71.0432C133.554 73.7498 134.698 74.8385 135.404 75.2466C135.73 75.4352 136.228 75.6314 136.887 75.6314C137.655 75.6314 138.641 75.3638 139.826 74.5041C141.142 73.5501 142.429 72.0498 143.45 70.2798C144.472 68.5099 145.126 66.6446 145.295 65.0274C145.576 62.3212 144.432 61.2321 143.726 60.8243ZM142.527 64.7396C142.401 65.9581 141.859 67.4702 141.041 68.8881C140.224 70.3059 139.186 71.5313 138.194 72.2505C137.32 72.8838 136.847 72.8664 136.795 72.8361C136.744 72.8065 136.492 72.4036 136.603 71.3309C136.729 70.1125 137.271 68.6 138.089 67.1825C138.907 65.7647 139.944 64.5392 140.936 63.8201C141.636 63.3124 142.08 63.2234 142.255 63.2234C142.298 63.2234 142.324 63.2286 142.335 63.2345C142.386 63.2644 142.639 63.6673 142.527 64.7396Z" fill="#38394E"/>
<path d="M159.304 33.859L114.578 8.02138C114.257 7.83593 113.875 7.78653 113.518 7.8836L106.393 9.82125L105.597 9.35884V5.69439C105.597 5.19719 105.332 4.73757 104.902 4.48914C104.893 4.48358 104.882 4.4801 104.873 4.47488L104.874 4.47314L99.1695 1.35112C98.7432 1.11766 98.2266 1.12392 97.8065 1.36678L94.8151 3.09497L89.8168 0.188322C89.3867 -0.0618432 88.8547 -0.062887 88.4232 0.185887L39.9803 28.1355C39.7115 28.2907 39.5018 28.5315 39.3857 28.8195L30.6258 50.5025L0.447853 72.0741C0.162729 72.3379 0 72.7091 0 73.0977V93.2815C0 93.7787 0.265304 94.2383 0.695424 94.4867L48.0016 121.814C48.2169 121.938 48.4571 122 48.6971 122C48.937 122 49.1773 121.938 49.3925 121.814C49.4213 121.797 65.9891 112.157 65.9891 112.157C66.5319 114.905 67.9134 117.134 70.1106 118.404C71.3171 119.101 72.6701 119.448 74.112 119.448C75.8433 119.448 77.7029 118.947 79.5895 117.95C82.8375 116.235 85.8226 113.216 87.9951 109.45C90.168 105.685 91.288 101.588 91.1489 97.9163C91.1451 97.8161 91.1364 97.7194 91.1308 97.6202L127.207 76.7406C127.812 79.2632 129.154 81.3059 131.22 82.4989C132.454 83.2122 133.822 83.5515 135.254 83.5515C140.026 83.5515 145.505 79.7844 149.104 73.5462C151.896 68.7089 152.834 63.6363 152.003 59.6734L159.116 53.7098C159.423 53.4523 159.604 53.0744 159.613 52.6736L160 35.0949C160.011 34.5869 159.744 34.113 159.304 33.859ZM113.689 10.7217L155.465 34.8552L145.074 39.1389L137.475 28.0419C137.301 27.7604 137.033 27.5447 136.711 27.4431L109.774 11.7864L113.689 10.7217ZM88.9632 57.7556L106.105 47.8405V61.4656L81.7888 75.5128L88.9632 57.7556ZM108.886 46.2313L127.548 35.4366L130.308 47.4828L108.886 59.8581V46.2313H108.886ZM132.828 46.027L130.068 33.9791L135.869 30.6229L142.566 40.4012L132.828 46.027ZM98.5207 4.16905L101.368 5.72745L73.5428 21.8027L70.6954 20.2443L98.5207 4.16905ZM102.816 8.10489V20.6187L74.9518 36.7163V24.2024L102.816 8.10489ZM69.2475 35.1798V22.6246L72.1701 24.224V36.7793L69.2475 35.1798ZM89.1158 2.99998L92.0387 4.69965L67.1616 19.0718C66.7315 19.3202 66.4662 19.7798 66.4662 20.277V36.0051C66.4662 36.5138 66.7437 36.9821 67.1894 37.226L72.8936 40.348L72.8947 40.3463C73.1026 40.4601 73.3318 40.5185 73.5612 40.5185C73.8012 40.5185 74.0414 40.4562 74.2567 40.332L104.902 22.6273C105.332 22.3789 105.598 21.9193 105.598 21.4221V12.5783L133.485 28.7875L87.8334 55.1941L43.2714 29.4507L89.1158 2.99998ZM41.2946 31.5226L86.1025 57.4094L78.399 76.4758L33.5921 50.5881L41.2946 31.5226ZM32.0455 52.9088L76.7272 78.7242L48.6223 98.7726L4.08701 72.8559L32.0455 52.9088ZM65.7301 109.084L50.0876 118.242V114.06L66.3494 104.648C65.9592 106.176 65.7541 107.669 65.7301 109.084ZM2.7817 75.3162L47.3062 101.226V110.98L2.7817 85.0705V75.3162ZM2.7817 92.4781V88.2903L47.3062 114.2V118.198L2.7817 92.4781ZM85.5862 108.059C83.672 111.377 81.0812 114.015 78.2912 115.489C75.7098 116.852 73.2987 117.032 71.5018 115.993C67.6369 113.76 67.5563 106.354 71.3258 99.8205C73.24 96.503 75.8308 93.8643 78.6208 92.3904C80.0948 91.6121 81.5131 91.2196 82.7937 91.2196C83.7555 91.2196 84.6397 91.4409 85.4102 91.8866C87.2076 92.9248 88.2583 95.1039 88.3689 98.0221C88.4885 101.177 87.5003 104.741 85.5862 108.059ZM146.696 72.1545C142.926 78.688 136.475 82.3212 132.61 80.0888C128.746 77.8558 128.665 70.4496 132.434 63.9161C136.205 57.3822 142.656 53.7494 146.52 55.9821C150.384 58.2148 150.465 65.621 146.696 72.1545ZM151.018 56.8683C150.289 55.479 149.252 54.3465 147.91 53.5716C142.562 50.4813 134.706 54.4133 130.026 62.5243C127.827 66.3356 126.777 70.2934 126.837 73.739L90.6496 94.6833C89.9795 92.3539 88.6655 90.5529 86.8011 89.4757C84.146 87.9417 80.7801 88.1028 77.3221 89.9288C74.0741 91.6444 71.089 94.6631 68.9165 98.4288C68.502 99.1469 68.1307 99.8706 67.7976 100.595L50.0879 110.845V101.145L79.7453 79.9896C79.834 79.9263 79.9119 79.8515 79.9824 79.7701L145.178 42.1065L157.172 37.1623L156.846 51.9819L151.018 56.8683Z" fill="#38394E"/>
<path d="M5.22229 83.3427L12.5242 87.5945V83.5688L5.22229 79.3171V83.3427Z" fill="#38394E"/>
<path d="M37.5595 98.4535V102.479L44.8615 106.731V102.705L37.5595 98.4535Z" fill="#38394E"/>
<path d="M97.4856 12.8145L94.2073 14.7087V19.2489L97.4856 17.3547V12.8145Z" fill="#38394E"/>
<path d="M94.2073 19.2489L90.9288 21.1427V25.6829L94.2073 23.7887V19.2489Z" fill="#38394E"/>
<path d="M90.9166 16.5879L87.6384 18.482V23.0222L90.9166 21.1281V16.5879Z" fill="#38394E"/>
<path d="M84.3598 29.4563L87.6384 27.5621V23.0222L84.3598 24.9161V20.3863L81.0816 22.2801V26.8203L84.3598 24.9265V29.4563Z" fill="#38394E"/>
</svg>
