<svg width="30" height="30" viewBox="0 0 30 30" fill="none" xmlns="http://www.w3.org/2000/svg">
<path d="M29.5312 14.75C29.5312 6.72266 23.0273 0.21875 15 0.21875C6.97266 0.21875 0.46875 6.72266 0.46875 14.75C0.46875 22.7773 6.97266 29.2812 15 29.2812C23.0273 29.2812 29.5312 22.7773 29.5312 14.75ZM15 27.4062C8.02734 27.4062 2.34375 21.7812 2.34375 14.75C2.34375 7.83594 7.96875 2.09375 15 2.09375C21.9141 2.09375 27.6562 7.77734 27.6562 14.75C27.6562 21.7227 21.9727 27.4062 15 27.4062ZM14.2383 22.0156C14.5312 22.3086 14.9414 22.3086 15.2344 22.0156L15.6445 21.6055C15.9375 21.3125 15.9375 20.9023 15.6445 20.6094L10.6055 15.7461H21.7969C22.1484 15.7461 22.5 15.4531 22.5 15.043V14.457C22.5 14.1055 22.1484 13.7539 21.7969 13.7539H10.6055L15.6445 8.94922C15.9375 8.65625 15.9375 8.24609 15.6445 7.95312L15.2344 7.54297C14.9414 7.25 14.5312 7.25 14.2383 7.54297L7.5 14.2812C7.20703 14.5742 7.20703 14.9844 7.5 15.2773L14.2383 22.0156Z" fill="#8F90A3"/>
</svg>
