<svg width="57" height="57" viewBox="0 0 57 57" fill="none" xmlns="http://www.w3.org/2000/svg">
<path d="M33.9219 43.2031C39.3906 37.7344 39.3906 28.6562 33.9219 23.0781C32.5 21.7656 30.9688 20.7812 29.3281 20.0156C28.6719 19.7969 27.7969 20.125 27.5781 20.8906C27.4688 21.4375 27.3594 21.9844 27.25 22.5312C27.25 23.0781 27.5781 23.625 28.125 23.8438C29.2188 24.2812 30.2031 25.0469 31.0781 25.9219C35.125 29.8594 35.125 36.4219 31.1875 40.3594L31.0781 40.4688L22.4375 49.1094C18.3906 53.1562 11.9375 53.1562 7.89062 49.1094C3.84375 45.0625 3.84375 38.6094 7.89062 34.5625C7.89062 34.5625 14.3438 28.1094 16.0938 26.3594C16.4219 26.0312 16.5312 25.5938 16.5312 25.2656C16.4219 24.7188 16.4219 24.1719 16.4219 23.625C16.3125 22.5312 15 21.9844 14.125 22.75C14.0156 22.8594 13.9062 22.9688 13.7969 23.0781L5.15625 31.8281C-0.421875 37.2969 -0.421875 46.375 5.15625 51.8438C10.625 57.4219 19.7031 57.4219 25.1719 51.8438L33.9219 43.2031ZM23.9688 33.0312C25.3906 34.3438 26.9219 35.3281 28.5625 36.0938C29.2188 36.3125 30.0938 35.9844 30.3125 35.2188C30.4219 34.6719 30.5312 34.125 30.6406 33.5781C30.6406 33.0312 30.3125 32.4844 29.7656 32.2656C28.6719 31.8281 27.6875 31.0625 26.8125 30.1875C22.7656 26.25 22.7656 19.6875 26.7031 15.75L26.8125 15.6406L35.4531 7C39.5 2.95312 45.9531 2.95312 50 7C54.0469 11.0469 54.0469 17.5 50 21.5469C50 21.5469 43.5469 28 41.7969 29.75C41.4688 30.0781 41.3594 30.5156 41.3594 30.8438C41.4688 31.3906 41.4688 31.9375 41.4688 32.4844C41.5781 33.5781 42.8906 34.125 43.7656 33.3594C43.875 33.25 43.9844 33.1406 44.0938 33.0312L52.7344 24.2812C58.3125 18.8125 58.3125 9.73438 52.7344 4.26562C47.2656 -1.3125 38.1875 -1.3125 32.7188 4.26562L23.9688 12.9062C18.5 18.375 18.5 27.4531 23.9688 33.0312Z" fill="#38394E"/>
</svg>
