<svg width="28" height="22" viewBox="0 0 28 22" fill="none" xmlns="http://www.w3.org/2000/svg">
<path d="M26 7.4375V7.33395L25.9268 7.26072L21.2393 2.57322L21.1661 2.5H21.0625L3 2.5C2.43013 2.5 2 2.99706 2 3.5L2 18.5C2 19.0599 2.44005 19.5 3 19.5H25C25.5029 19.5 26 19.0699 26 18.5V7.4375ZM25 21.25H3C1.45057 21.25 0.250001 20.0494 0.250001 18.5L0.25 3.5C0.25 1.99489 1.45311 0.750001 3 0.750001L21.8964 0.75L27.75 6.60355V18.5C27.75 20.0469 26.5051 21.25 25 21.25ZM8.25 5.25V7.75H5.75V6.5C5.75 5.8361 6.29936 5.25 7 5.25H8.25ZM14.75 12.25V9.75H17.25V12.25H14.75ZM8.25 9.75V12.25L5.75 12.25V9.75L8.25 9.75ZM14.75 7.75V5.25H16C16.6588 5.25 17.25 5.8412 17.25 6.5V7.75H14.75ZM8.25 14.25V16.75H7C6.29432 16.75 5.75 16.2057 5.75 15.5V14.25L8.25 14.25ZM16 16.75H14.75L14.75 14.25H17.25V15.5C17.25 16.2006 16.6639 16.75 16 16.75ZM12.75 5.25L12.75 16.75H10.25L10.25 5.25H12.75Z" fill="#8F90A3" stroke="#323242" stroke-width="0.5"/>
</svg>
