<svg width="159" height="136" viewBox="0 0 159 136" fill="none" xmlns="http://www.w3.org/2000/svg">
<path d="M159 17.8465C159 17.3645 158.745 16.9186 158.33 16.6773L129.958 0.180965C129.543 -0.0603773 129.032 -0.0600407 128.618 0.180289L21.5559 62.3386C21.1409 62.5799 20.8852 63.0255 20.8848 63.5082V72.3805L3.81766 82.1749C3.46371 82.3781 3.22607 82.7302 3.16071 83.1275L0.0653594 101.902C0.0241327 102.033 0 102.17 0 102.31V118.157C0 118.639 0.25574 119.085 0.670353 119.326L29.0404 135.819C29.2478 135.94 29.4794 136 29.7107 136C29.942 136 30.1736 135.94 30.3811 135.819C30.3837 135.817 42.8087 128.709 42.8087 128.709C43.0387 130.426 43.83 131.845 45.1717 132.625C45.8662 133.029 46.6338 133.221 47.4338 133.221C49.9788 133.221 52.8486 131.278 54.7078 128.035C55.8173 126.1 56.3887 123.984 56.317 122.077C56.3023 121.683 56.252 121.311 56.1846 120.951L78.9726 107.703C79.2394 109.321 80.024 110.65 81.3081 111.397C82.0026 111.801 82.7701 111.993 83.5702 111.993C86.1152 111.992 88.985 110.05 90.8442 106.807C91.6034 105.484 92.1035 104.076 92.325 102.708C92.7175 103.348 93.2337 103.883 93.8849 104.262C94.5794 104.665 95.347 104.857 96.147 104.857C98.692 104.857 101.562 102.914 103.421 99.6721C104.531 97.7369 105.102 95.6206 105.031 93.7141C105.016 93.3347 104.969 92.9769 104.906 92.6299L106.374 91.777C106.789 91.5356 107.044 91.0901 107.044 90.6074V81.7722L115.311 76.9727C115.311 76.9727 123.014 81.4259 123.04 81.4408C123.246 81.5599 123.476 81.6193 123.706 81.6193C123.941 81.6193 124.175 81.5576 124.384 81.434L126.95 79.9195C127.224 81.5815 128.026 82.8713 129.277 83.5987C129.964 83.9987 130.729 84.1975 131.539 84.1975C132.482 84.1975 133.484 83.9281 134.493 83.3914C136.169 82.5003 137.703 80.9439 138.812 79.0088C139.591 77.6509 140.082 76.2534 140.299 74.9235C140.696 75.5642 141.213 76.0907 141.853 76.463C142.54 76.863 143.306 77.0618 144.116 77.0618C145.058 77.0618 146.06 76.7925 147.07 76.2558C148.745 75.3647 150.279 73.8083 151.389 71.8731C152.78 69.4455 153.259 66.8904 152.88 64.827L154.341 63.9777C154.756 63.7364 155.011 63.2908 155.011 62.8081V53.924L158.328 51.9984C158.744 51.757 158.999 51.3111 158.999 50.8284L159 17.8465ZM129.287 2.90898L154.977 17.8455L50.5956 78.4434L24.9083 63.5092L129.287 2.90898ZM23.5663 65.847L49.2545 80.7819V87.3292L23.5663 72.3919V65.847ZM22.2158 74.725L47.895 89.6569L32.8557 98.2854L7.17613 83.356L22.2158 74.725ZM21.2552 128.176L9.7962 121.513V116.466L21.2552 123.129V128.176ZM23.2663 121.18L9.12585 112.959C8.7109 112.718 8.19976 112.718 7.78514 112.959C7.37019 113.2 7.11479 113.646 7.11479 114.128V114.184L2.68141 111.499V104.649L28.37 119.585L28.3697 126.716L23.9366 124.031V122.349C23.9366 121.867 23.6809 121.421 23.2663 121.18ZM30.8644 103.809L4.95156 88.7431L5.48717 85.4916L31.3816 100.546L30.8644 103.809ZM30.4116 106.663L28.8158 116.726L2.83023 101.617L4.48265 91.5883L30.4116 106.663ZM34.0737 100.694L37.698 98.6152V112.611L31.6236 116.143L34.0737 100.694ZM2.68141 114.65L7.11479 117.335V119.955L2.68141 117.377V114.65ZM23.9366 129.735V127.182L28.3697 129.868V132.312L23.9366 129.735ZM44.3509 122.014C44.3505 122.014 44.3505 122.014 44.3509 122.014C43.6876 123.171 43.2381 124.355 42.983 125.504L31.0518 132.329V119.593L39.7094 114.559C40.1243 114.318 40.3797 113.872 40.3797 113.39V97.0767L49.2545 91.9849V117.352C49.0601 117.436 48.8654 117.527 48.67 117.631C46.9944 118.522 45.4603 120.079 44.3509 122.014ZM52.3854 126.685C50.6073 129.786 47.8629 131.072 46.5124 130.287C45.1617 129.501 44.8952 126.465 46.673 123.364C47.521 121.885 48.7052 120.666 49.9218 120.019C50.5201 119.701 51.6564 119.246 52.5463 119.762C53.4362 120.28 53.6118 121.499 53.6376 122.179C53.6892 123.564 53.2331 125.206 52.3854 126.685ZM53.8867 117.424C53.2884 117.076 52.6301 116.883 51.9356 116.838V113.765L66.1846 105.493V112.019L55.0896 118.47C54.7507 118.052 54.3535 117.695 53.8867 117.424ZM88.5214 105.457C86.7433 108.558 83.9992 109.843 82.6485 109.058C81.2977 108.273 81.0312 105.236 82.809 102.135C83.6567 100.657 84.8409 99.4375 86.0576 98.7907C86.4604 98.5764 87.107 98.3 87.7582 98.3C88.074 98.3 88.3911 98.3651 88.6817 98.5339C89.5715 99.0513 89.7475 100.271 89.773 100.951C89.8256 102.336 89.3694 103.978 88.5214 105.457ZM101.098 98.3216C99.3202 101.422 96.5761 102.708 95.2253 101.923C93.8742 101.138 93.6081 98.1012 95.3859 95.0002C96.2335 93.5214 97.4177 92.3022 98.6344 91.6555C99.0373 91.4411 99.6838 91.1647 100.335 91.1647C100.651 91.1647 100.968 91.2298 101.258 91.3986C102.148 91.916 102.324 93.1352 102.35 93.8157C102.402 95.2007 101.946 96.8428 101.098 98.3216ZM104.362 89.8273L103.829 90.1375C103.485 89.7062 103.078 89.3386 102.6 89.0601C101.113 88.195 99.2605 88.2689 97.3828 89.267C95.7073 90.1581 94.1735 91.7145 93.0638 93.6497C92.3894 94.8257 91.9366 96.0303 91.6838 97.1965L91.3483 97.3916C90.9867 96.9059 90.5459 96.4995 90.023 96.1954C88.5362 95.3306 86.6837 95.4042 84.806 96.4023C83.1305 97.2934 81.5967 98.8498 80.4873 100.785C79.7747 102.028 79.3078 103.303 79.0654 104.531L68.866 110.46V103.936L104.362 83.3283L104.362 89.8273ZM117.994 75.4146L122.365 72.8773V77.956L117.994 75.4146ZM136.49 77.6586C135.642 79.1374 134.458 80.3566 133.241 81.0033C132.643 81.3213 131.507 81.777 130.617 81.2602C129.727 80.7427 129.551 79.5235 129.526 78.843C129.473 77.4581 129.93 75.816 130.777 74.3372C132.556 71.2365 135.299 69.9505 136.65 70.7356C138.002 71.5211 138.268 74.5576 136.49 77.6586ZM149.067 70.523C148.219 72.0017 147.035 73.221 145.818 73.8677C145.22 74.1853 144.084 74.6413 143.194 74.1245C142.304 73.6071 142.128 72.3879 142.102 71.7074C142.05 70.3225 142.507 68.6803 143.354 67.2016C145.132 64.1009 147.876 62.8142 149.227 63.6C150.578 64.3858 150.844 67.4223 149.067 70.523ZM152.331 62.0287L151.796 62.3393C151.456 61.9106 151.05 61.542 150.568 61.2615C147.664 59.5731 143.476 61.5899 141.033 65.8514C140.376 66.997 139.913 68.2058 139.655 69.3969L139.318 69.5931C138.96 69.1107 138.519 68.7036 137.992 68.3971C135.088 66.7088 130.899 68.7256 128.456 72.987C127.761 74.1998 127.277 75.4835 127.03 76.7425L125.047 77.9128V71.3206L152.331 55.4808V62.0287H152.331ZM51.9356 110.648V80.7822L156.319 20.1834V50.0484L51.9356 110.648Z" fill="#38394E"/>
</svg>
