<svg width="49" height="16" viewBox="0 0 49 16" fill="none" xmlns="http://www.w3.org/2000/svg">
<path d="M18.0506 6.34437H17.5197L13.9029 1.81829C13.5379 1.34892 12.8079 0.980131 12.2439 0.980131H5.67398C4.81127 0.980131 4.01492 1.51656 3.68311 2.35472L2.1236 6.34437C0.929073 6.34437 0 7.31664 0 8.49007V12.245C0 12.5468 0.232268 12.7815 0.530899 12.7815H2.1236C2.1236 14.5919 3.51721 16 5.30899 16C7.06759 16 8.49438 14.5919 8.49438 12.7815H12.7416C12.7416 14.5919 14.1352 16 15.927 16C17.6856 16 19.1124 14.5919 19.1124 12.7815H20.7051C20.9705 12.7815 21.236 12.5468 21.236 12.245V9.56291C21.236 7.78601 19.8092 6.34437 18.0506 6.34437ZM9.55618 2.05298H12.2439C12.5757 2.05298 12.8743 2.22061 13.0734 2.48882L16.1592 6.34437H9.55618V2.05298ZM4.67855 2.75704C4.84445 2.32119 5.24263 2.05298 5.67398 2.05298H8.49438V6.34437H3.25176L4.67855 2.75704ZM5.30899 14.9272C4.11447 14.9272 3.18539 13.9884 3.18539 12.7815C3.18539 11.608 4.11447 10.6358 5.30899 10.6358C6.47033 10.6358 7.43258 11.608 7.43258 12.7815C7.43258 13.9884 6.47033 14.9272 5.30899 14.9272ZM15.927 14.9272C14.7324 14.9272 13.8034 13.9884 13.8034 12.7815C13.8034 11.608 14.7324 10.6358 15.927 10.6358C17.0883 10.6358 18.0506 11.608 18.0506 12.7815C18.0506 13.9884 17.0883 14.9272 15.927 14.9272ZM20.1742 11.7086H18.9133C18.4487 10.4681 17.2874 9.56291 15.927 9.56291C14.5334 9.56291 13.372 10.4681 12.9075 11.7086H8.29529C7.83076 10.4681 6.66942 9.56291 5.30899 9.56291C3.91538 9.56291 2.75404 10.4681 2.2895 11.7086H1.0618V8.49007C1.0618 7.92012 1.52633 7.41722 2.1236 7.41722H18.0506C19.2119 7.41722 20.1742 8.38948 20.1742 9.56291V11.7086Z" fill="url(#paint0_linear)"/>
<path d="M28.1966 14.2119C28.1966 13.642 27.6989 13.1391 27.1348 13.1391C26.5376 13.1391 26.073 13.642 26.073 14.2119C26.073 14.8154 26.5376 15.2848 27.1348 15.2848C27.6989 15.2848 28.1966 14.8154 28.1966 14.2119ZM31.1166 13.1391C30.5193 13.1391 30.0548 13.642 30.0548 14.2119C30.0548 14.8154 30.5193 15.2848 31.1166 15.2848C31.6807 15.2848 32.1784 14.8154 32.1784 14.2119C32.1784 13.642 31.6807 13.1391 31.1166 13.1391ZM23.1531 13.1391C22.5558 13.1391 22.0913 13.642 22.0913 14.2119C22.0913 14.8154 22.5558 15.2848 23.1531 15.2848C23.7172 15.2848 24.2149 14.8154 24.2149 14.2119C24.2149 13.642 23.7172 13.1391 23.1531 13.1391Z" fill="url(#paint1_linear)"/>
<path d="M47.5006 3.03196C46.7821 3.31319 45.9386 3.56318 45.0952 3.71942V6.00055C45.9386 5.8443 46.6884 5.56307 47.5006 5.25059V3.03196ZM47.5006 9.6566V7.43797C46.9695 7.7817 46.0324 8.12543 45.0952 8.25042V10.5003C46.0324 10.3753 46.907 10.0316 47.5006 9.6566ZM35.505 5.8443C36.0048 5.53182 36.942 5.18809 37.8791 5.0631V2.78197C36.942 2.87572 36.0673 3.2507 35.505 3.62567V5.8443ZM35.505 10.0003C36.2235 9.78159 37.0669 9.5941 37.8791 9.50035V7.28173C37.0669 7.34422 36.2547 7.53171 35.505 7.7817V10.0003ZM42.6898 8.03168C41.9089 7.81295 41.1279 7.53171 40.2845 7.34422V9.5316C41.1592 9.6566 41.9089 9.96908 42.6898 10.1878V8.03168C43.5333 8.28167 44.2518 8.34417 45.0952 8.25042V6.00055C44.3142 6.12554 43.5645 6.09429 42.6898 5.9068V8.03168ZM47.9067 1.18831C46.7821 1.71953 45.2201 2.34449 43.7519 2.34449C41.9714 2.34449 40.5656 1.2508 38.3789 1.2508C37.5043 1.2508 36.6921 1.43829 35.9736 1.71953C36.0985 0.78208 35.3488 -0.0303757 34.4429 0.000872627C33.6619 0.0321209 33.0372 0.657087 33.0059 1.43829C32.9435 2.12576 33.3808 2.71947 34.0056 2.93821V15.625C34.0056 15.8438 34.1618 16 34.3804 16H34.6303C34.8178 16 35.0052 15.8438 35.0052 15.625V11.844C35.9736 11.3753 37.2544 10.9378 39.2224 10.9378C41.003 10.9378 42.4087 12.0002 44.5954 12.0002C46.1885 12.0002 47.4693 11.469 48.6564 10.6565C48.875 10.5315 49 10.3128 49 10.0628V1.87577C49 1.3133 48.4065 0.96957 47.9067 1.18831ZM34.5054 2.12576C34.1618 2.12576 33.8806 1.84452 33.8806 1.50079C33.8806 1.15706 34.1618 0.875825 34.5054 0.875825C34.849 0.875825 35.1301 1.15706 35.1301 1.50079C35.1301 1.84452 34.849 2.12576 34.5054 2.12576ZM48.0004 9.93783C47.2506 10.4378 45.9699 11.0003 44.5954 11.0003C42.5961 11.0003 41.2216 9.93783 39.2224 9.93783C37.7854 9.93783 36.0361 10.2503 35.0052 10.7503V3.34444C35.7237 2.81322 37.0045 2.25075 38.3789 2.25075C40.3782 2.25075 41.7527 3.34444 43.7519 3.34444C45.1889 3.34444 46.9383 2.75072 48.0004 2.25075V9.93783ZM42.6898 3.75067C41.8152 3.59443 41.0654 3.31319 40.2845 3.09445V5.21934C41.0654 5.40683 41.8464 5.71931 42.6898 5.9068V3.75067ZM37.8791 5.0631V7.28173C38.9725 7.15673 39.6597 7.21923 40.2845 7.34422V5.21934C39.3473 4.96935 38.6913 4.9381 37.8791 5.0631Z" fill="url(#paint2_linear)"/>
<defs>
<linearGradient id="paint0_linear" x1="21.7059" y1="-0.941177" x2="21.7059" y2="16" gradientUnits="userSpaceOnUse">
<stop stop-color="#25BDBB"/>
<stop offset="1" stop-color="#0CE091"/>
</linearGradient>
<linearGradient id="paint1_linear" x1="21.7059" y1="-0.941177" x2="21.7059" y2="16" gradientUnits="userSpaceOnUse">
<stop stop-color="#25BDBB"/>
<stop offset="1" stop-color="#0CE091"/>
</linearGradient>
<linearGradient id="paint2_linear" x1="21.7059" y1="-0.941177" x2="21.7059" y2="16" gradientUnits="userSpaceOnUse">
<stop stop-color="#25BDBB"/>
<stop offset="1" stop-color="#0CE091"/>
</linearGradient>
</defs>
</svg>
