<svg width="160" height="146" viewBox="0 0 160 146" fill="none" xmlns="http://www.w3.org/2000/svg">
<path d="M159.304 30.6996L106.312 0.186129C105.881 -0.0618693 105.349 -0.0622166 104.918 0.186129L30.9646 42.7661C30.5334 43.0141 30.268 43.4729 30.268 43.9693V65.4162L15.5145 73.7846C15.3146 73.8978 15.022 74.2382 15.022 74.2382L0.211774 97.8814C0.0731456 98.1023 0 98.3573 0 98.6174V121.168C0 121.664 0.265414 122.123 0.696276 122.371L40.9956 145.59C41.2113 145.714 41.4519 145.776 41.6926 145.776C41.933 145.776 42.1736 145.714 42.3892 145.59C42.4728 145.542 51.2183 140.535 51.2183 140.535C51.7707 142.584 52.9065 144.17 54.5405 145.111C55.5711 145.704 56.7251 146 57.9525 146C59.4154 146 60.9828 145.58 62.5698 144.745C65.2793 143.319 67.7673 140.813 69.5754 137.69C71.2852 134.736 72.2103 131.535 72.2079 128.614C72.2079 128.614 79.0582 124.724 79.1191 124.682C79.1191 124.682 83.892 127.455 83.96 127.494C84.1756 127.618 84.4159 127.68 84.6566 127.68C84.8969 127.68 85.1376 127.618 85.3532 127.494L118.649 108.325C119.259 110.082 120.334 111.457 121.78 112.29C122.811 112.884 123.965 113.179 125.193 113.179C126.656 113.179 128.223 112.76 129.81 111.925C132.52 110.498 135.007 107.993 136.814 104.87C138.412 102.113 139.326 99.1245 139.435 96.3594L159.303 84.9213C159.734 84.6729 160 84.2144 160 83.7181V31.9025C160 31.4068 159.735 30.948 159.304 30.6996ZM105.615 2.99365L155.821 31.9025L84.6569 72.8715L34.4477 43.9689L105.615 2.99365ZM33.0545 46.3756L83.2637 75.2782V123.86L79.7179 121.818V85.8153C79.7179 85.319 79.4521 84.8601 79.0212 84.6121L38.718 61.4135C38.2896 61.1669 37.7623 61.1655 37.3328 61.409L33.0548 63.8355L33.0545 46.3756ZM38.0162 64.2179L75.5224 85.8063L56.5081 96.5928L19.0053 75.0013L38.0162 64.2179ZM50.8365 137.555L43.0859 141.958V138.668L51.2353 134.038C50.9664 135.232 50.8306 136.415 50.8365 137.555ZM16.664 76.8617L54.5565 98.6779L51.9866 102.781L14.1011 80.9529L16.664 76.8617ZM50.5094 105.139L40.9678 120.372L3.08221 98.5434L12.6242 83.3107L50.5094 105.139ZM40.2994 123.196V125.252L2.7865 103.638V101.582L40.2994 123.196ZM2.7865 106.847L9.49534 110.712V118.817L2.7865 114.952V106.847ZM12.2818 112.318L30.7103 122.935V131.041L12.2818 120.423V112.318ZM33.4968 124.541L40.2994 128.461V136.566L33.4968 132.646V124.541ZM57.4969 99.2287L66.8216 93.9388V106.398L45.3746 118.581L57.4969 99.2287ZM2.7865 120.366V118.161L40.2994 139.775V141.98L2.7865 120.366ZM67.163 136.301C65.6137 138.977 63.5207 141.103 61.2695 142.288C59.2284 143.362 57.3332 143.511 55.9341 142.705C54.5349 141.899 53.716 140.189 53.6286 137.888C53.5321 135.352 54.3322 132.481 55.8815 129.805C58.9107 124.574 64.0522 121.641 67.1104 123.401C68.5095 124.207 69.3284 125.917 69.4158 128.218C69.512 130.754 68.7119 133.625 67.163 136.301ZM76.9314 122.732L71.8408 125.625C71.2939 123.549 70.1522 121.944 68.5033 120.995C63.9867 118.395 57.383 121.655 53.468 128.416C53.1556 128.956 52.871 129.504 52.6119 130.058L43.0859 135.47V123.08L68.9045 108.414C69.3396 108.167 69.6081 107.706 69.6081 107.207V92.3588L76.931 88.2046V122.732H76.9314ZM134.401 103.481C132.853 106.157 130.76 108.283 128.509 109.468C126.468 110.542 124.572 110.69 123.174 109.884C121.991 109.203 121.41 108.007 121.126 106.901L124.138 105.166C124.447 105.808 124.889 106.166 125.219 106.355C125.642 106.598 126.09 106.709 126.551 106.709C128.529 106.709 130.742 104.661 132.172 102.196C132.596 101.463 132.948 100.695 133.211 99.9432L136.446 98.0808C136.118 99.8664 135.422 101.719 134.401 103.481ZM126.59 103.755L128.287 102.778C127.556 103.526 126.923 103.877 126.63 103.92C126.616 103.881 126.603 103.823 126.59 103.755ZM86.0502 123.885V75.2782L157.214 34.3095V82.9164L86.0502 123.885Z" fill="#38394E"/>
<path d="M65.0654 126.932C62.8279 125.645 59.8738 128.049 58.1131 131.09C57.257 132.569 56.7073 134.132 56.5659 135.49C56.3203 137.846 57.3458 138.809 57.9787 139.173C58.2751 139.344 58.7279 139.523 59.3228 139.523C59.9996 139.523 60.8606 139.291 61.8843 138.551C62.993 137.75 64.0752 136.494 64.9317 135.015C66.692 131.974 67.3033 128.221 65.0654 126.932ZM62.5179 133.626C61.2713 135.779 59.8644 136.674 59.3872 136.74C59.2058 136.295 59.2796 134.632 60.5259 132.479C61.7721 130.327 63.179 129.431 63.6561 129.365C63.838 129.811 63.7641 131.474 62.5179 133.626Z" fill="#38394E"/>
</svg>
