<svg width="16" height="16" viewBox="0 0 16 16" fill="none" xmlns="http://www.w3.org/2000/svg">
<path d="M14.705 7.3L9.705 2.3C9.52499 2.11 9.27499 2 8.995 2C8.44499 2 7.995 2.45 7.995 3C7.995 3.28 8.105 3.53 8.285 3.71L11.575 7H1.995C1.445 7 0.994995 7.45 0.994995 8C0.994995 8.55 1.445 9 1.995 9H11.585L8.295 12.29C8.115 12.47 8.005 12.72 8.005 13C8.005 13.55 8.455 14 9.005 14C9.285 14 9.535 13.89 9.715 13.71L14.715 8.71C14.895 8.53 15.005 8.28 15.005 8C15.005 7.72 14.885 7.48 14.705 7.3Z" fill="white"/>
<mask id="mask0" mask-type="alpha" maskUnits="userSpaceOnUse" x="0" y="2" width="16" height="12">
<path d="M14.705 7.3L9.705 2.3C9.52499 2.11 9.27499 2 8.995 2C8.44499 2 7.995 2.45 7.995 3C7.995 3.28 8.105 3.53 8.285 3.71L11.575 7H1.995C1.445 7 0.994995 7.45 0.994995 8C0.994995 8.55 1.445 9 1.995 9H11.585L8.295 12.29C8.115 12.47 8.005 12.72 8.005 13C8.005 13.55 8.455 14 9.005 14C9.285 14 9.535 13.89 9.715 13.71L14.715 8.71C14.895 8.53 15.005 8.28 15.005 8C15.005 7.72 14.885 7.48 14.705 7.3Z" fill="white"/>
</mask>
<g mask="url(#mask0)">
<rect width="16" height="16" fill="white"/>
</g>
</svg>
