<svg width="20" height="20" viewBox="0 0 20 20" fill="none" xmlns="http://www.w3.org/2000/svg">
<path fill-rule="evenodd" clip-rule="evenodd" d="M10 0C4.475 0 0 4.475 0 10C0 15.525 4.475 20 10 20C15.525 20 20 15.525 20 10C20 4.475 15.525 0 10 0ZM2.50004 10C2.50004 5.8625 5.86254 2.5 10 2.5C11.625 2.5 13.1125 3.025 14.3375 3.9L3.90004 14.3375C3.02504 13.1125 2.50004 11.625 2.50004 10ZM5.66249 16.1C6.88749 16.975 8.37499 17.5 9.99999 17.5C14.15 17.5 17.5 14.15 17.5 10C17.5 8.37501 16.975 6.88751 16.1 5.66251L5.66249 16.1Z" fill="#DFE0F3"/>
</svg>
