<svg width="92" height="96" viewBox="0 0 92 96" fill="none" xmlns="http://www.w3.org/2000/svg">
<path d="M80.8333 34.0421C80.8333 32.2906 80.1495 30.6439 78.9076 29.4057L70.1854 20.7066C68.9435 19.468 67.2926 18.786 65.5364 18.786C63.7803 18.786 62.1292 19.468 60.8873 20.7066L56.4081 25.1739L55.2041 23.9694V20.9414C55.2041 18.236 53.2167 15.9856 50.6216 15.5641V10.1388C50.6216 7.85678 48.7601 6 46.4718 6H34.3268C32.0385 6 30.1766 7.85678 30.1766 10.1388V15.5754C27.6129 16.0231 25.6576 18.2581 25.6576 20.9414V23.968L24.4353 25.1871L19.9427 20.7064C18.7008 19.468 17.0497 18.7858 15.2936 18.7858C13.5374 18.7858 11.8865 19.4679 10.6446 20.7064L1.92253 29.4053C-0.640845 31.9619 -0.640845 36.1218 1.92253 38.6785L6.41497 43.159L5.31288 44.2582C4.76915 44.8004 4.64084 45.6315 4.99528 46.312L6.97421 50.1083L2.19008 58.5446C1.91002 59.0384 1.88605 59.6366 2.12593 60.1511L11.6434 80.5692C11.9327 81.1893 12.556 81.5859 13.2417 81.5859H19.8956V84.75C19.8956 85.7208 20.6849 86.5078 21.6581 86.5078H24.3604V89.4961C24.3604 93.0824 27.2858 96 30.8816 96H49.9166C53.5125 96 56.4379 93.0824 56.4379 89.4961V86.5078H59.1403C60.1136 86.5078 60.9028 85.7208 60.9028 84.75V81.5859H67.5568C68.2426 81.5859 68.866 81.1893 69.155 80.5692L78.6725 60.1511C78.9122 59.6366 78.8884 59.0384 78.6084 58.5446L73.8241 50.1087L75.803 46.3123C76.1571 45.6328 76.0295 44.8029 75.4873 44.2604L74.4007 43.1736L78.9075 38.6789C80.1495 37.4403 80.8333 35.7936 80.8333 34.0421ZM33.7016 10.1388C33.7016 9.79512 33.982 9.51563 34.3266 9.51563H46.4716C46.8162 9.51563 47.0966 9.79512 47.0966 10.1388V15.4922H33.7016V10.1388ZM29.1826 20.9414C29.1826 19.8753 30.0522 19.0078 31.1213 19.0078H49.7406C50.8095 19.0078 51.6793 19.8753 51.6793 20.9414V22.9383H29.1826V20.9414ZM4.41524 36.193C3.22626 35.007 3.22626 33.0774 4.41524 31.8916L13.1373 23.1925C13.7133 22.618 14.4791 22.3016 15.2936 22.3016C16.1082 22.3016 16.8742 22.618 17.45 23.1925L21.9426 27.673L8.90767 40.6733L4.41524 36.193ZM19.8954 78.0704H14.3658L5.70451 59.4888L8.91402 53.8296L19.8956 74.8965L19.8954 78.0704ZM52.9129 89.4963C52.9129 91.144 51.5688 92.4845 49.9166 92.4845H30.8816C29.2295 92.4845 27.8854 91.144 27.8854 89.4963V86.508H52.9129V89.4963ZM57.5766 73.6561C57.4462 73.9065 57.378 74.1846 57.378 74.4669V82.9923H49.6436C52.5431 80.3808 54.1364 76.6895 54.1687 72.9127C54.1702 72.8814 54.1734 72.8504 54.1734 72.8186V59.6573C54.1734 58.6865 53.3842 57.8995 52.4109 57.8995C51.4377 57.8995 50.6484 58.6865 50.6484 59.6573V63.6558C48.0662 60.8006 44.3418 59.1057 40.4145 59.1057C40.409 59.1057 40.4025 59.1057 40.3968 59.1057C39.4234 59.107 38.6354 59.895 38.6366 60.8658C38.6379 61.8358 39.4266 62.6214 40.3991 62.6214C40.4041 62.6215 40.4095 62.6214 40.4146 62.6214C44.0197 62.6214 47.3956 64.5405 49.2273 67.6324C52.0946 72.4725 50.4789 78.7367 45.6258 81.5963C44.1756 82.4508 42.5982 82.903 41.0225 82.9922H39.8147C36.5394 82.7916 33.4161 81.028 31.6249 78.0045C29.9355 75.1526 29.7429 71.6442 31.1097 68.6196C31.5096 67.7345 31.1143 66.6935 30.2269 66.2947C29.3402 65.8958 28.2957 66.2899 27.8958 67.175C27.7925 67.4037 27.6968 67.6346 27.6066 67.8672L22.6425 54.9128C23.0838 54.9949 23.538 55.0399 24.003 55.0399C28.0847 55.0399 31.4054 51.728 31.4054 47.6571C31.4054 45.3148 30.3049 43.2254 28.5939 41.8719L42.1823 36.9323C42.1745 37.0571 42.1692 37.1826 42.1692 37.3093C42.1692 40.6102 44.8618 43.2956 48.1714 43.2956C49.0544 43.2956 49.8928 43.1029 50.6486 42.7598V46.0193C50.6486 46.9902 51.4378 47.7771 52.4111 47.7771C53.3843 47.7771 54.1736 46.9902 54.1736 46.0193V37.3095C54.1736 34.0087 51.481 31.3233 48.1714 31.3233C47.1262 31.3233 46.1431 31.5917 45.2864 32.0621L21.5707 40.6835C21.5601 40.6873 21.5506 40.6923 21.5402 40.6963C18.6658 41.7109 16.6006 44.4475 16.6006 47.6574C16.6006 48.7061 16.8224 49.7037 17.2194 50.6079L27.3364 77.0094C27.3397 77.018 27.3438 77.0261 27.3473 77.0348C27.6556 77.9882 28.0692 78.9139 28.5902 79.7931C29.3151 81.0167 30.2024 82.0867 31.2086 82.9923H23.4206V74.4669C23.4206 74.1846 23.3524 73.9065 23.222 73.6561L8.71873 45.8335L28.1503 26.4539H52.7102L72.0808 45.8318L57.5766 73.6561ZM20.1258 47.6574C20.1258 45.525 21.8652 43.7902 24.0033 43.7902C26.1414 43.7902 27.8808 45.525 27.8808 47.6574C27.8808 49.7898 26.1414 51.5246 24.0033 51.5246C21.865 51.5246 20.1258 49.7898 20.1258 47.6574ZM45.6944 37.3099C45.6944 35.9476 46.8056 34.8393 48.1716 34.8393C49.5375 34.8393 50.6488 35.9476 50.6488 37.3099C50.6488 38.6722 49.5375 39.7805 48.1716 39.7805C46.8056 39.7805 45.6944 38.6722 45.6944 37.3099ZM75.0941 59.4888L66.4327 78.0704H60.903V74.8965L71.8846 53.8296L75.0941 59.4888ZM76.4151 36.1928L71.9123 40.6836L58.8973 27.6637L63.3804 23.1925C63.9564 22.618 64.7222 22.3016 65.5368 22.3016C66.3512 22.3016 67.1172 22.618 67.693 23.1925L76.4153 31.8916C76.9913 32.466 77.3083 33.2298 77.3083 34.0421C77.3083 34.8544 76.9911 35.6183 76.4151 36.1928Z" fill="url(#paint0_linear)"/>
<path d="M35.8718 61.627C35.3802 60.7892 34.3007 60.5078 33.4604 60.9978L33.4392 61.0103C32.599 61.5007 32.3168 62.5776 32.8086 63.4154C33.1364 63.9742 33.7258 64.2855 34.3314 64.2855C34.6335 64.2855 34.9401 64.2078 35.22 64.0445C35.22 64.0445 35.2384 64.0336 35.2412 64.032C36.0815 63.5416 36.3637 62.4647 35.8718 61.627Z" fill="url(#paint1_linear)"/>
<path d="M40.4261 66.1389C36.7331 66.1389 33.7286 69.1355 33.7286 72.8186C33.7286 76.5018 36.7331 79.4983 40.4261 79.4983C44.1191 79.4983 47.1236 76.5018 47.1236 72.8186C47.1236 69.1355 44.1192 66.1389 40.4261 66.1389ZM40.4261 75.9827C38.6768 75.9827 37.2536 74.5633 37.2536 72.8186C37.2536 71.074 38.6768 69.6546 40.4261 69.6546C42.1754 69.6546 43.5986 71.074 43.5986 72.8186C43.5986 74.5633 42.1754 75.9827 40.4261 75.9827Z" fill="url(#paint2_linear)"/>
<path d="M24.0208 46.0237H24.0014C23.9987 46.0237 23.9963 46.0237 23.9934 46.0237C23.0237 46.0237 22.2353 46.8056 22.2311 47.7738C22.2269 48.7445 23.0124 49.5351 23.9859 49.5393H24.0052C24.0079 49.5393 24.0104 49.5393 24.0132 49.5393C24.9829 49.5393 25.7713 48.7575 25.7755 47.7893C25.7796 46.8184 24.994 46.0279 24.0208 46.0237Z" fill="url(#paint3_linear)"/>
<path d="M53.6568 51.6909C53.329 51.364 52.8745 51.1759 52.4107 51.1759C51.9472 51.1759 51.4925 51.364 51.1648 51.6909C50.837 52.0179 50.6482 52.4714 50.6482 52.9337C50.6482 53.396 50.8368 53.8495 51.1648 54.1765C51.4925 54.5034 51.9472 54.6915 52.4107 54.6915C52.8745 54.6915 53.329 54.5034 53.6568 54.1765C53.9847 53.8495 54.1732 53.396 54.1732 52.9337C54.1732 52.4714 53.9847 52.0179 53.6568 51.6909Z" fill="url(#paint4_linear)"/>
<path d="M72.5415 32.2568L72.4171 32.1326C71.7295 31.4453 70.6138 31.4437 69.9243 32.1291C69.2352 32.8146 69.2336 33.9277 69.9208 34.6151L70.0453 34.7396C70.3896 35.0838 70.8416 35.256 71.2933 35.256C71.7436 35.256 72.1937 35.085 72.538 34.7429C73.2271 34.0574 73.2289 32.9443 72.5415 32.2568Z" fill="url(#paint5_linear)"/>
<path d="M67.4398 27.153L67.3153 27.0288C66.6278 26.3414 65.5121 26.3399 64.8226 27.0252C64.1335 27.7108 64.1319 28.8238 64.8191 29.5113L64.9435 29.6358C65.2879 29.9799 65.7398 30.1522 66.1916 30.1522C66.6419 30.1522 67.092 29.9812 67.4362 29.6391C68.1254 28.9536 68.1268 27.8405 67.4398 27.153Z" fill="url(#paint6_linear)"/>
<path d="M16.0076 27.0254C15.3182 26.3399 14.2022 26.3414 13.5148 27.0288L13.3904 27.1532C12.7032 27.8407 12.7046 28.9537 13.3939 29.6393C13.738 29.9814 14.1883 30.1524 14.6386 30.1524C15.0903 30.1524 15.5424 29.9801 15.8866 29.6359L16.0111 29.5115C16.6983 28.824 16.6969 27.711 16.0076 27.0254Z" fill="url(#paint7_linear)"/>
<path d="M10.9058 32.1292C10.2163 31.4437 9.10031 31.4453 8.41312 32.1326L8.28868 32.257C7.60148 32.9445 7.6029 34.0576 8.29221 34.7431C8.63625 35.0852 9.08657 35.2562 9.53689 35.2562C9.98861 35.2562 10.4407 35.0839 10.7849 34.7398L10.9093 34.6153C11.5965 33.9278 11.5951 32.8148 10.9058 32.1292Z" fill="url(#paint8_linear)"/>
<path d="M55 11C55 4.92487 59.9249 0 66 0H81C87.0751 0 92 4.92487 92 11V35C92 41.0751 87.0751 46 81 46H66C59.9249 46 55 41.0751 55 35V11Z" fill="#202028"/>
<path d="M76 34.4688C77.0547 34.4688 77.9688 33.625 77.9688 32.5V28C77.9688 26.9453 77.0547 26.0312 76 26.0312C74.875 26.0312 74.0312 26.9453 74.0312 28V32.5C74.0312 33.625 74.875 34.4688 76 34.4688ZM91.75 22.375C91.75 20.5469 90.2031 19 88.375 19H86.125V15.7656C86.125 10.1406 81.625 5.57031 76 5.5C70.375 5.5 65.875 10.0703 65.875 15.625V19H63.625C61.7266 19 60.25 20.5469 60.25 22.375V38.125C60.25 40.0234 61.7266 41.5 63.625 41.5H88.375C90.2031 41.5 91.75 40.0234 91.75 38.125V22.375ZM69.25 19V15.625C69.25 11.9688 72.2734 8.875 76 8.875C79.6562 8.875 82.75 11.9688 82.75 15.625V19H69.25ZM88.375 22.375V38.125H63.625V22.375H88.375Z" fill="url(#paint9_linear)"/>
<defs>
<linearGradient id="paint0_linear" x1="29.7184" y1="6" x2="29.7184" y2="96" gradientUnits="userSpaceOnUse">
<stop stop-color="#25BDBB"/>
<stop offset="1" stop-color="#0CE091"/>
</linearGradient>
<linearGradient id="paint1_linear" x1="29.7184" y1="6" x2="29.7184" y2="96" gradientUnits="userSpaceOnUse">
<stop stop-color="#25BDBB"/>
<stop offset="1" stop-color="#0CE091"/>
</linearGradient>
<linearGradient id="paint2_linear" x1="29.7184" y1="6" x2="29.7184" y2="96" gradientUnits="userSpaceOnUse">
<stop stop-color="#25BDBB"/>
<stop offset="1" stop-color="#0CE091"/>
</linearGradient>
<linearGradient id="paint3_linear" x1="29.7184" y1="6" x2="29.7184" y2="96" gradientUnits="userSpaceOnUse">
<stop stop-color="#25BDBB"/>
<stop offset="1" stop-color="#0CE091"/>
</linearGradient>
<linearGradient id="paint4_linear" x1="29.7184" y1="6" x2="29.7184" y2="96" gradientUnits="userSpaceOnUse">
<stop stop-color="#25BDBB"/>
<stop offset="1" stop-color="#0CE091"/>
</linearGradient>
<linearGradient id="paint5_linear" x1="29.7184" y1="6" x2="29.7184" y2="96" gradientUnits="userSpaceOnUse">
<stop stop-color="#25BDBB"/>
<stop offset="1" stop-color="#0CE091"/>
</linearGradient>
<linearGradient id="paint6_linear" x1="29.7184" y1="6" x2="29.7184" y2="96" gradientUnits="userSpaceOnUse">
<stop stop-color="#25BDBB"/>
<stop offset="1" stop-color="#0CE091"/>
</linearGradient>
<linearGradient id="paint7_linear" x1="29.7184" y1="6" x2="29.7184" y2="96" gradientUnits="userSpaceOnUse">
<stop stop-color="#25BDBB"/>
<stop offset="1" stop-color="#0CE091"/>
</linearGradient>
<linearGradient id="paint8_linear" x1="29.7184" y1="6" x2="29.7184" y2="96" gradientUnits="userSpaceOnUse">
<stop stop-color="#25BDBB"/>
<stop offset="1" stop-color="#0CE091"/>
</linearGradient>
<linearGradient id="paint9_linear" x1="92" y1="5" x2="52.0179" y2="20.7954" gradientUnits="userSpaceOnUse">
<stop stop-color="#FF8643"/>
<stop offset="1" stop-color="#FF6163"/>
</linearGradient>
</defs>
</svg>
