<svg width="24" height="24" viewBox="0 0 24 24" fill="none" xmlns="http://www.w3.org/2000/svg">
<path fill-rule="evenodd" clip-rule="evenodd" d="M15.825 2.2125L21.4375 5.9625C21.775 6.1875 22 6.5625 22 7V20.75C22 21.4375 21.4375 22 20.75 22C20.4875 22 20.25 21.925 20.05 21.7875L15.0875 18.475L9.5125 21.8125C9.325 21.925 9.1125 22 8.875 22C8.6125 22 8.375 21.925 8.175 21.7875L2.5625 18.0375C2.225 17.8125 2 17.4375 2 17V3.25C2 2.5625 2.5625 2 3.25 2C3.5125 2 3.75 2.075 3.95 2.2125L8.9125 5.525L14.4875 2.1875C14.675 2.075 14.8875 2 15.125 2C15.3875 2 15.625 2.075 15.825 2.2125ZM4.5 16.325L8.25 18.825V8.075C8.225 8.0625 8.2 8.05 8.175 8.025L4.5 5.575V16.325ZM14.5 15.925C14.5 15.925 14.4875 15.925 14.4875 15.9375L9.5 18.9125V8.075C9.5 8.075 9.5125 8.075 9.5125 8.0625L14.5 5.0875V15.925ZM15.825 15.9625L19.5 18.4125H19.5125V7.67499L15.7625 5.17499V15.925C15.775 15.9375 15.8 15.95 15.825 15.9625Z" fill="white"/>
</svg>
