<svg width="102" height="102" viewBox="0 0 102 102" fill="none" xmlns="http://www.w3.org/2000/svg">
<path fill-rule="evenodd" clip-rule="evenodd" d="M102 51C102 43.9565 96.2935 38.25 89.25 38.25H87.0291C86.5817 36.9842 86.0688 35.7453 85.4922 34.5372L87.0617 32.9677C92.0407 27.9887 92.0407 19.9173 87.0617 14.9383C82.0827 9.95932 74.0113 9.95932 69.0323 14.9383L67.4628 16.5078C66.2547 15.9312 65.0158 15.4182 63.75 14.9709V12.75C63.75 5.70965 58.0423 0 51 0C43.9565 0 38.25 5.70654 38.25 12.75V14.9709C36.9842 15.4182 35.7453 15.9312 34.5372 16.5078L32.9677 14.9383C27.9887 9.95932 19.9173 9.95932 14.9383 14.9383C9.95932 19.9173 9.95932 27.9887 14.9383 32.9677L16.5078 34.5372C15.9312 35.7453 15.4182 36.9842 14.9709 38.25H12.75C5.70965 38.25 0 43.9577 0 51C0 58.0435 5.70654 63.75 12.75 63.75H14.9709C15.4182 65.0158 15.9312 66.2547 16.5078 67.4628L14.9383 69.0323C9.95932 74.0113 9.95932 82.0827 14.9383 87.0617C19.9173 92.0407 27.9887 92.0407 32.9677 87.0617L34.5366 85.4929C35.744 86.0691 36.9833 86.582 38.25 87.0294V89.25C38.25 96.2904 43.9577 102 51 102C58.0435 102 63.75 96.2935 63.75 89.25V87.0291C65.0158 86.5817 66.2547 86.0688 67.4628 85.4922L69.0323 87.0617C74.0113 92.0407 82.0827 92.0407 87.0617 87.0617C92.0407 82.0827 92.0407 74.0113 87.0617 69.0323L85.4929 67.4634C86.0691 66.256 86.582 65.0167 87.0294 63.75H89.25C96.2904 63.75 102 58.0423 102 51ZM89.25 46.75C91.599 46.75 93.5 48.651 93.5 51C93.5 53.3472 91.5966 55.25 89.25 55.25H83.8865C81.9485 55.25 80.256 56.5611 79.7715 58.4375C79.0729 61.1431 78.0075 63.7122 76.606 66.0854C75.6199 67.7551 75.8891 69.8805 77.2603 71.2517L81.0513 75.0427C82.7108 76.7022 82.7108 79.3918 81.0513 81.0513C79.3918 82.7108 76.7022 82.7108 75.0427 81.0513L71.2517 77.2603C69.8813 75.8899 67.7574 75.6201 66.0879 76.6045C63.7053 78.0094 61.1392 79.0739 58.4375 79.7715C56.5611 80.256 55.25 81.9485 55.25 83.8865V89.25C55.25 91.599 53.349 93.5 51 93.5C48.6528 93.5 46.75 91.5966 46.75 89.25V83.8865C46.75 81.9485 45.4389 80.256 43.5625 79.7715C40.8569 79.0729 38.2878 78.0075 35.9146 76.606C34.2449 75.6199 32.1195 75.8891 30.7483 77.2603L26.9573 81.0513C25.2978 82.7108 22.6082 82.7108 20.9487 81.0513C19.2892 79.3918 19.2892 76.7022 20.9487 75.0427L24.7397 71.2517C26.1101 69.8813 26.3798 67.7574 25.3955 66.0879C23.9906 63.7053 22.9261 61.1392 22.2285 58.4375C21.7441 56.5611 20.0515 55.25 18.1135 55.25H12.75C10.401 55.25 8.5 53.349 8.5 51C8.5 48.6528 10.4034 46.75 12.75 46.75H18.1135C20.0515 46.75 21.7441 45.4389 22.2285 43.5625C22.9261 40.8608 23.9906 38.2948 25.3955 35.9121C26.3798 34.2426 26.1101 32.1187 24.7397 30.7483L20.9487 26.9573C19.2892 25.2978 19.2892 22.6082 20.9487 20.9487C22.6082 19.2892 25.2978 19.2892 26.9573 20.9487L30.7483 24.7397C32.1187 26.1101 34.2426 26.3798 35.9121 25.3955C38.2948 23.9906 40.8608 22.9261 43.5625 22.2285C45.4389 21.7441 46.75 20.0515 46.75 18.1135V12.75C46.75 10.401 48.651 8.5 51 8.5C53.3472 8.5 55.25 10.4034 55.25 12.75V18.1135C55.25 20.0515 56.5611 21.7441 58.4375 22.2285C61.1392 22.9261 63.7053 23.9906 66.0879 25.3955C67.7574 26.3798 69.8813 26.1101 71.2517 24.7397L75.0427 20.9487C76.7022 19.2892 79.3918 19.2892 81.0513 20.9487C82.7108 22.6082 82.7108 25.2978 81.0513 26.9573L77.2603 30.7483C75.8899 32.1187 75.6201 34.2426 76.6045 35.9121C78.0094 38.2948 79.0739 40.8608 79.7715 43.5625C80.256 45.4389 81.9485 46.75 83.8865 46.75H89.25ZM51 68C41.6112 68 34 60.3888 34 51C34 41.6112 41.6112 34 51 34C60.3888 34 68 41.6112 68 51C68 60.3888 60.3888 68 51 68ZM59.5 51C59.5 55.6944 55.6944 59.5 51 59.5C46.3056 59.5 42.5 55.6944 42.5 51C42.5 46.3056 46.3056 42.5 51 42.5C55.6944 42.5 59.5 46.3056 59.5 51Z" fill="url(#paint0_linear)"/>
<defs>
<linearGradient id="paint0_linear" x1="59.0002" y1="1.62327e-06" x2="59.0002" y2="102" gradientUnits="userSpaceOnUse">
<stop stop-color="#25BDBB"/>
<stop offset="1" stop-color="#0CE091"/>
</linearGradient>
</defs>
</svg>
