<svg width="20" height="20" viewBox="0 0 20 20" fill="none" xmlns="http://www.w3.org/2000/svg">
<path fill-rule="evenodd" clip-rule="evenodd" d="M16.6771 7.995H18.9881C19.5378 7.995 19.9875 8.44472 20 8.98189V10.9806C20 11.5303 19.5503 11.98 19.0006 11.98H16.6896C16.5397 12.4672 16.3273 12.9169 16.0899 13.3542L17.7139 14.9781C18.0887 15.3529 18.0887 15.965 17.7139 16.3398L16.3523 17.7014C15.9775 18.0762 15.3654 18.0762 14.9906 17.7014L13.3666 16.0775C12.9294 16.3148 12.4797 16.5147 11.9925 16.6646V18.9881C11.9925 19.5378 11.5428 19.9875 10.9931 19.9875H8.99438C8.44472 19.9875 7.995 19.5378 7.995 18.9881V16.6646C7.53279 16.5272 7.10806 16.3398 6.69582 16.1149L4.99688 17.8139C4.60962 18.2011 3.97252 18.2011 3.58526 17.8139L2.17364 16.4022C1.78638 16.015 1.78638 15.3779 2.17364 14.9906L3.87258 13.2917C3.64772 12.8795 3.44784 12.4547 3.31043 11.9925H0.999375C0.449719 11.9925 0 11.5428 0 10.9931V8.99438C0 8.44472 0.449719 7.995 0.999375 7.995H3.31043C3.46034 7.50781 3.66021 7.05809 3.91006 6.63335L2.28607 5.00937C1.91131 4.6346 1.91131 4.02249 2.28607 3.64772L3.63523 2.28607C4.00999 1.91131 4.62211 1.91131 4.99688 2.28607L6.62086 3.91006C7.05809 3.6727 7.50781 3.47283 7.995 3.32292V0.999375C7.995 0.449719 8.44472 0 8.99438 0H10.9931C11.5428 0 11.9925 0.449719 11.9925 0.999375V3.32292C12.4547 3.46034 12.8795 3.66021 13.2917 3.87258L14.9906 2.17364C15.3779 1.78638 16.015 1.78638 16.4022 2.17364L17.8139 3.58526C18.2011 3.97252 18.2011 4.60962 17.8139 4.99688L16.1149 6.69582C16.3398 7.10806 16.5397 7.53279 16.6771 7.995ZM6.24611 9.99375C6.24611 12.0675 7.92006 13.7414 9.99377 13.7414C12.0675 13.7414 13.7414 12.0675 13.7414 9.99375C13.7414 7.92004 12.0675 6.24609 9.99377 6.24609C7.92006 6.24609 6.24611 7.92004 6.24611 9.99375Z" fill="white"/>
</svg>
