<svg width="22" height="22" viewBox="0 0 22 22" fill="none" xmlns="http://www.w3.org/2000/svg">
<path d="M15.5563 0H6.44368L0 6.44364V15.5564L6.44368 22H15.5563L22 15.5564V6.44364L15.5563 0ZM20.7109 15.0224L15.0224 20.7109H6.97761L1.28906 15.0224V6.97761L6.97761 1.28906H15.0224L20.7109 6.97761V15.0224Z" fill="url(#paint0_linear)"/>
<path d="M4.83355 10.5028C4.53707 10.3913 4.31471 10.3369 4.13609 10.2932C3.92292 10.241 3.84394 10.2195 3.74125 10.1527C3.67679 10.1108 3.64371 10.0094 3.64534 9.93511C3.64684 9.86215 3.71564 9.72168 3.89357 9.65525C4.13888 9.56373 4.37113 9.54254 5.13163 10.1073L5.90021 9.07242C5.38347 8.68858 4.51855 8.04611 3.44291 8.44753C2.80655 8.68497 2.36998 9.27184 2.35654 9.90773C2.3476 10.3285 2.52214 10.8978 3.03879 11.2336C3.33012 11.423 3.58402 11.4852 3.82955 11.5452C3.98991 11.5845 4.15577 11.6251 4.38015 11.7095C4.72661 11.8397 4.69936 11.9971 4.68905 12.0564C4.6658 12.1906 4.47455 12.3891 4.13776 12.3891C3.78267 12.3891 3.4424 12.2476 3.2276 12.0105L2.2724 12.8761C2.73432 13.3858 3.41421 13.6782 4.13776 13.6782C5.05248 13.6782 5.81853 13.0887 5.95925 12.2765C6.09271 11.5061 5.65086 10.8099 4.83355 10.5028Z" fill="url(#paint1_linear)"/>
<path d="M6.45945 9.6534H7.55464V13.6357H8.8437V9.6534H9.94778V8.36434H6.45945V9.6534Z" fill="url(#paint2_linear)"/>
<path d="M17.5411 11.9014C17.5411 11.9014 17.9679 11.901 18.0055 11.901C18.9927 11.901 19.7958 11.1078 19.7958 10.1327C19.7958 9.15759 18.9927 8.36434 18.0055 8.36434H16.2521V13.6357H17.5411V11.9014ZM18.0055 9.6534C18.2771 9.6534 18.5067 9.87289 18.5067 10.1327C18.5067 10.3925 18.2771 10.6119 18.0055 10.6119C17.8939 10.6119 17.7213 10.6126 17.5454 10.6134C17.5445 10.4285 17.5435 9.84736 17.543 9.6534H18.0055Z" fill="url(#paint3_linear)"/>
<path d="M12.8282 8.36434C11.3749 8.36434 10.1925 9.54671 10.1925 11C10.1925 12.4533 11.3749 13.6357 12.8282 13.6357C14.2815 13.6357 15.4639 12.4533 15.4639 11C15.4639 9.54671 14.2815 8.36434 12.8282 8.36434ZM12.8282 12.3466C12.0857 12.3466 11.4816 11.7425 11.4816 11C11.4816 10.2575 12.0857 9.6534 12.8282 9.6534C13.5707 9.6534 14.1748 10.2575 14.1748 11C14.1748 11.7425 13.5707 12.3466 12.8282 12.3466Z" fill="url(#paint4_linear)"/>
<defs>
<linearGradient id="paint0_linear" x1="0" y1="0.0869324" x2="-10.006" y2="15.5072" gradientUnits="userSpaceOnUse">
<stop stop-color="#FF6163"/>
<stop offset="1" stop-color="#FF282B"/>
</linearGradient>
<linearGradient id="paint1_linear" x1="0" y1="0.0869324" x2="-10.006" y2="15.5072" gradientUnits="userSpaceOnUse">
<stop stop-color="#FF6163"/>
<stop offset="1" stop-color="#FF282B"/>
</linearGradient>
<linearGradient id="paint2_linear" x1="0" y1="0.0869324" x2="-10.006" y2="15.5072" gradientUnits="userSpaceOnUse">
<stop stop-color="#FF6163"/>
<stop offset="1" stop-color="#FF282B"/>
</linearGradient>
<linearGradient id="paint3_linear" x1="0" y1="0.0869324" x2="-10.006" y2="15.5072" gradientUnits="userSpaceOnUse">
<stop stop-color="#FF6163"/>
<stop offset="1" stop-color="#FF282B"/>
</linearGradient>
<linearGradient id="paint4_linear" x1="0" y1="0.0869324" x2="-10.006" y2="15.5072" gradientUnits="userSpaceOnUse">
<stop stop-color="#FF6163"/>
<stop offset="1" stop-color="#FF282B"/>
</linearGradient>
</defs>
</svg>
