<svg width="102" height="102" viewBox="0 0 102 102" fill="none" xmlns="http://www.w3.org/2000/svg">
<path d="M96.0234 35.8804V26.3997C96.0234 24.0051 95.0911 21.7538 93.3978 20.0604C91.7044 18.3671 89.4531 17.4348 87.0586 17.4348C82.1155 17.4348 78.0937 21.4565 78.0937 26.3997V27.8113L64.3375 14.0551C60.8808 10.5983 55.2567 10.5983 51.8 14.0551C50.9992 14.8559 50.386 15.7749 49.9564 16.7547C46.5362 14.8146 42.1044 15.2987 39.1924 18.2107C37.6173 19.7857 36.7014 21.8441 36.5807 24.0518C34.3738 24.1717 32.3154 25.0876 30.7404 26.6627C29.1653 28.2378 28.2494 30.2961 28.1287 32.5038C25.9218 32.6237 23.8634 33.5396 22.2884 35.1147C20.595 36.8081 19.6619 39.0594 19.6619 41.4539C19.6619 43.8484 20.595 46.0997 22.2884 47.7931L24.7646 50.2693C23.8689 50.6958 23.0292 51.2779 22.2884 52.0187C18.7927 55.5144 18.7927 61.2015 22.2884 64.6971L50.4622 92.871C54.1517 96.5604 58.9983 98.4048 63.8449 98.4048C68.6908 98.4048 73.5374 96.5604 77.2268 92.871L98.7907 71.3071C100.861 69.2379 102 66.4862 102 63.5594V44.3309C102 40.436 99.502 37.1139 96.0234 35.8804V35.8804ZM56.0264 18.2807C56.5898 17.7181 57.3291 17.4364 58.0691 17.4364C58.8084 17.4364 59.5485 17.7181 60.1111 18.2807L78.9692 37.1388C79.8237 37.9932 81.1093 38.2485 82.2252 37.7862C83.3419 37.324 84.0703 36.2337 84.0703 35.0252V26.3997C84.0703 24.7522 85.4111 23.4114 87.0586 23.4114C87.857 23.4114 88.6072 23.7219 89.1714 24.2868C89.7356 24.851 90.0469 25.6012 90.0469 26.3997V35.8789V35.8804C86.5683 37.1139 84.0703 40.436 84.0703 44.3317V50.4102L56.0264 22.3662C54.9003 21.2394 54.9003 19.4068 56.0264 18.2807ZM43.4188 22.4363C44.5837 21.2713 46.4794 21.2713 47.6444 22.4363L50.1214 24.9133C49.2249 25.3397 48.3852 25.9218 47.6444 26.6627C46.9035 27.4035 46.3215 28.2432 45.895 29.1397L43.418 26.6627C42.8538 26.0985 42.5433 25.3483 42.5433 24.5499C42.5433 23.7514 42.8538 23.0013 43.4188 22.4363ZM96.0234 63.5594C96.0234 64.8901 95.5051 66.1407 94.5651 67.0815L73.0012 88.6454C67.9523 93.6936 59.7368 93.6943 54.6879 88.6454L39.1924 73.1491L26.514 60.4707C25.349 59.3058 25.349 57.4101 26.514 56.2451C27.6797 55.0801 29.5754 55.0801 30.7404 56.2451L43.4188 68.9235C44.5853 70.09 46.4779 70.09 47.6444 68.9235C48.8117 67.7562 48.8117 65.8644 47.6444 64.6971L26.514 43.5667C25.9498 43.0025 25.6385 42.2523 25.6385 41.4539C25.6385 40.6555 25.9498 39.9053 26.514 39.3411C27.0789 38.7761 27.8291 38.4656 28.6268 38.4656C29.4252 38.4656 30.1754 38.7761 30.7404 39.3411L51.8708 60.4707C51.9432 60.5439 52.0194 60.6124 52.0972 60.6762C53.1929 61.5695 54.7742 61.5695 55.8699 60.6762C55.9478 60.6124 56.024 60.5439 56.0964 60.4707C57.2637 59.3042 57.2637 57.4124 56.0964 56.2451L34.9668 35.1147C33.8018 33.9497 33.8018 32.054 34.9668 30.8891C36.1317 29.7241 38.0274 29.7233 39.1924 30.8891L47.6444 39.3411L60.3228 52.0187C60.396 52.0919 60.4714 52.1603 60.55 52.2242C61.645 53.1175 63.2263 53.1175 64.322 52.2242C64.4006 52.1603 64.476 52.0919 64.5492 52.0187C65.7157 50.8522 65.7157 48.9604 64.5492 47.7931L51.8708 35.1147C50.7058 33.9497 50.7058 32.054 51.8708 30.8891C52.435 30.3241 53.1859 30.0136 53.9836 30.0136C54.782 30.0136 55.5322 30.3241 56.0964 30.8891L68.7748 43.5667L84.9458 59.7377C85.8002 60.5929 87.0858 60.8482 88.2018 60.3851C89.3185 59.9229 90.0469 58.8334 90.0469 57.6249V44.3317C90.0469 42.6834 91.3877 41.3434 93.0351 41.3434C94.6826 41.3434 96.0234 42.6834 96.0234 44.3317V63.5594Z" fill="url(#paint0_linear)"/>
<path d="M26.8945 19.3242C28.5451 19.3242 29.8828 17.9865 29.8828 16.3359V6.77344C29.8828 5.12288 28.5451 3.78516 26.8945 3.78516C25.244 3.78516 23.9062 5.12288 23.9062 6.77344V16.3359C23.9062 17.9865 25.244 19.3242 26.8945 19.3242Z" fill="url(#paint1_linear)"/>
<path d="M10.8784 10.438C9.71191 9.27068 7.81934 9.27068 6.65282 10.438C5.48552 11.6053 5.48552 13.4971 6.65282 14.6636L13.8247 21.8355C14.4076 22.4191 15.1725 22.7109 15.9375 22.7109C16.7017 22.7109 17.4667 22.4191 18.0503 21.8355C19.2176 20.6689 19.2176 18.7771 18.0503 17.6098L10.8784 10.438Z" fill="url(#paint2_linear)"/>
<path d="M12.5508 27.6914H2.98828C1.33772 27.6914 0 29.0291 0 30.6797C0 32.3302 1.33772 33.668 2.98828 33.668H12.5508C14.2013 33.668 15.5391 32.3302 15.5391 30.6797C15.5391 29.0291 14.2013 27.6914 12.5508 27.6914Z" fill="url(#paint3_linear)"/>
<defs>
<linearGradient id="paint0_linear" x1="67.289" y1="11.4625" x2="67.289" y2="98.4048" gradientUnits="userSpaceOnUse">
<stop stop-color="#25BDBB"/>
<stop offset="1" stop-color="#0CE091"/>
</linearGradient>
<linearGradient id="paint1_linear" x1="27.3633" y1="3.78516" x2="27.3633" y2="19.3242" gradientUnits="userSpaceOnUse">
<stop stop-color="#25BDBB"/>
<stop offset="1" stop-color="#0CE091"/>
</linearGradient>
<linearGradient id="paint2_linear" x1="13.3828" y1="9.5625" x2="13.3828" y2="22.7109" gradientUnits="userSpaceOnUse">
<stop stop-color="#25BDBB"/>
<stop offset="1" stop-color="#0CE091"/>
</linearGradient>
<linearGradient id="paint3_linear" x1="8.98831" y1="27.6914" x2="8.98831" y2="33.668" gradientUnits="userSpaceOnUse">
<stop stop-color="#25BDBB"/>
<stop offset="1" stop-color="#0CE091"/>
</linearGradient>
</defs>
</svg>
