<svg width="12" height="13" viewBox="0 0 12 13" fill="none" xmlns="http://www.w3.org/2000/svg">
<path d="M6 0.6875C2.78906 0.6875 0.1875 3.3125 0.1875 6.5C0.1875 9.71094 2.78906 12.3125 6 12.3125C9.1875 12.3125 11.8125 9.71094 11.8125 6.5C11.8125 3.3125 9.1875 0.6875 6 0.6875ZM9.30469 3.19531C11.0156 4.90625 11.1094 7.57812 9.67969 9.40625L3.09375 2.82031C4.92188 1.39062 7.59375 1.48438 9.30469 3.19531ZM2.67188 9.82812C0.960938 8.11719 0.867188 5.44531 2.29688 3.61719L8.88281 10.2031C7.05469 11.6328 4.38281 11.5391 2.67188 9.82812Z" fill="white"/>
</svg>
