<svg width="22" height="20" viewBox="0 0 22 20" fill="none" xmlns="http://www.w3.org/2000/svg">
<path d="M16.2242 14.0263H15.6152V10.4737C15.6152 7.8618 13.4297 5.73683 10.7435 5.73683C8.05721 5.73683 5.87173 7.86184 5.87173 10.4737V14.0263H5.26275C4.92616 14.0263 4.65377 14.2911 4.65377 14.6184C4.65377 14.9457 4.92616 15.2105 5.26275 15.2105H7.08965V18.4079C7.08965 18.7352 7.36204 19 7.69863 19C8.03523 19 8.30761 18.7352 8.30761 18.4079V15.2105H13.1793V18.4078C13.1793 18.7351 13.4517 19 13.7883 19C14.125 19 14.3973 18.7351 14.3973 18.4078V15.2105H16.2242C16.5608 15.2105 16.8332 14.9457 16.8332 14.6184C16.8332 14.2911 16.5608 14.0263 16.2242 14.0263ZM7.08965 14.0263V10.4737C7.08965 8.51463 8.72864 6.92103 10.7435 6.92103C12.7583 6.92103 14.3973 8.51463 14.3973 10.4737V14.0263H7.08965Z" fill="url(#paint0_linear)"/>
<path d="M18.5641 10.1488H21V11.333H18.5641V10.1488Z" fill="url(#paint1_linear)"/>
<path d="M1 10.1488H3.43588V11.333H1V10.1488Z" fill="url(#paint2_linear)"/>
<path d="M10.1345 1H11.3524V3.36843H10.1345V1Z" fill="url(#paint3_linear)"/>
<path d="M3.42304 4.19306L4.28403 3.3559L6.00602 5.03021L5.14503 5.86736L3.42304 4.19306Z" fill="url(#paint4_linear)"/>
<path d="M15.478 5.03026L17.2 3.35596L18.061 4.19311L16.339 5.86741L15.478 5.03026Z" fill="url(#paint5_linear)"/>
<path d="M16.2242 14.0263H15.6152V10.4737C15.6152 7.8618 13.4297 5.73683 10.7435 5.73683C8.05721 5.73683 5.87173 7.86184 5.87173 10.4737V14.0263H5.26275C4.92616 14.0263 4.65377 14.2911 4.65377 14.6184C4.65377 14.9457 4.92616 15.2105 5.26275 15.2105H7.08965V18.4079C7.08965 18.7352 7.36204 19 7.69863 19C8.03523 19 8.30761 18.7352 8.30761 18.4079V15.2105H13.1793V18.4078C13.1793 18.7351 13.4517 19 13.7883 19C14.125 19 14.3973 18.7351 14.3973 18.4078V15.2105H16.2242C16.5608 15.2105 16.8332 14.9457 16.8332 14.6184C16.8332 14.2911 16.5608 14.0263 16.2242 14.0263ZM7.08965 14.0263V10.4737C7.08965 8.51463 8.72864 6.92103 10.7435 6.92103C12.7583 6.92103 14.3973 8.51463 14.3973 10.4737V14.0263H7.08965Z" stroke="url(#paint6_linear)"/>
<path d="M18.5641 10.1488H21V11.333H18.5641V10.1488Z" stroke="url(#paint7_linear)"/>
<path d="M1 10.1488H3.43588V11.333H1V10.1488Z" stroke="url(#paint8_linear)"/>
<path d="M10.1345 1H11.3524V3.36843H10.1345V1Z" stroke="url(#paint9_linear)"/>
<path d="M3.42304 4.19306L4.28403 3.3559L6.00602 5.03021L5.14503 5.86736L3.42304 4.19306Z" stroke="url(#paint10_linear)"/>
<path d="M15.478 5.03026L17.2 3.35596L18.061 4.19311L16.339 5.86741L15.478 5.03026Z" stroke="url(#paint11_linear)"/>
<defs>
<linearGradient id="paint0_linear" x1="21" y1="9.99998" x2="1" y2="9.99998" gradientUnits="userSpaceOnUse">
<stop stop-color="#F59912"/>
<stop offset="1" stop-color="#E82B27"/>
</linearGradient>
<linearGradient id="paint1_linear" x1="21" y1="9.99998" x2="1" y2="9.99998" gradientUnits="userSpaceOnUse">
<stop stop-color="#F59912"/>
<stop offset="1" stop-color="#E82B27"/>
</linearGradient>
<linearGradient id="paint2_linear" x1="21" y1="9.99998" x2="1" y2="9.99998" gradientUnits="userSpaceOnUse">
<stop stop-color="#F59912"/>
<stop offset="1" stop-color="#E82B27"/>
</linearGradient>
<linearGradient id="paint3_linear" x1="21" y1="9.99998" x2="1" y2="9.99998" gradientUnits="userSpaceOnUse">
<stop stop-color="#F59912"/>
<stop offset="1" stop-color="#E82B27"/>
</linearGradient>
<linearGradient id="paint4_linear" x1="21" y1="9.99998" x2="1" y2="9.99998" gradientUnits="userSpaceOnUse">
<stop stop-color="#F59912"/>
<stop offset="1" stop-color="#E82B27"/>
</linearGradient>
<linearGradient id="paint5_linear" x1="21" y1="9.99998" x2="1" y2="9.99998" gradientUnits="userSpaceOnUse">
<stop stop-color="#F59912"/>
<stop offset="1" stop-color="#E82B27"/>
</linearGradient>
<linearGradient id="paint6_linear" x1="1" y1="10.4737" x2="21" y2="10.4737" gradientUnits="userSpaceOnUse">
<stop stop-color="#E82B27"/>
<stop offset="1" stop-color="#F59912"/>
</linearGradient>
<linearGradient id="paint7_linear" x1="1" y1="10.4737" x2="21" y2="10.4737" gradientUnits="userSpaceOnUse">
<stop stop-color="#E82B27"/>
<stop offset="1" stop-color="#F59912"/>
</linearGradient>
<linearGradient id="paint8_linear" x1="1" y1="10.4737" x2="21" y2="10.4737" gradientUnits="userSpaceOnUse">
<stop stop-color="#E82B27"/>
<stop offset="1" stop-color="#F59912"/>
</linearGradient>
<linearGradient id="paint9_linear" x1="1" y1="10.4737" x2="21" y2="10.4737" gradientUnits="userSpaceOnUse">
<stop stop-color="#E82B27"/>
<stop offset="1" stop-color="#F59912"/>
</linearGradient>
<linearGradient id="paint10_linear" x1="1" y1="10.4737" x2="21" y2="10.4737" gradientUnits="userSpaceOnUse">
<stop stop-color="#E82B27"/>
<stop offset="1" stop-color="#F59912"/>
</linearGradient>
<linearGradient id="paint11_linear" x1="1" y1="10.4737" x2="21" y2="10.4737" gradientUnits="userSpaceOnUse">
<stop stop-color="#E82B27"/>
<stop offset="1" stop-color="#F59912"/>
</linearGradient>
</defs>
</svg>
