<svg width="24" height="24" viewBox="0 0 24 24" fill="none" xmlns="http://www.w3.org/2000/svg">
<path d="M21.956 12.9353H2.04541V12.9356H21.956V12.9353Z" fill="#C42126"/>
<path d="M20.9183 7.47632H3.08252V7.47661H20.9183V7.47632Z" fill="#C42126"/>
<path d="M21.6267 9.29565H2.37305V9.29595H21.6267V9.29565Z" fill="#C42126"/>
<path d="M6.298 20.2133H17.7022L17.7028 20.2126H6.29736L6.298 20.2133Z" fill="#C42126"/>
<path d="M12.0002 2C11.8038 2 11.6089 2.00709 11.4155 2.01816H12.585C12.3915 2.00709 12.1966 2 12.0002 2Z" fill="#C42126"/>
<path d="M21.9585 11.1155H2.0415V11.1158H21.9585V11.1155Z" fill="#C42126"/>
<path d="M14.9557 5.6569H19.7308C19.1636 4.96643 18.5044 4.35521 17.7741 3.83777H14.1885C14.4852 4.35977 14.7403 4.97572 14.9557 5.6569Z" fill="#E7E7E7"/>
<path d="M14.1883 3.83778H17.774C16.2917 2.78732 14.512 2.12949 12.5847 2.01819H12.2769C13.184 2.13236 13.6006 2.8037 14.1883 3.83778Z" fill="#DC3027"/>
<path d="M21.6271 9.29581C21.4493 8.66171 21.2109 8.05332 20.9178 7.47668H15.4243C15.5356 8.06075 15.6234 8.67083 15.6885 9.29581H21.6271Z" fill="#E7E7E7"/>
<path d="M15.1154 7.47641H20.9178C20.5871 6.82605 20.1899 6.21576 19.7307 5.65698H14.6621C14.8408 6.22273 14.9926 6.83302 15.1154 7.47641Z" fill="#DC3027"/>
<path d="M15.8989 12.9349H21.955C21.9837 12.6271 22 12.3153 22 12.0001C22 11.7019 21.9844 11.4074 21.9588 11.1156H15.9004C15.9201 11.7207 15.9197 12.3301 15.8989 12.9349Z" fill="#E7E7E7"/>
<path d="M21.9591 11.1153C21.9043 10.4905 21.7917 9.88258 21.6274 9.29614H15.4336C15.4958 9.89186 15.5369 10.5014 15.5569 11.1153H21.9591Z" fill="#DC3027"/>
<path d="M15.3198 16.5739H20.8916C21.1888 15.9979 21.431 15.3891 21.6126 14.7545H15.5892C15.5229 15.3804 15.4329 15.9904 15.3198 16.5739Z" fill="#E7E7E7"/>
<path d="M21.6127 14.7543C21.7806 14.168 21.8971 13.5602 21.955 12.9352H15.7101C15.6888 13.5496 15.6465 14.1589 15.583 14.7543H21.6127Z" fill="#DC3027"/>
<path d="M17.7029 20.2127C18.4438 19.6973 19.1123 19.0855 19.6884 18.3936H14.9966C14.7773 19.0776 14.5169 19.6925 14.2148 20.2127H17.7029Z" fill="#E7E7E7"/>
<path d="M14.8203 18.3934H19.6887C20.1532 17.8353 20.5565 17.225 20.892 16.574H15.2793C15.1548 17.2178 15.0014 17.8284 14.8203 18.3934Z" fill="#DC3027"/>
<path d="M11.6378 21.9929C11.6176 21.9923 11.5974 21.9914 11.5771 21.9907C11.5974 21.9913 11.6176 21.9923 11.6378 21.9929Z" fill="#DC3027"/>
<path d="M12 22C14.1201 22 16.0844 21.3382 17.7022 20.2133H14.0831C13.4408 21.3199 13.017 22 12 22Z" fill="#DC3027"/>
<path d="M12.0001 22C11.8786 22 11.758 21.9972 11.6377 21.9929C11.7593 21.997 11.88 22 12.0001 22Z" fill="#C42126"/>
<path d="M14.5196 3.83777H6.22635C5.49594 4.35521 4.83688 4.96639 4.26953 5.6569H15.2867C15.0713 4.97572 14.8163 4.35977 14.5196 3.83777Z" fill="#F3F4F5"/>
<path d="M6.22607 3.83778H14.5194C13.9315 2.8037 13.1839 2.13236 12.2768 2.01819H11.4151C9.48787 2.12949 7.70822 2.78732 6.22607 3.83778Z" fill="#E73625"/>
<path d="M2.37305 9.29581H16.0039C15.9388 8.6707 15.851 8.06075 15.7397 7.47668H3.08231C2.78924 8.05336 2.55085 8.66171 2.37305 9.29581Z" fill="#F3F4F5"/>
<path d="M4.2694 5.65686C3.81057 6.21564 3.413 6.82588 3.08252 7.47629H15.7398C15.6171 6.83302 15.4653 6.22277 15.2866 5.65686C15.2866 5.65686 4.2694 5.65686 4.2694 5.65686Z" fill="#E73625"/>
<path d="M2 12.0001C2 12.3153 2.01642 12.6271 2.04501 12.9349H16.126C16.1468 12.3301 16.1471 11.7208 16.1274 11.1157H2.04121C2.01562 11.4074 2 11.7019 2 12.0001Z" fill="#F3F4F5"/>
<path d="M2.0415 11.1153H16.1275C16.1075 10.5012 16.0663 9.89191 16.0042 9.29614H2.37308C2.20871 9.8827 2.09614 10.4905 2.0415 11.1153Z" fill="#E73625"/>
<path d="M15.9988 14.7544H2.38721C2.56881 15.3891 2.81117 15.9978 3.10816 16.5738H15.7294C15.8425 15.9904 15.9323 15.3804 15.9988 14.7544Z" fill="#F3F4F5"/>
<path d="M2.38722 14.7543H15.9988C16.0621 14.1589 16.1045 13.5494 16.1259 12.9352H2.04492C2.10285 13.5603 2.21956 14.168 2.38722 14.7543Z" fill="#E73625"/>
<path d="M6.29754 20.2127H14.4892C14.7912 19.6924 15.0517 19.0776 15.2709 18.3936H4.31201C4.88818 19.0855 5.55653 19.6973 6.29754 20.2127Z" fill="#F3F4F5"/>
<path d="M3.1084 16.5739C3.44394 17.2248 3.84717 17.8351 4.31171 18.3933H15.2706C15.4516 17.8283 15.6049 17.2178 15.7294 16.5739H3.1084Z" fill="#E73625"/>
<path d="M11.5768 21.9906C11.597 21.9912 11.6172 21.9922 11.6374 21.9928C11.7577 21.9971 11.8784 21.9999 11.9998 21.9999C13.0168 21.9999 13.846 21.3198 14.4885 20.2131H6.29785C7.80719 21.2629 9.61889 21.909 11.5768 21.9906Z" fill="#E73625"/>
<path d="M11.7931 2.00525C6.66867 2.1095 2.49199 6.06616 2.04248 11.0991H11.7933V2.00525H11.7931Z" fill="#283991"/>
<path d="M4.00095 7.66577L4.15329 8.13487H4.64687L4.24757 8.42494L4.40008 8.89437L4.00095 8.60413L3.60194 8.89437L3.75416 8.42494L3.35498 8.13487H3.84857L4.00095 7.66577Z" fill="#EFEFEF"/>
<path d="M4.00095 9.323L4.15329 9.79239H4.64687L4.24757 10.0825L4.40008 10.5519L4.00095 10.2617L3.60194 10.5519L3.75416 10.0825L3.35498 9.79239H3.84857L4.00095 9.323Z" fill="#EFEFEF"/>
<path d="M5.65834 5.1792L5.81073 5.64846H6.30414L5.90497 5.9387L6.05735 6.4078L5.65834 6.1179L5.25917 6.4078L5.41155 5.9387L5.01221 5.64846H5.50579L5.65834 5.1792Z" fill="#EFEFEF"/>
<path d="M5.65834 6.83679L5.81073 7.30605H6.30414L5.90497 7.59595L6.05735 8.06538L5.65834 7.77548L5.25917 8.06538L5.41155 7.59595L5.01221 7.30605H5.50579L5.65834 6.83679Z" fill="#EFEFEF"/>
<path d="M5.65834 8.49438L5.81073 8.96382H6.30414L5.90497 9.25355L6.05735 9.72299L5.65834 9.43279L5.25917 9.72299L5.41155 9.25355L5.01221 8.96382H5.50579L5.65834 8.49438Z" fill="#EFEFEF"/>
<path d="M2.74236 9.72302L2.58985 9.25359L2.98902 8.96369H2.49573L2.48467 8.92944C2.4305 9.09698 2.38156 9.26655 2.33643 9.43802L2.34339 9.43282L2.74236 9.72302Z" fill="#EFEFEF"/>
<path d="M3.6016 7.23679L4.00061 6.94659L4.39978 7.23679L4.24727 6.76735L4.64645 6.47716H4.15286L4.00048 6.00806L3.8481 6.47716H3.6662C3.63242 6.52833 3.59974 6.5798 3.56689 6.63173L3.75386 6.76735L3.6016 7.23679Z" fill="#EFEFEF"/>
<path d="M5.6583 4.46036L6.05731 4.75026L5.90493 4.28116L6.30393 3.99097H6.01893C5.77686 4.17193 5.54333 4.36346 5.31896 4.56554L5.25879 4.75026L5.6583 4.46036Z" fill="#EFEFEF"/>
<path d="M6.91699 3.92162L7.31617 3.63143L7.71518 3.92162L7.56279 3.45219L7.9618 3.16229H7.46838L7.44769 3.09912C7.28049 3.18454 7.11502 3.27342 6.9533 3.368L7.06921 3.45215L6.91699 3.92162Z" fill="#EFEFEF"/>
<path d="M7.31602 4.35059L7.4684 4.81955H7.96182L7.56264 5.10975L7.71503 5.57918L7.31602 5.28894L6.91684 5.57918L7.06923 5.10975L6.66992 4.81955H7.16347L7.31602 4.35059Z" fill="#EFEFEF"/>
<path d="M7.31602 6.00818L7.4684 6.47715H7.96182L7.56264 6.76735L7.71503 7.23679L7.31602 6.94655L6.91684 7.23679L7.06923 6.76735L6.66992 6.47715H7.16347L7.31602 6.00818Z" fill="#EFEFEF"/>
<path d="M7.31602 7.66577L7.4684 8.13487H7.96182L7.56264 8.42494L7.71503 8.89437L7.31602 8.60413L6.91684 8.89437L7.06923 8.42494L6.66992 8.13487H7.16347L7.31602 7.66577Z" fill="#EFEFEF"/>
<path d="M7.31602 9.323L7.4684 9.79239H7.96182L7.56264 10.0825L7.71503 10.5519L7.31602 10.2617L6.91684 10.5519L7.06923 10.0825L6.66992 9.79239H7.16347L7.31602 9.323Z" fill="#EFEFEF"/>
<path d="M8.97373 3.52161L9.12611 3.99087H9.61953L9.22052 4.28111L9.37274 4.75021L8.97373 4.46031L8.57443 4.75021L8.72694 4.28111L8.32764 3.99087H8.82118L8.97373 3.52161Z" fill="#EFEFEF"/>
<path d="M8.97373 5.1792L9.12611 5.64846H9.61953L9.22052 5.9387L9.37274 6.4078L8.97373 6.1179L8.57443 6.4078L8.72694 5.9387L8.32764 5.64846H8.82118L8.97373 5.1792Z" fill="#EFEFEF"/>
<path d="M8.97373 6.83679L9.12611 7.30605H9.61953L9.22052 7.59595L9.37274 8.06538L8.97373 7.77548L8.57443 8.06538L8.72694 7.59595L8.32764 7.30605H8.82118L8.97373 6.83679Z" fill="#EFEFEF"/>
<path d="M8.97373 8.49438L9.12611 8.96382H9.61953L9.22052 9.25355L9.37274 9.72299L8.97373 9.43279L8.57443 9.72299L8.72694 9.25355L8.32764 8.96382H8.82118L8.97373 8.49438Z" fill="#EFEFEF"/>
<path d="M10.631 2.69299L10.7833 3.16226H11.2768L10.8776 3.45216L11.03 3.9216L10.631 3.63136L10.2317 3.9216L10.3842 3.45216L9.98486 3.16226H10.4783L10.631 2.69299Z" fill="#EFEFEF"/>
<path d="M10.631 4.35059L10.7833 4.81955H11.2768L10.8776 5.10975L11.03 5.57918L10.631 5.28894L10.2317 5.57918L10.3842 5.10975L9.98486 4.81955H10.4783L10.631 4.35059Z" fill="#EFEFEF"/>
<path d="M10.631 6.00818L10.7833 6.47715H11.2768L10.8776 6.76735L11.03 7.23679L10.631 6.94655L10.2317 7.23679L10.3842 6.76735L9.98486 6.47715H10.4783L10.631 6.00818Z" fill="#EFEFEF"/>
<path d="M10.631 7.66577L10.7833 8.13487H11.2768L10.8776 8.42494L11.03 8.89437L10.631 8.60413L10.2317 8.89437L10.3842 8.42494L9.98486 8.13487H10.4783L10.631 7.66577Z" fill="#EFEFEF"/>
<path d="M10.631 9.323L10.7833 9.79239H11.2768L10.8776 10.0825L11.03 10.5519L10.631 10.2617L10.2317 10.5519L10.3842 10.0825L9.98486 9.79239H10.4783L10.631 9.323Z" fill="#EFEFEF"/>
</svg>
