<svg width="24" height="24" viewBox="0 0 24 24" fill="none" xmlns="http://www.w3.org/2000/svg">
<path fill-rule="evenodd" clip-rule="evenodd" d="M9.5 2H3.25C2.5625 2 2 2.5625 2 3.25V9.5C2 10.1875 2.5625 10.75 3.25 10.75H9.5C10.1875 10.75 10.75 10.1875 10.75 9.5V3.25C10.75 2.5625 10.1875 2 9.5 2ZM15.75 19.5C15.75 18.8125 15.1875 18.25 14.5 18.25C13.8125 18.25 13.25 18.8125 13.25 19.5V20.75C13.25 21.4375 13.8125 22 14.5 22H15.75C16.4375 22 17 21.4375 17 20.75C17 20.0625 16.4375 19.5 15.75 19.5ZM3.25 13.25H9.5C10.1875 13.25 10.75 13.8125 10.75 14.5V20.75C10.75 21.4375 10.1875 22 9.5 22H3.25C2.5625 22 2 21.4375 2 20.75V14.5C2 13.8125 2.5625 13.25 3.25 13.25ZM20.75 18.25C20.0625 18.25 19.5 18.8125 19.5 19.5C18.8125 19.5 18.25 20.0625 18.25 20.75C18.25 21.4375 18.8125 22 19.5 22H20.75C21.4375 22 22 21.4375 22 20.75V19.5C22 18.8125 21.4375 18.25 20.75 18.25ZM14.5 13.25H15.75C16.4375 13.25 17 13.8125 17 14.5C17 15.1875 16.4375 15.75 15.75 15.75C15.75 16.4375 15.1875 17 14.5 17C13.8125 17 13.25 16.4375 13.25 15.75V14.5C13.25 13.8125 13.8125 13.25 14.5 13.25ZM20.75 2H14.5C13.8125 2 13.25 2.5625 13.25 3.25V9.5C13.25 10.1875 13.8125 10.75 14.5 10.75H20.75C21.4375 10.75 22 10.1875 22 9.5V3.25C22 2.5625 21.4375 2 20.75 2ZM19.5 13.25H20.75C21.4375 13.25 22 13.8125 22 14.5V15.75C22 16.4375 21.4375 17 20.75 17C20.0625 17 19.5 16.4375 19.5 15.75C18.8125 15.75 18.25 15.1875 18.25 14.5C18.25 13.8125 18.8125 13.25 19.5 13.25Z" fill="url(#paint0_linear)"/>
<defs>
<linearGradient id="paint0_linear" x1="22" y1="2" x2="-2.12371" y2="12.7216" gradientUnits="userSpaceOnUse">
<stop stop-color="#FF8643"/>
<stop offset="1" stop-color="#FF6163"/>
</linearGradient>
</defs>
</svg>
