<svg width="110" height="49" viewBox="0 0 110 49" fill="none" xmlns="http://www.w3.org/2000/svg">
<path fill-rule="evenodd" clip-rule="evenodd" d="M0.509521 20.1748C0.509521 20.1748 0.758006 25.7366 1.00649 28.12L0.509521 20.1748Z" fill="#BDCAE2"/>
<path fill-rule="evenodd" clip-rule="evenodd" d="M9.99623 45.0559C11.8398 46.7007 12.9791 47.4604 14.4909 48.3384C15.5958 47.7531 18.6542 45.7389 19.842 44.6515C21.0299 43.5642 21.6371 43.0904 22.6314 41.7801C22.6108 41.9197 22.569 42.0295 22.5208 42.1494C22.3758 42.5118 22.0433 42.8553 21.8302 43.118C21.5818 43.4246 18.6542 46.2402 17.8258 46.8256C16.9974 47.411 15.3955 48.4705 14.5391 49C13.2411 48.4984 11.0869 46.7698 10.0926 45.9615C9.09836 45.1532 6.7787 42.6997 5.23178 40.3024C5.23178 40.3024 3.05001 36.9568 2.08337 34.3087C1.11673 31.6602 0.536813 28.2313 0.315977 26.001C0.0951416 23.7708 -0.0431029 20.6485 0.0121946 19.7286C1.33792 19.617 2.77388 19.3103 3.96136 19.0316C5.32501 18.7114 6.77834 18.1396 8.68398 17.4426C10.5896 16.7456 13.5172 15.2402 14.5115 14.627C15.616 15.1844 19.3723 17.108 21.6367 17.8888C23.9014 18.6695 26.4423 19.422 28.9555 19.8682C28.9555 21.1785 28.9899 22.8931 28.9899 22.8931C28.9899 22.8931 28.6379 21.2833 28.5411 20.3423C27.5192 20.2027 23.7781 19.2123 21.167 18.307C18.433 17.3592 15.671 15.8818 14.5111 15.2961C13.0199 16.1881 9.45708 17.7492 7.44085 18.4741C5.42461 19.1991 3.10496 19.8682 0.619404 20.1748C0.619404 20.1748 0.698805 25.23 1.21314 28.2874C1.39959 29.3956 2.10854 32.5654 2.66293 34.0582C3.34635 35.8981 4.75715 38.401 5.33493 39.327C6.39232 41.0205 8.35219 43.5885 9.99623 45.0559Z" fill="url(#paint0_linear)"/>
<path fill-rule="evenodd" clip-rule="evenodd" d="M2.16682 18.0834C2.16682 18.0834 2.13917 19.7003 3.14729 21.5541C4.15541 23.408 5.75726 24.788 6.76538 25.1784C6.22694 24.6349 6.33718 24.6209 6.04722 24.4116C5.75726 24.2023 4.2107 22.6555 3.75485 21.9026C3.299 21.1498 2.76765 19.9232 2.68471 19.5053C3.14056 19.5472 4.34186 19.5261 4.34186 19.5261C4.34186 19.5261 4.40389 17.4769 3.7825 15.2817C4.73532 16.7244 5.29468 17.4354 5.52225 17.8533C5.42902 17.1162 5.34607 16.4628 5.3202 16.0081C5.29539 15.5698 5.25285 14.7797 5.39783 14.048C5.54281 13.3163 5.85368 12.7516 6.06069 12.2707C6.2677 11.7898 6.66152 11.2252 6.82706 10.2008C7.04435 8.85687 6.86853 7.84498 6.8065 7.19699C6.74446 6.54899 6.47507 5.66377 6.16455 5.2666C6.12308 5.69168 6.20602 5.89384 6.23722 6.01943C6.26841 6.14503 6.36412 6.53468 6.39247 6.96048C6.44068 7.6854 6.42473 8.69299 6.39921 9.07907C6.37156 9.49735 6.29925 10.0233 6.2163 10.379C6.13336 10.7347 5.81256 11.5498 5.60519 11.9995C5.39818 12.4489 5.04584 13.1756 4.94765 13.7821C4.86151 14.3131 4.79735 15.6481 4.84911 15.9827C4.40885 15.3032 3.55139 14.1414 3.32665 13.9074C3.16112 13.7349 2.86052 13.7453 2.86052 13.7453C2.86052 13.7453 3.01082 14.0956 3.15048 14.5554C3.28943 15.0119 3.5007 16.0979 3.62689 16.8919C3.75627 17.7073 3.82362 18.9793 3.82362 19.0734C3.72012 19.1293 2.85343 19.3382 2.62232 19.3454C2.56029 19.3346 2.3118 18.5017 2.16682 18.0834Z" fill="#F28225"/>
<path fill-rule="evenodd" clip-rule="evenodd" d="M7.75947 6.91147C7.72474 6.75832 7.68362 6.6449 7.64852 6.5143C7.60422 6.34935 7.53368 6.18869 7.47767 6.02732C7.37629 5.73499 7.23982 5.45697 7.13667 5.16535C6.93072 4.58212 6.88818 4.02215 6.88818 3.40993C6.88783 2.53688 6.96546 1.67062 7.17779 0.819386C7.29264 0.96752 7.36566 1.08631 7.41457 1.17684C7.48972 1.31531 7.56203 1.45343 7.62442 1.57329C7.74211 1.8005 7.85305 2.03093 7.9757 2.25564C8.30394 2.85533 8.69634 3.41566 9.0618 3.99245C9.41805 4.55529 9.75408 5.13959 9.96712 5.7747C10.2007 6.47172 10.2837 7.25461 10.2861 7.9849C10.2879 8.45721 10.2365 8.90483 10.1798 9.37428C10.1603 9.53529 10.1358 9.69595 10.1039 9.85517C10.0915 9.91743 10.0238 10.2291 9.97457 10.3532C10.6764 10.1139 10.7204 10.1024 11.1241 10.0187C10.8547 10.3636 10.6293 10.7168 10.3485 11.0581C9.96641 11.5226 9.61584 11.9691 9.31525 12.5012C8.76369 13.4784 8.64601 14.6838 8.64459 15.7877C8.64353 16.5638 8.88634 17.2379 9.14971 17.9564C9.34963 18.5024 9.63569 18.9747 9.926 19.4724C10.2142 19.9662 10.4839 20.4707 10.7622 20.9698C10.915 21.2439 11.0692 21.5176 11.2315 21.7864C11.7285 22.6086 12.3637 23.7518 12.4328 24.9923C12.5019 26.2329 12.1982 27.1668 11.5768 28.2402C10.9554 29.3136 10.3893 30.1498 10.334 31.1116C10.2787 32.0734 10.2787 32.8402 10.6654 33.4395C11.0522 34.0389 11.7012 34.7917 12.5296 35.4748C13.358 36.1578 13.7585 36.8688 14.1453 37.7189C14.532 38.5691 14.7252 39.7681 14.7114 40.5625C15.1396 40.5346 15.4848 40.3954 15.7471 40.0329C16.0094 39.6704 16.2579 38.4997 16.1753 37.705C16.0924 36.9103 15.913 35.5585 15.6092 34.7917C15.3055 34.0249 14.8634 33.2724 14.5044 32.5894C14.1453 31.9063 13.5515 30.4568 13.4686 29.007C13.3856 27.5575 13.593 26.9997 13.8277 26.2891C14.0623 25.5781 14.5044 24.7837 14.6561 24.2817C14.8081 23.7801 14.7667 23.111 14.3108 22.5392C13.855 21.9678 13.565 21.7169 13.3165 21.4239C13.2059 21.6747 12.9436 22.2741 12.8607 22.3997C12.7915 21.7724 13.0539 20.309 13.2474 19.7232C13.6756 20.3226 13.9517 20.685 14.4349 21.5352C14.918 22.3853 15.2356 22.9571 15.2222 23.5285C15.2087 24.1 15.0013 24.588 14.7525 25.2292C14.504 25.8704 14.062 27.3059 14.1034 28.2262C14.1449 29.1465 14.2417 29.6757 14.3381 30.0661C14.8351 29.9266 16.3267 29.2299 17.0445 28.2402C17.7627 27.2505 18.3426 26.0937 18.6049 24.7694C18.8672 23.4452 19.1571 22.3302 19.8891 21.2289C20.6211 20.1276 21.7118 19.1243 22.6785 18.1066C23.6451 17.089 24.8602 16.0714 25.813 14.789C26.7659 13.5066 27.4978 12.1824 28.0916 10.9977C28.6853 9.81295 29.9419 7.56877 31.3368 5.68704C32.7316 3.80531 33.7394 2.85748 34.6507 2.1186C35.5621 1.37972 37.1916 0.487696 38.6967 0C38.1306 0.919931 37.2745 2.25814 36.6942 3.61031C36.1143 4.96247 35.8658 5.70099 35.6447 6.35614C35.4238 7.0113 35.0924 8.26578 35.0094 8.79534C35.4791 8.65579 36.1969 8.47474 37.1083 8.19601C37.1083 8.19601 35.2303 10.1196 34.3742 11.1372C33.5182 12.1548 32.4686 13.897 31.9302 14.6917C32.6483 14.5522 33.6564 14.4409 34.3466 14.3432C34.3466 14.3432 33.4491 15.6116 32.9794 16.2528C33.4625 16.0993 33.8493 16.0718 34.4845 15.8345C34.0563 16.5595 33.1311 17.7581 31.8745 18.6781C30.6179 19.598 29.7342 19.7515 28.8367 19.9186C29.6513 19.2774 30.3971 18.6641 31.0046 17.8973C30.1348 18.0923 29.016 18.2179 28.2706 18.2877C29.1543 17.507 30.2592 16.2385 30.6044 15.7787C29.776 16.0435 29.2649 16.0435 29.0579 16.0296C29.4584 15.4721 31.0188 13.3252 31.4194 12.8375C31.8199 12.3498 32.593 11.1508 32.9383 10.7744C32.0684 11.1089 30.6874 12.5445 30.1904 12.9209C30.8256 11.2481 31.737 9.3664 32.828 7.56841C33.9191 5.77041 35.728 2.9684 36.3632 2.10428C35.355 2.63384 33.9053 3.91624 32.7866 5.47736C31.6682 7.03849 30.2734 9.0179 29.2791 10.8857C28.2848 12.7534 27.7878 13.6036 26.9314 15.2485C26.0754 16.8933 25.3707 18.0319 23.8245 19.3325C22.5817 20.378 22.1258 20.6149 21.2421 21.5488C20.3584 22.4827 19.9164 23.6395 19.7647 24.2667C19.6126 24.8939 19.171 26.3713 18.591 27.2637C18.0111 28.1557 16.9062 29.4242 16.3263 29.9122C15.7464 30.3999 14.8904 31.1946 14.6968 31.4175C14.9315 32.0587 15.9949 33.8567 16.5748 34.484C17.1547 35.1112 19.0604 36.5747 19.9717 37.1185C20.8831 37.6624 21.6289 38.0385 22.2779 38.1222C21.7533 38.5126 20.5516 38.5963 19.5988 38.387C19.7232 38.9445 20.3031 40.7568 20.5102 41.6348C19.9579 41.2863 18.9498 40.2547 18.6322 39.8787C18.3146 39.5023 18.0799 39.4744 18.0108 39.4185C17.9002 40.8959 17.7346 41.398 17.5964 42.1923C17.4582 42.987 17.3203 44.3109 17.3341 45.2308C16.975 44.6594 16.6298 43.5999 16.3122 42.7916C16.0084 43.8651 15.7875 44.7013 15.6078 45.4262C15.4972 45.1335 15.1796 43.9209 15.0832 43.5026C14.4065 44.2415 13.2052 45.2312 12.4179 45.5933C12.7632 44.966 13.8128 43.5165 13.923 42.4989C13.3293 42.7219 11.3683 44.1438 10.7055 44.5063C10.9678 43.8511 12.0174 42.5687 12.4318 41.9833C11.6998 42.1368 10.2915 42.5268 9.61478 42.7083C10.3882 42.0531 11.4651 41.2727 11.8518 40.7707C12.2386 40.2691 12.4318 39.7391 12.2939 39.3073C12.156 38.8754 12.1007 38.6103 11.0649 37.7461C10.0292 36.882 9.00757 35.8226 8.73108 34.791C8.45495 33.7594 8.44112 31.6687 8.92427 30.484C9.40741 29.2993 10.6229 27.7797 10.8714 27.1524C11.1199 26.5252 11.6998 25.0893 11.0369 23.7794C10.2291 22.1821 9.0813 20.8027 8.49252 19.0917C8.32911 18.6165 8.19902 18.1299 8.09835 17.6376C7.90942 16.7144 7.908 15.7644 7.96259 14.8262C8.01292 13.9646 8.19264 13.0737 8.44608 12.2511C8.6453 11.6038 8.92143 10.9859 9.13872 10.3454C9.22025 10.1046 9.30497 9.85374 9.35247 9.60363C9.49071 8.87871 9.6286 7.10862 9.28335 5.99333C8.95121 4.92025 8.41631 3.91767 7.88779 2.93297C7.74069 2.65889 7.58472 2.35869 7.42734 2.09033C7.41635 2.17227 7.39827 2.49358 7.39118 2.5816C7.37168 2.81812 7.35857 3.05534 7.3568 3.29257C7.35183 3.95416 7.4245 4.6272 7.54006 5.27842C7.59854 5.60868 7.73147 5.91711 7.7935 6.24379C7.83249 6.44918 7.84348 6.71968 7.75947 6.91147Z" fill="url(#paint1_linear)"/>
<path fill-rule="evenodd" clip-rule="evenodd" d="M23.7915 43.1181H26.0009V25.9175H23.7915V24.8301H38.6775V30.9912H37.4624C37.4624 30.9912 37.4713 30.6248 37.4624 30.1164C37.4461 29.1943 37.3727 27.9108 36.7893 27.2625C36.0275 26.4163 35.2806 25.9175 33.6235 25.9175C31.9663 25.9175 30.4198 25.9175 30.4198 25.9175V43.1181H32.5739V44.2889H23.7915V43.1181Z" fill="black"/>
<path fill-rule="evenodd" clip-rule="evenodd" d="M88.1347 24.8301H79.2478V25.9175H81.4572V43.1181H79.2478V44.2889H88.1347V43.1181H85.8761V25.9175H88.1347V24.8301Z" fill="black"/>
<path fill-rule="evenodd" clip-rule="evenodd" d="M31.552 35.1383C31.826 35.1383 32.0628 35.1383 32.2734 35.1383C33.1861 35.1383 33.6118 35.3358 34.0344 35.7935C34.459 36.2536 34.4519 37.5707 34.4519 37.5707V38.1282H35.5292V31.1309C35.5292 31.1309 34.8007 31.1309 34.4246 31.1309C34.4246 31.2969 34.4243 31.5542 34.4243 31.7789C34.4229 32.5317 34.3562 33.2537 33.9879 33.6502C33.5994 34.0685 33.1127 34.1694 32.519 34.1694C32.2705 34.1694 31.5524 34.1694 31.5524 34.1694V35.1383H31.552Z" fill="#040506"/>
<path fill-rule="evenodd" clip-rule="evenodd" d="M41.0249 43.2852H43.2343V25.9175H41.0249V24.8301H55.9109V30.9912H54.6958C54.6958 30.9912 54.7047 30.6248 54.6958 30.1164C54.6795 29.1943 54.6061 27.9108 54.0226 27.2625C53.2609 26.4163 52.514 25.9175 50.8569 25.9175C49.1997 25.9175 47.6532 25.9175 47.6532 25.9175V43.2852H49.8073V44.2889H41.0249V43.2852Z" fill="black"/>
<path fill-rule="evenodd" clip-rule="evenodd" d="M55.034 37.6542C55.034 37.6542 55.0428 38.4943 55.034 39.0031C55.0177 39.9252 54.9443 41.2087 54.3608 41.857C53.5991 42.7032 53.0177 43.202 51.195 43.202C49.5379 43.202 47.6532 43.202 47.6532 43.202V34.6879C46.1849 34.6586 44.7196 34.679 43.2343 34.6915V43.202H41.0249V44.2894H56.2491V37.6545H55.034V37.6542Z" fill="#040506"/>
<path fill-rule="evenodd" clip-rule="evenodd" d="M48.7854 34.5251C49.0594 34.5251 49.2962 34.5251 49.5068 34.5251C50.4195 34.5251 50.8452 34.7226 51.2678 35.1802C51.6924 35.6404 51.6853 36.9575 51.6853 36.9575V37.5149H52.7626V30.5176C52.7626 30.5176 52.0341 30.5176 51.6577 30.5176C51.6577 30.6836 51.6573 30.9409 51.6573 31.1656C51.6559 31.9184 51.5893 32.6405 51.221 33.0369C50.8325 33.4552 50.3458 33.5561 49.752 33.5561C49.5036 33.5561 48.7854 33.5561 48.7854 33.5561V34.5251Z" fill="#040506"/>
<path fill-rule="evenodd" clip-rule="evenodd" d="M73.2892 35.7466L74.6979 37.7714V25.8753H76.8725V24.7393H71.218V25.8753H73.2892V35.7466Z" fill="black"/>
<path fill-rule="evenodd" clip-rule="evenodd" d="M72.0043 35.7677L64.3275 24.7393H58.5691V25.91H60.6817V27.1992L62.0904 29.2226V29.2208L72.5505 44.2467H74.7046V39.6499L72.0043 35.7677Z" fill="black"/>
<path fill-rule="evenodd" clip-rule="evenodd" d="M62.0904 31.1092L60.6818 29.0879V43.1523H58.6106V44.2884H64.2651V43.1523H62.0904V31.1092Z" fill="black"/>
<path fill-rule="evenodd" clip-rule="evenodd" d="M90.4468 25.9561V24.7539H99.6644L99.6574 25.9561H97.4203L107.791 43.0244H110V44.2753H100.693V43.0244H102.93L92.6151 25.9561H90.4468Z" fill="black"/>
<path fill-rule="evenodd" clip-rule="evenodd" d="M107.363 25.9556H109.296V24.6904H103.51V25.9556H105.678L102.032 31.3536L102.792 32.5941L107.363 25.9556Z" fill="black"/>
<path fill-rule="evenodd" clip-rule="evenodd" d="M90.364 44.2612V43.0242H92.4214L97.2408 35.6748L98.0415 37.0688L94.1891 43.0242H96.3018V44.2472L90.364 44.2612Z" fill="black"/>
<defs>
<linearGradient id="paint0_linear" x1="14.4949" y1="14.627" x2="14.4949" y2="49" gradientUnits="userSpaceOnUse">
<stop stop-color="#F6A125"/>
<stop offset="0.347379" stop-color="#EC4A25"/>
</linearGradient>
<linearGradient id="paint1_linear" x1="14.3561" y1="-0.894525" x2="-11.3843" y2="32.1469" gradientUnits="userSpaceOnUse">
<stop offset="0.0097436" stop-color="#F5A124"/>
<stop offset="1" stop-color="#EA3B24"/>
</linearGradient>
</defs>
</svg>
