<svg width="24" height="24" viewBox="0 0 24 24" fill="none" xmlns="http://www.w3.org/2000/svg">
<path fill-rule="evenodd" clip-rule="evenodd" d="M16.2 6.6C16.92 6.6 17.4 6 17.4 5.4V4.2C17.4 3.48 16.92 3 16.2 3C15.48 3 15 3.48 15 4.2V5.4C15 6 15.48 6.6 16.2 6.6ZM19.8 4.2H18.6V5.4C18.6 6.72 17.52 7.8 16.2 7.8C14.88 7.8 13.8 6.72 13.8 5.4V4.2H10.2V5.4C10.2 6.72 9.12 7.8 7.8 7.8C6.48 7.8 5.4 6.72 5.4 5.4V4.2H4.2C3.48 4.2 3 4.8 3 5.4V19.8C3 20.52 3.48 21 4.2 21H19.8C20.52 21 21 20.52 21 19.8V5.4C21 4.68 20.4 4.2 19.8 4.2ZM5.40002 18.6H9.00002V15H5.40002V18.6ZM9.00002 13.8H5.40002V10.2H9.00002V13.8ZM10.2 18.6H13.8V15H10.2V18.6ZM13.8 13.8H10.2V10.2H13.8V13.8ZM15 18.6H18.6V15H15V18.6ZM18.6 13.8H15V10.2H18.6V13.8ZM9 5.4C9 6 8.52 6.6 7.8 6.6C7.08 6.6 6.6 6 6.6 5.4V4.2C6.6 3.48 7.08 3 7.8 3C8.52 3 9 3.48 9 4.2V5.4Z" fill="#DFE0F3"/>
</svg>
