<svg width="24" height="24" viewBox="0 0 24 24" fill="none" xmlns="http://www.w3.org/2000/svg">
<path d="M12.0005 21.9999C17.5231 21.9999 22.0001 17.5229 22.0001 12.0003C22.0001 6.4777 17.5231 2.00073 12.0005 2.00073C6.47793 2.00073 2.00098 6.4777 2.00098 12.0003C2.00098 17.5229 6.47793 21.9999 12.0005 21.9999Z" fill="white"/>
<path d="M21.4284 8.66577H15.2671C15.5347 10.8019 15.5363 13.1557 15.2723 15.2945H21.4416C21.8017 14.2627 21.9997 13.1546 21.9997 12C21.9999 10.8304 21.7973 9.70867 21.4284 8.66577Z" fill="#2B479D"/>
<path d="M15.2672 8.66578H21.4284C21.4275 8.66262 21.4265 8.65996 21.4252 8.65709C20.1455 5.04845 16.8534 2.39345 12.8979 2.04102C14.4288 2.88006 14.8759 5.5384 15.2672 8.66578Z" fill="#EFECEC"/>
<path d="M12.8984 21.9585C16.8609 21.6054 20.1576 18.9413 21.4325 15.323C21.4358 15.3133 21.4386 15.3038 21.4421 15.2946H15.2727C14.8844 18.4389 14.4354 21.116 12.8984 21.9585Z" fill="#E63026"/>
<path d="M2 12C2 13.1547 2.19832 14.2627 2.55814 15.2945H15.787C16.0513 13.1555 16.0494 10.8019 15.7821 8.66577H2.57144C2.20258 9.70871 2 10.8304 2 12Z" fill="#3757A6"/>
<path d="M2.57446 8.65711C2.57353 8.65994 2.57256 8.66264 2.57129 8.66581H15.782C15.3904 5.53838 14.4285 2.88009 12.8979 2.04104C12.6019 2.01482 12.3025 2 11.9997 2C7.64953 1.99996 3.95019 4.77825 2.57446 8.65711Z" fill="#EFEFEF"/>
<path d="M15.787 15.2946H2.55811C2.56144 15.3039 2.56457 15.3133 2.56773 15.323C3.93798 19.2118 7.64264 21.9999 11.9998 21.9999C12.3026 21.9999 12.602 21.985 12.898 21.9585C14.4351 21.116 15.3987 18.4389 15.787 15.2946Z" fill="#E73B36"/>
</svg>
