<svg width="16" height="12" viewBox="0 0 16 12" fill="none" xmlns="http://www.w3.org/2000/svg">
<path fill-rule="evenodd" clip-rule="evenodd" d="M1 0H15C15.55 0 16 0.450281 16 1.00062V2.00125H0V1.00062C0 0.450281 0.45 0 1 0ZM1 11.0069C0.45 11.0069 0 10.5566 0 10.0063V4.00254H16V10.0063C16 10.5566 15.55 11.0069 15 11.0069H1ZM5.5002 8.00508H10.5002C10.7802 8.00508 11.0002 8.22522 11.0002 8.50539C11.0002 8.78557 10.7802 9.0057 10.5002 9.0057H5.5002C5.2202 9.0057 5.0002 8.78557 5.0002 8.50539C5.0002 8.22522 5.2302 8.00508 5.5002 8.00508ZM3.5 8.00508H2.5C2.23 8.00508 2 8.22522 2 8.50539C2 8.78557 2.22 9.0057 2.5 9.0057H3.5C3.78 9.0057 4 8.78557 4 8.50539C4 8.22522 3.78 8.00508 3.5 8.00508Z" fill="url(#paint0_linear)"/>
<defs>
<linearGradient id="paint0_linear" x1="8" y1="11.0069" x2="8" y2="2.32782e-07" gradientUnits="userSpaceOnUse">
<stop stop-color="#3A6DED"/>
<stop offset="1" stop-color="#5582FF"/>
</linearGradient>
</defs>
</svg>
