<svg width="14" height="14" viewBox="0 0 14 14" fill="none" xmlns="http://www.w3.org/2000/svg">
<path d="M8.974 7L13.58 2.394C13.846 2.142 14 1.792 14 1.4C14 0.63 13.37 0 12.6 0C12.208 0 11.858 0.154 11.606 0.406L7 5.026L2.394 0.406C2.142 0.154 1.792 0 1.4 0C0.63 0 0 0.63 0 1.4C0 1.792 0.154 2.142 0.406 2.394L5.026 7L0.42 11.606C0.154 11.858 0 12.208 0 12.6C0 13.37 0.63 14 1.4 14C1.792 14 2.142 13.846 2.394 13.594L7 8.974L11.606 13.58C11.858 13.846 12.208 14 12.6 14C13.37 14 14 13.37 14 12.6C14 12.208 13.846 11.858 13.594 11.606L8.974 7Z" fill="#8F90A3"/>
</svg>
