<svg width="24" height="17" viewBox="0 0 24 17" fill="none" xmlns="http://www.w3.org/2000/svg">
<path d="M12 4.90906C10.1945 4.90906 8.72729 6.37631 8.72729 8.18179C8.72729 9.98726 10.1945 11.4545 12 11.4545C13.8055 11.4545 15.2727 9.98726 15.2727 8.18179C15.2727 6.37631 13.8054 4.90906 12 4.90906Z" fill="url(#paint0_linear)"/>
<path d="M12 0C6.54546 0 1.88729 3.3927 0 8.18182C1.88729 12.9709 6.54546 16.3636 12 16.3636C17.46 16.3636 22.1128 12.9709 24.0001 8.18182C22.1128 3.3927 17.46 0 12 0ZM12 13.6363C8.98911 13.6363 6.54546 11.1927 6.54546 8.18177C6.54546 5.17086 8.98911 2.72726 12 2.72726C15.0109 2.72726 17.4546 5.17091 17.4546 8.18182C17.4546 11.1927 15.0109 13.6363 12 13.6363Z" fill="url(#paint1_linear)"/>
<defs>
<linearGradient id="paint0_linear" x1="15.2727" y1="4.90906" x2="7.37771" y2="8.41795" gradientUnits="userSpaceOnUse">
<stop stop-color="#FF8643"/>
<stop offset="1" stop-color="#FF6163"/>
</linearGradient>
<linearGradient id="paint1_linear" x1="24.0001" y1="0" x2="-0.328988" y2="15.859" gradientUnits="userSpaceOnUse">
<stop stop-color="#FF8643"/>
<stop offset="1" stop-color="#FF6163"/>
</linearGradient>
</defs>
</svg>
