<svg width="11" height="9" viewBox="0 0 11 9" fill="none" xmlns="http://www.w3.org/2000/svg">
<path d="M0.235546 5.025L4.16131 8.775C4.30264 8.9175 4.49893 9 4.71877 9C5.15061 9 5.50393 8.6625 5.50393 8.25C5.50393 8.04 5.41756 7.8525 5.27623 7.7175L2.69308 5.25L10.2148 5.25C10.6467 5.25 11 4.9125 11 4.5C11 4.0875 10.6467 3.75 10.2148 3.75L2.68522 3.75L5.26838 1.2825C5.40971 1.1475 5.49607 0.96 5.49607 0.75C5.49607 0.3375 5.14276 0 4.71092 0C4.49108 0 4.29479 0.0824995 4.15346 0.2175L0.227695 3.9675C0.0863667 4.1025 0 4.29 0 4.5C0 4.71 0.0942183 4.89 0.235546 5.025Z" fill="#8F90A3"/>
<mask id="mask0" mask-type="alpha" maskUnits="userSpaceOnUse" x="0" y="0" width="11" height="9">
<path d="M0.235546 5.025L4.16131 8.775C4.30264 8.9175 4.49893 9 4.71877 9C5.15061 9 5.50393 8.6625 5.50393 8.25C5.50393 8.04 5.41756 7.8525 5.27623 7.7175L2.69308 5.25L10.2148 5.25C10.6467 5.25 11 4.9125 11 4.5C11 4.0875 10.6467 3.75 10.2148 3.75L2.68522 3.75L5.26838 1.2825C5.40971 1.1475 5.49607 0.96 5.49607 0.75C5.49607 0.3375 5.14276 0 4.71092 0C4.49108 0 4.29479 0.0824995 4.15346 0.2175L0.227695 3.9675C0.0863667 4.1025 0 4.29 0 4.5C0 4.71 0.0942183 4.89 0.235546 5.025Z" fill="#8F90A3"/>
</mask>
<g mask="url(#mask0)">
<rect x="12" y="11" width="13" height="13" transform="rotate(-180 12 11)" fill="#8F90A3"/>
</g>
</svg>
