<svg width="24" height="24" viewBox="0 0 24 24" fill="none" xmlns="http://www.w3.org/2000/svg">
<path d="M4.37122 14.8598V17.2078C4.37122 18.5395 5.45621 19.6258 6.78617 19.6258H9.13127L10.7937 21.2903C11.2487 21.7459 11.8612 22 12.5 22C13.1388 22 13.7513 21.7459 14.2063 21.2903L15.8687 19.6258H18.2138C19.5438 19.6258 20.6288 18.5395 20.6288 17.2078V14.8598L22.2912 13.1953C22.7462 12.7397 23 12.1264 23 11.4868C23 10.8473 22.7462 10.234 22.2912 9.77855L20.6288 8.1139V5.76602C20.6288 4.43423 19.5438 3.34788 18.2138 3.34788H15.8687L14.2063 1.68338C13.2963 0.772206 11.7037 0.772206 10.7937 1.68338L9.13127 3.34788H6.78617C5.45621 3.34788 4.37122 4.43423 4.37122 5.76602V8.1139L2.7088 9.77855C2.25378 10.234 2 10.8473 2 11.4868C2 12.1264 2.25378 12.7397 2.7088 13.1953L4.37122 14.8598ZM12.5 6.23027C12.8587 6.23027 13.1562 6.52816 13.1562 6.88734V16.0864C13.1562 16.4455 12.8587 16.7434 12.5 16.7434C9.45507 16.7434 7.25 14.5358 7.25 11.4868C7.25 8.4381 9.45507 6.23027 12.5 6.23027Z" fill="#DFE0F3"/>
</svg>
