<svg width="17" height="20" viewBox="0 0 17 20" fill="none" xmlns="http://www.w3.org/2000/svg">
<path fill-rule="evenodd" clip-rule="evenodd" d="M10.9286 1.21353H15.7857C16.4536 1.21353 17 1.75961 17 2.42705V3.64058H0V2.42705C0 1.75961 0.546429 1.21353 1.21429 1.21353H6.07143C6.07143 0.546087 6.61786 0 7.28571 0H9.71429C10.3821 0 10.9286 0.546087 10.9286 1.21353ZM16.3929 4.85411H0.607143C0.267143 4.85411 0 5.12108 0 5.46087C0 5.80066 0.267143 6.06764 0.607143 6.06764H1.21429V18.2029C1.21429 18.8703 1.76071 19.4164 2.42857 19.4164H14.5714C15.2393 19.4164 15.7857 18.8703 15.7857 18.2029V6.06764H16.3929C16.7329 6.06764 17 5.80066 17 5.46087C17 5.12108 16.7329 4.85411 16.3929 4.85411ZM6.07141 15.7759C6.07141 16.4433 5.52498 16.9894 4.85713 16.9894C4.18927 16.9894 3.64284 16.4433 3.64284 15.7759V8.49469C3.64284 7.82725 4.18927 7.28116 4.85713 7.28116C5.52498 7.28116 6.07141 7.82725 6.07141 8.49469V15.7759ZM8.50002 16.9894C9.16788 16.9894 9.71431 16.4433 9.71431 15.7759V8.49469C9.71431 7.82725 9.16788 7.28116 8.50002 7.28116C7.83217 7.28116 7.28574 7.82725 7.28574 8.49469V15.7759C7.28574 16.4433 7.83217 16.9894 8.50002 16.9894ZM13.3572 15.7759C13.3572 16.4433 12.8107 16.9894 12.1429 16.9894C11.475 16.9894 10.9286 16.4433 10.9286 15.7759V8.49469C10.9286 7.82725 11.475 7.28116 12.1429 7.28116C12.8107 7.28116 13.3572 7.82725 13.3572 8.49469V15.7759Z" fill="#FF5959"/>
</svg>
