<svg width="102" height="100" viewBox="0 0 102 100" fill="none" xmlns="http://www.w3.org/2000/svg">
<path d="M42.4425 15.652C41.6172 15.652 40.9484 16.3216 40.9484 17.1479V19.2625C40.9484 20.0888 41.6172 20.7583 42.4425 20.7583C43.2679 20.7583 43.9367 20.0888 43.9367 19.2625V17.1479C43.9367 16.3216 43.2679 15.652 42.4425 15.652Z" fill="url(#paint0_linear)"/>
<path d="M59.9055 27.1238L61.3991 25.6287C61.9828 25.0445 61.9828 24.0973 61.3993 23.5133C60.8158 22.9294 59.8697 22.929 59.2863 23.5131L57.7928 25.0082C57.2091 25.5924 57.2091 26.5396 57.7926 27.1236C58.3759 27.7078 59.3218 27.7082 59.9055 27.1238Z" fill="url(#paint1_linear)"/>
<path d="M67.7572 43.9875C68.5825 43.9875 69.2513 43.3179 69.2513 42.4916C69.2513 41.6653 68.5825 40.9957 67.7572 40.9957H65.6448C64.8195 40.9957 64.1507 41.6653 64.1507 42.4916C64.1507 43.3179 64.8195 43.9875 65.6448 43.9875H67.7572Z" fill="url(#paint2_linear)"/>
<path d="M41.563 66.3362V68.451C41.563 69.2773 42.2318 69.9469 43.0571 69.9469C43.8825 69.9469 44.5513 69.2773 44.5513 68.451V66.3362C44.5513 65.5099 43.8825 64.8404 43.0571 64.8404C42.2318 64.8404 41.563 65.5099 41.563 66.3362Z" fill="url(#paint3_linear)"/>
<path d="M23.4858 61.4703C24.0697 62.0544 25.0154 62.0542 25.5989 61.4703L27.0925 59.975C27.676 59.3906 27.676 58.4436 27.0925 57.8594C26.5087 57.2754 25.5629 57.2754 24.9793 57.8594L23.4858 59.3547C22.9023 59.9391 22.9023 60.8861 23.4858 61.4703Z" fill="url(#paint4_linear)"/>
<path d="M19.24 43.9875C20.0654 43.9875 20.7342 43.3179 20.7342 42.4916C20.7342 41.6653 20.0654 40.9957 19.24 40.9957H17.1279C16.3025 40.9957 15.6338 41.6653 15.6338 42.4916C15.6338 43.3179 16.3025 43.9875 17.1279 43.9875H19.24Z" fill="url(#paint5_linear)"/>
<path d="M24.9795 27.1238C25.5629 27.7078 26.5089 27.708 27.0925 27.1236C27.676 26.5394 27.676 25.5922 27.0923 25.0082L25.5987 23.5131C25.0154 22.9292 24.0693 22.929 23.4858 23.5133C22.9023 24.0975 22.9023 25.0447 23.486 25.6287L24.9795 27.1238Z" fill="url(#paint6_linear)"/>
<path d="M40.9484 39.5623L38.2298 36.9122C37.6385 36.3356 36.6925 36.3484 36.1171 36.9403C35.5414 37.5323 35.5539 38.4793 36.1452 39.0555L41.4002 44.1786C42.3393 45.0944 43.9367 44.4358 43.9367 43.1069V28.9506C43.9367 28.1242 43.2679 27.4547 42.4425 27.4547C41.6172 27.4547 40.9484 28.1242 40.9484 28.9506V39.5623Z" fill="url(#paint7_linear)"/>
<path d="M84.6139 47.2806C84.793 45.6866 84.8853 44.081 84.8853 42.4918C84.8853 31.5651 80.7499 21.1822 73.2409 13.256C72.6729 12.6565 71.727 12.6318 71.1285 13.2002C70.5297 13.7688 70.5048 14.7156 71.0728 15.315C78.0528 22.6828 81.897 32.3346 81.897 42.492C81.897 43.7663 81.8328 45.0523 81.7085 46.333C79.6356 45.7843 77.4669 45.475 75.2333 45.4355C75.3207 44.4534 75.3699 43.4687 75.3699 42.4918C75.3699 24.3145 60.5986 9.52633 42.4425 9.52633C24.2865 9.52633 9.51532 24.3145 9.51532 42.4918C9.51532 46.1551 10.113 49.7564 11.2918 53.1953C11.5043 53.8158 12.0843 54.2059 12.7048 54.2059C12.8658 54.2059 13.0294 54.1798 13.1901 54.1245C13.9707 53.8563 14.3862 53.0056 14.1183 52.2242C13.0469 49.0986 12.5038 45.824 12.5038 42.4918C12.5038 25.9642 25.9344 12.5181 42.4427 12.5181C58.9513 12.5181 72.3818 25.9642 72.3818 42.4918C72.3818 43.5054 72.3275 44.5286 72.2241 45.5472C58.5962 46.8055 47.842 58.1492 47.5013 72.0351C45.8332 72.3191 44.1371 72.4655 42.4427 72.4655C31.7805 72.4655 21.8398 66.7166 16.4998 57.4617C16.087 56.7461 15.173 56.502 14.4586 56.9148C13.7442 57.3281 13.4995 58.243 13.9123 58.9584C19.6148 68.8411 30.2772 75.4573 42.4427 75.4573C44.1664 75.4573 45.8924 75.3217 47.5939 75.054C47.783 77.2735 48.2368 79.4188 48.9269 81.4561C46.7885 81.8102 44.615 81.9921 42.4429 81.9921C20.6874 81.9917 2.98829 64.2721 2.98829 42.4918C2.98829 20.7115 20.6874 2.99175 42.4425 2.99175C51.3789 2.99175 59.8065 5.9085 66.814 11.4267C67.4623 11.9377 68.402 11.8252 68.912 11.1758C69.4224 10.5264 69.3101 9.58596 68.6614 9.07537C61.1222 3.13814 52.0557 0 42.4425 0C19.0396 0 0 19.0616 0 42.4918C0 65.9218 19.0396 84.9834 42.4425 84.9834C45.0007 84.9834 47.5617 84.7513 50.0726 84.2947C54.4314 93.5659 63.8519 100 74.7464 100C80.3931 100 85.8114 98.2849 90.4156 95.0405C91.0905 94.565 91.2525 93.632 90.7774 92.9564C90.3026 92.2807 89.3703 92.1185 88.6957 92.5942C84.5976 95.4821 79.7741 97.0084 74.7462 97.0084C61.5302 97.0084 50.4804 86.286 50.4804 72.7146C50.4804 59.3192 61.366 48.4211 74.7462 48.4211C88.1262 48.4211 99.0117 59.3192 99.0117 72.7146C99.0117 78.6624 96.841 84.3867 92.8997 88.8328C92.3518 89.4509 92.4082 90.3963 93.0254 90.9446C93.6431 91.4933 94.5872 91.4368 95.1347 90.8187C99.562 85.8245 102 79.395 102 72.7145C102 61.1517 94.7785 51.2469 84.6139 47.2806Z" fill="url(#paint8_linear)"/>
<path d="M79.2288 57.9998C79.2288 55.5255 77.2179 53.5122 74.7464 53.5122C72.2749 53.5122 70.2639 55.5255 70.2639 57.9998V75.8616C70.2639 78.3359 72.2749 80.3492 74.7464 80.3492C77.2179 80.3492 79.2288 78.3359 79.2288 75.8616V57.9998ZM76.2405 75.8616C76.2405 76.6865 75.5704 77.3574 74.7464 77.3574C73.9224 77.3574 73.2522 76.6865 73.2522 75.8616V57.9998C73.2522 57.1749 73.9224 56.504 74.7464 56.504C75.5704 56.504 76.2405 57.1749 76.2405 57.9998V75.8616Z" fill="url(#paint9_linear)"/>
<path d="M74.7464 81.0359C72.2749 81.0359 70.2639 83.0491 70.2639 85.5235V87.4293C70.2639 89.9036 72.2749 91.9169 74.7464 91.9169C77.2179 91.9169 79.2288 89.9036 79.2288 87.4293V85.5235C79.2288 83.0491 77.2181 81.0359 74.7464 81.0359ZM76.2405 87.4293C76.2405 88.2542 75.5704 88.9251 74.7464 88.9251C73.9224 88.9251 73.2522 88.2542 73.2522 87.4293V85.5235C73.2522 84.6986 73.9224 84.0276 74.7464 84.0276C75.5704 84.0276 76.2405 84.6986 76.2405 85.5235V87.4293Z" fill="url(#paint10_linear)"/>
<path d="M84.5347 46.9312C84.4822 46.9106 84.4305 46.8889 84.3782 46.8678C84.1521 46.7763 83.3883 46.4877 81.524 45.9459C79.4322 45.3933 77.2438 45.0817 74.9898 45.0419C73.4508 45.0148 74.4985 44.92 71.9532 45.1544C58.2028 46.4217 47.3514 57.8453 47.0057 71.8296C47.0057 71.8321 47.0056 71.8343 47.0055 71.8369C47.0035 71.9163 46.9693 73.3532 47.0991 74.8741C47.2754 76.9393 47.6797 78.9408 48.2893 80.8517C48.389 81.1643 48.4687 81.4881 48.5769 81.7979C48.7172 82.1998 49.0061 82.9198 49.6003 84.1814C53.9987 93.5195 63.5049 100 74.4985 100C80.1965 100 85.6642 98.2726 90.3102 95.0047C90.9913 94.5258 91.1548 93.586 90.6753 92.9056C90.1962 92.225 89.2554 92.0617 88.5747 92.5408C84.4393 95.4495 79.5719 96.9869 74.4983 96.9869C61.1621 96.9869 50.0119 86.1871 50.0119 72.5178C50.0119 59.0258 60.9964 48.049 74.4983 48.049C88 48.049 98.9845 59.0258 98.9845 72.5178C98.9845 78.5085 96.7941 84.2741 92.8169 88.7523C92.2641 89.3748 92.3209 90.327 92.9437 90.8793C93.5671 91.4319 94.5198 91.375 95.0723 90.7525C99.5398 85.7223 102 79.2464 102 72.5177C102 60.9014 94.7502 50.9465 84.5347 46.9312Z" fill="url(#paint11_linear)"/>
<path d="M79.0217 57.6969C79.0217 55.2047 76.9925 53.1769 74.4985 53.1769C72.0045 53.1769 69.9753 55.2047 69.9753 57.6969V75.6875C69.9753 78.1797 72.0045 80.2075 74.4985 80.2075C76.9925 80.2075 79.0217 78.1797 79.0217 75.6875V57.6969ZM76.0062 75.6875C76.0062 76.5184 75.33 77.1941 74.4985 77.1941C73.667 77.1941 72.9908 76.5184 72.9908 75.6875V57.6969C72.9908 56.866 73.667 56.1903 74.4985 56.1903C75.33 56.1903 76.0062 56.866 76.0062 57.6969V75.6875Z" fill="url(#paint12_linear)"/>
<path d="M74.4985 80.8991C72.0045 80.8991 69.9753 82.9269 69.9753 85.4191V87.3386C69.9753 89.8308 72.0045 91.8586 74.4985 91.8586C76.9925 91.8586 79.0217 89.8308 79.0217 87.3386V85.4191C79.0217 82.9269 76.9927 80.8991 74.4985 80.8991ZM76.0062 87.3386C76.0062 88.1695 75.33 88.8453 74.4985 88.8453C73.667 88.8453 72.9908 88.1695 72.9908 87.3386V85.4191C72.9908 84.5882 73.667 83.9124 74.4985 83.9124C75.33 83.9124 76.0062 84.5882 76.0062 85.4191V87.3386Z" fill="url(#paint13_linear)"/>
<defs>
<linearGradient id="paint0_linear" x1="37.5003" y1="0" x2="37.5003" y2="100" gradientUnits="userSpaceOnUse">
<stop stop-color="#25BDBB"/>
<stop offset="1" stop-color="#0CE091"/>
</linearGradient>
<linearGradient id="paint1_linear" x1="37.5003" y1="0" x2="37.5003" y2="100" gradientUnits="userSpaceOnUse">
<stop stop-color="#25BDBB"/>
<stop offset="1" stop-color="#0CE091"/>
</linearGradient>
<linearGradient id="paint2_linear" x1="37.5003" y1="0" x2="37.5003" y2="100" gradientUnits="userSpaceOnUse">
<stop stop-color="#25BDBB"/>
<stop offset="1" stop-color="#0CE091"/>
</linearGradient>
<linearGradient id="paint3_linear" x1="37.5003" y1="0" x2="37.5003" y2="100" gradientUnits="userSpaceOnUse">
<stop stop-color="#25BDBB"/>
<stop offset="1" stop-color="#0CE091"/>
</linearGradient>
<linearGradient id="paint4_linear" x1="37.5003" y1="0" x2="37.5003" y2="100" gradientUnits="userSpaceOnUse">
<stop stop-color="#25BDBB"/>
<stop offset="1" stop-color="#0CE091"/>
</linearGradient>
<linearGradient id="paint5_linear" x1="37.5003" y1="0" x2="37.5003" y2="100" gradientUnits="userSpaceOnUse">
<stop stop-color="#25BDBB"/>
<stop offset="1" stop-color="#0CE091"/>
</linearGradient>
<linearGradient id="paint6_linear" x1="37.5003" y1="0" x2="37.5003" y2="100" gradientUnits="userSpaceOnUse">
<stop stop-color="#25BDBB"/>
<stop offset="1" stop-color="#0CE091"/>
</linearGradient>
<linearGradient id="paint7_linear" x1="37.5003" y1="0" x2="37.5003" y2="100" gradientUnits="userSpaceOnUse">
<stop stop-color="#25BDBB"/>
<stop offset="1" stop-color="#0CE091"/>
</linearGradient>
<linearGradient id="paint8_linear" x1="37.5003" y1="0" x2="37.5003" y2="100" gradientUnits="userSpaceOnUse">
<stop stop-color="#25BDBB"/>
<stop offset="1" stop-color="#0CE091"/>
</linearGradient>
<linearGradient id="paint9_linear" x1="37.5003" y1="0" x2="37.5003" y2="100" gradientUnits="userSpaceOnUse">
<stop stop-color="#25BDBB"/>
<stop offset="1" stop-color="#0CE091"/>
</linearGradient>
<linearGradient id="paint10_linear" x1="37.5003" y1="0" x2="37.5003" y2="100" gradientUnits="userSpaceOnUse">
<stop stop-color="#25BDBB"/>
<stop offset="1" stop-color="#0CE091"/>
</linearGradient>
<linearGradient id="paint11_linear" x1="102" y1="45" x2="35.6598" y2="74.4845" gradientUnits="userSpaceOnUse">
<stop stop-color="#FF8643"/>
<stop offset="1" stop-color="#FF6163"/>
</linearGradient>
<linearGradient id="paint12_linear" x1="102" y1="45" x2="35.6598" y2="74.4845" gradientUnits="userSpaceOnUse">
<stop stop-color="#FF8643"/>
<stop offset="1" stop-color="#FF6163"/>
</linearGradient>
<linearGradient id="paint13_linear" x1="102" y1="45" x2="35.6598" y2="74.4845" gradientUnits="userSpaceOnUse">
<stop stop-color="#FF8643"/>
<stop offset="1" stop-color="#FF6163"/>
</linearGradient>
</defs>
</svg>
