<svg width="16" height="16" viewBox="0 0 16 16" fill="none" xmlns="http://www.w3.org/2000/svg">
<path fill-rule="evenodd" clip-rule="evenodd" d="M12.8869 10.7582L15.5553 13.4365C15.8251 13.7063 15.995 14.0861 15.995 14.4958C15.995 15.3253 15.3254 15.9949 14.4959 15.9949C14.0862 15.9949 13.7064 15.825 13.4366 15.5552L10.7583 12.8868C9.67895 13.5764 8.38976 13.9961 7.00063 13.9961C3.13304 13.9961 0.00499725 10.8681 0.00499725 7.00051C0.00499725 3.13293 3.13304 0.00488281 7.00063 0.00488281C10.8682 0.00488281 13.9963 3.13293 13.9963 7.00051C13.9963 8.37965 13.5865 9.66884 12.8869 10.7582ZM2.00375 7.00051C2.00375 9.75879 4.24235 11.9974 7.00062 11.9974C9.7589 11.9974 11.9975 9.75879 11.9975 7.00051C11.9975 4.24223 9.7589 2.00363 7.00062 2.00363C4.24235 2.00363 2.00375 4.24223 2.00375 7.00051Z" fill="black"/>
<mask id="mask0" mask-type="alpha" maskUnits="userSpaceOnUse" x="0" y="0" width="16" height="16">
<path fill-rule="evenodd" clip-rule="evenodd" d="M12.8869 10.7582L15.5553 13.4365C15.8251 13.7063 15.995 14.0861 15.995 14.4958C15.995 15.3253 15.3254 15.9949 14.4959 15.9949C14.0862 15.9949 13.7064 15.825 13.4366 15.5552L10.7583 12.8868C9.67895 13.5764 8.38976 13.9961 7.00063 13.9961C3.13304 13.9961 0.00499725 10.8681 0.00499725 7.00051C0.00499725 3.13293 3.13304 0.00488281 7.00063 0.00488281C10.8682 0.00488281 13.9963 3.13293 13.9963 7.00051C13.9963 8.37965 13.5865 9.66884 12.8869 10.7582ZM2.00375 7.00051C2.00375 9.75879 4.24235 11.9974 7.00062 11.9974C9.7589 11.9974 11.9975 9.75879 11.9975 7.00051C11.9975 4.24223 9.7589 2.00363 7.00062 2.00363C4.24235 2.00363 2.00375 4.24223 2.00375 7.00051Z" fill="white"/>
</mask>
<g mask="url(#mask0)">
<rect width="16" height="16" fill="url(#paint0_linear)"/>
</g>
<defs>
<linearGradient id="paint0_linear" x1="8" y1="16" x2="8" y2="3.38381e-07" gradientUnits="userSpaceOnUse">
<stop stop-color="#3A6DED"/>
<stop offset="1" stop-color="#5582FF"/>
</linearGradient>
</defs>
</svg>
