<svg width="22" height="22" viewBox="0 0 22 22" fill="none" xmlns="http://www.w3.org/2000/svg">
<path fill-rule="evenodd" clip-rule="evenodd" d="M11.275 6.47625L6.75125 11L11.2888 15.5238C11.5363 15.7712 11.6875 16.115 11.6875 16.5C11.6875 17.2563 11.0687 17.875 10.3125 17.875C9.9275 17.875 9.58375 17.7238 9.33625 17.4762L3.83625 11.9763C3.58875 11.7288 3.4375 11.385 3.4375 11C3.4375 10.615 3.58875 10.2712 3.83625 10.0237L9.33625 4.52375C9.58375 4.27625 9.9275 4.125 10.3125 4.125C11.0687 4.125 11.6875 4.74375 11.6875 5.5C11.6875 5.885 11.5363 6.22875 11.275 6.47625ZM18.15 6.47625L13.6263 11L18.1637 15.5238C18.4113 15.7712 18.5625 16.115 18.5625 16.5C18.5625 17.2563 17.9438 17.875 17.1875 17.875C16.8025 17.875 16.4587 17.7238 16.2113 17.4762L10.7112 11.9763C10.4637 11.7288 10.3125 11.385 10.3125 11C10.3125 10.615 10.4637 10.2712 10.7112 10.0237L16.2113 4.52375C16.4587 4.27625 16.8025 4.125 17.1875 4.125C17.9438 4.125 18.5625 4.74375 18.5625 5.5C18.5625 5.885 18.4113 6.22875 18.15 6.47625Z" fill="white"/>
</svg>
