<svg width="16" height="16" viewBox="0 0 16 16" fill="none" xmlns="http://www.w3.org/2000/svg">
<path fill-rule="evenodd" clip-rule="evenodd" d="M15.1769 13.5L15.1864 13.49L8.48587 1.49L8.4763 1.5C8.31357 1.2 8.01684 1 7.66266 1C7.30849 1 7.02132 1.2 6.84902 1.5L6.83945 1.49L0.138894 13.49L0.148466 13.5C0.0623162 13.65 0.00488281 13.81 0.00488281 14C0.00488281 14.55 0.435633 15 0.962105 15H14.3632C14.8897 15 15.3204 14.55 15.3204 14C15.3204 13.81 15.263 13.65 15.1769 13.5ZM8.61989 12.99H6.70544V10.99H8.61989V12.99ZM6.70544 9.99H8.61989V4.99H6.70544V9.99Z" fill="black"/>
<mask id="mask0" mask-type="alpha" maskUnits="userSpaceOnUse" x="0" y="1" width="16" height="14">
<path fill-rule="evenodd" clip-rule="evenodd" d="M15.1769 13.5L15.1864 13.49L8.48587 1.49L8.4763 1.5C8.31357 1.2 8.01684 1 7.66266 1C7.30849 1 7.02132 1.2 6.84902 1.5L6.83945 1.49L0.138894 13.49L0.148466 13.5C0.0623162 13.65 0.00488281 13.81 0.00488281 14C0.00488281 14.55 0.435633 15 0.962105 15H14.3632C14.8897 15 15.3204 14.55 15.3204 14C15.3204 13.81 15.263 13.65 15.1769 13.5ZM8.61989 12.99H6.70544V10.99H8.61989V12.99ZM6.70544 9.99H8.61989V4.99H6.70544V9.99Z" fill="white"/>
</mask>
<g mask="url(#mask0)">
<rect width="15.3251" height="16" fill="#FACB39"/>
</g>
</svg>
